<svg width="24" height="24" viewBox="0 0 24 24" fill="none" xmlns="http://www.w3.org/2000/svg">
<rect width="24" height="24" fill="white"/>
<path fill-rule="evenodd" clip-rule="evenodd" d="M7.71707 1.64987C3.44597 3.50301 1 7.35432 1 12.2265C1 16.1821 1.45292 17.3196 4.04955 19.8836C6.48593 22.2913 7.93106 22.9131 11.2445 22.9823C15.2738 23.0667 15.4043 22.9757 15.8726 19.7519C16.2996 16.8039 16.7275 16.3812 19.7118 15.9593C22.9754 15.4968 23.0675 15.3679 22.9821 11.3876C22.913 8.16667 22.2787 6.68416 20.0141 4.44617C16.9339 1.40342 11.2589 0.113331 7.71707 1.64987ZM13.5264 3.72008C14.5147 5.30118 12.2914 7.11356 10.9672 5.80546C9.85982 4.71158 10.5526 2.68972 12.0352 2.68972C12.5006 2.68972 13.1713 3.15324 13.5264 3.72008ZM8.19686 7.01118C8.19686 8.40459 6.14816 8.88139 5.00625 7.75339C4.13879 6.89649 6.28921 4.4803 7.34571 5.12581C7.81399 5.41113 8.19686 6.2595 8.19686 7.01118ZM19.1649 7.53632C18.3473 8.84347 15.8735 8.52498 15.8735 7.11356C15.8735 6.4178 16.1576 5.56848 16.5049 5.22534C17.3724 4.36844 19.8184 6.49268 19.1649 7.53632ZM5.84973 11.3033C6.83809 12.8844 4.61474 14.6967 3.29052 13.3886C2.18316 12.2948 2.87598 10.2729 4.35854 10.2729C4.82393 10.2729 5.49468 10.7364 5.84973 11.3033ZM21.203 11.3033C22.1914 12.8844 19.968 14.6967 18.6438 13.3886C17.5365 12.2948 18.2293 10.2729 19.7118 10.2729C20.1772 10.2729 20.848 10.7364 21.203 11.3033ZM13.774 19.0552C14.1559 21.0135 11.3865 22.334 9.92411 20.8894C8.46171 19.4448 9.7984 16.7091 11.7809 17.0864C12.7002 17.2608 13.5974 18.1471 13.774 19.0552Z" fill="black"/>
</svg>
