<svg width="24" height="24" viewBox="0 0 24 24" fill="none" xmlns="http://www.w3.org/2000/svg">
<rect width="24" height="24" fill="white"/>
<path fill-rule="evenodd" clip-rule="evenodd" d="M10.6504 1.10645C10.6453 1.19227 10.6248 2.03317 10.6049 2.97512L10.5688 4.68775L9.98467 4.74674L9.4007 4.80573L9.34695 6.07879L9.29338 7.35184L6.93273 7.40531C5.07423 7.44756 4.50338 7.52386 4.2492 7.7642C4.07155 7.93204 3.73994 8.07933 3.51236 8.09132L3.09839 8.11301L3.0492 12.0326L3 15.9521L3.93143 16.4569C4.85795 16.9589 4.88546 16.9616 8.99128 16.9677C12.2355 16.9724 13.1917 17.0307 13.4553 17.2392C13.8764 17.5724 15.0786 17.7937 15.5746 17.6291C15.9428 17.5072 15.9486 17.4099 15.9011 12.143L15.8528 6.78096L14.9561 6.72159C14.274 6.67649 13.938 6.75622 13.5515 7.0546C13.272 7.27039 12.9991 7.44699 12.9448 7.44699C12.8907 7.44699 12.8464 6.84757 12.8464 6.11494V4.78289H12.2152H11.5841L11.532 2.92755C11.4826 1.16753 11.4587 1.06915 11.0699 1.0113C10.8445 0.978002 10.6557 1.02082 10.6504 1.10645ZM11.9354 7.13757C11.9354 8.01406 11.8222 9.06637 11.6837 9.47588C11.445 10.1828 11.4553 10.2487 11.8856 10.7712C12.2597 11.2254 12.3216 11.4564 12.2396 12.0939C11.9478 14.3672 8.83787 14.0661 8.83787 11.7647C8.83787 11.5128 9.09259 10.8077 9.40398 10.1984C9.86332 9.29948 9.98631 8.80091 10.0563 7.55507C10.1036 6.71075 10.1743 5.91285 10.2133 5.78193C10.2563 5.6375 10.6084 5.54406 11.1098 5.54406H11.9354V7.13757ZM14.9906 12.1721L15.0394 16.7972L14.5351 16.7367L14.0307 16.6762L13.9342 12.5849L13.8376 8.49359L13.7975 12.2315C13.7631 15.4393 13.7166 15.9858 13.4692 16.0849C13.3107 16.1485 11.3035 16.2004 9.00859 16.2004H4.83627L4.73551 15.7723C4.67994 15.5369 4.65789 13.7599 4.6865 11.8237L4.73824 8.3033L7.15247 8.25021C9.56049 8.19731 9.56669 8.19826 9.5594 8.63079C9.55539 8.86923 9.3096 9.53544 9.01297 10.1111C8.71615 10.6867 8.47346 11.3959 8.47346 11.6871C8.47327 14.371 11.7665 15.0136 12.6361 12.4994C12.8633 11.8429 12.8471 11.7211 12.4189 10.8593C11.992 9.99976 11.974 9.8656 12.185 9.11566C12.408 8.32233 12.4311 8.30368 13.1765 8.31967C13.6341 8.32956 13.9396 8.24964 13.9396 8.11986C13.9396 7.78894 14.3547 7.42929 14.6646 7.49151C14.902 7.53909 14.9487 8.2112 14.9906 12.1721ZM4.46493 12.2182C4.46493 15.21 4.43961 15.4621 4.14607 15.4033C3.86147 15.3462 3.82175 15.0237 3.77674 12.4001C3.72263 9.24867 3.75579 8.96932 4.18598 8.96932C4.42558 8.96932 4.46493 9.42755 4.46493 12.2182ZM10.1443 11.2289C9.81576 11.4464 9.94549 12.4012 10.3385 12.6581C10.5889 12.8218 10.7383 12.7778 11.0546 12.4477C11.398 12.0888 11.4246 11.962 11.2432 11.5463C11.0305 11.0589 10.5921 10.9324 10.1443 11.2289ZM16.4233 12.7185C16.1514 13.0024 16.3779 13.378 17.5072 14.5163C18.359 15.3748 18.8821 16.1104 19.3136 17.0567C20.006 18.5751 20.4384 20.9359 20.1332 21.5315C19.5348 22.6991 18.2379 22.2175 18.2016 20.8141C18.1369 18.3094 17.6477 16.4739 16.842 15.7125C16.4388 15.3314 16.1436 15.4785 16.475 15.8954C16.6426 16.1064 16.6439 16.2537 16.4803 16.5275C16.1476 17.0838 16.5483 20.506 17.0078 21.0316C17.2009 21.2527 17.4919 21.7084 17.6546 22.0447C18.0423 22.846 19.1095 23.2253 19.9515 22.861C20.8226 22.4843 21.1103 21.7157 20.9635 20.1581C20.7149 17.5241 19.8132 15.6041 17.9576 13.7576C17.0315 12.8361 16.5944 12.54 16.4233 12.7185ZM17.1998 17.1995C17.6468 18.2415 17.9717 20.0451 17.7545 20.279C17.4653 20.5909 17.3296 20.2175 17.1942 18.7368C17.1215 17.9422 16.9744 17.2006 16.8673 17.0887C16.6705 16.8832 16.5967 16.3907 16.7629 16.3907C16.8125 16.3907 17.0091 16.7546 17.1998 17.1995Z" fill="black"/>
</svg>
