<svg width="30" height="20" viewBox="0 0 30 20" xmlns="http://www.w3.org/2000/svg" xmlns:xlink="http://www.w3.org/1999/xlink"><title>icons/creditcard_amex</title><defs><radialGradient cx="17.035%" cy="17.435%" fx="17.035%" fy="17.435%" r="121.476%" id="a"><stop stop-color="#98D2F7" offset="0%"/><stop stop-color="#28B1E7" offset="55.011%"/><stop stop-color="#2975BF" offset="100%"/></radialGradient><path d="M27.082 0H2.922C1.31 0 0 1.307 0 2.91v13.36c0 1.606 1.31 2.912 2.92 2.912h24.162c1.61 0 2.918-1.306 2.918-2.91V2.91C30 1.307 28.69 0 27.082 0" id="c"/><filter x="-50%" y="-50%" width="200%" height="200%" filterUnits="objectBoundingBox" id="b"><feMorphology radius=".5" in="SourceAlpha" result="shadowSpreadInner1"/><feOffset in="shadowSpreadInner1" result="shadowOffsetInner1"/><feComposite in="shadowOffsetInner1" in2="SourceAlpha" operator="arithmetic" k2="-1" k3="1" result="shadowInnerInner1"/><feColorMatrix values="0 0 0 0 0 0 0 0 0 0 0 0 0 0 0 0 0 0 0.0742753623 0" in="shadowInnerInner1"/></filter></defs><g fill="none" fill-rule="evenodd"><path d="M27.082 0H2.922C1.31 0 0 1.307 0 2.91v13.36c0 1.606 1.31 2.912 2.92 2.912h24.162c1.61 0 2.918-1.306 2.918-2.91V2.91C30 1.307 28.69 0 27.082 0" fill="url(#a)"/><use filter="url(#b)" xlink:href="#c" fill="#000"/><path d="M15.93 11.67h3.36v-.883h-2.357v-.87h2.294v-.884h-2.294v-.766h2.358V7.37h-3.36M12.305 10.293L10.987 7.37H9.35v4.08L7.64 7.37H6.144l-1.8 4.313h1.09l.393-.96H7.92l.38.96h2.053V8.306l1.458 3.377h.888l1.458-3.377v3.377h1.027V7.37H13.51l-1.205 2.923zm-6.123-.48l.685-1.715.684 1.714H6.183z"/><path fill="#FFF" d="M6.182 9.812h1.37l-.685-1.714"/><path d="M12.305 10.293L10.987 7.37H9.35v4.08L7.64 7.37H6.144l-1.8 4.3h1.09l.393-.96H7.92l.392.96h2.04V8.293l1.46 3.377h.874l1.458-3.364.012 3.364h1.027v-4.3H13.51M15.93 11.67h3.36v-.883h-2.357v-.87h2.294v-.884h-2.294v-.766h2.358V7.37h-3.36"/><g fill="#FFF"><path d="M19.29 8.267h-2.357v.766h2.294v.883h-2.294v.87h2.358v.87l1.788-2.13-1.787-2.13"/><path d="M26.137 6.513h-3.74l-.698.83-.698-.83H12.9l-.645 1.546-.672-1.547H8.515v.714l-.343-.714H5.548L3.05 12.5l1.28.014h1.713l.393-.96h.862l.38.96h3.372v-.727l.305.74h1.75l.303-.74v.74h7.087v-.013h.596l.61-.727.608.727h3.69L23.55 9.592l2.587-3.08zM15.183 11.67h-1.027V8.293l-1.458 3.377h-.887l-1.457-3.377v3.377h-2.04l-.38-.96H5.84l-.393.96h-1.09l1.8-4.313h1.496l1.71 4.08V7.37h1.624l1.318 2.923L13.51 7.37h1.673v4.3zm8.913 0h-1.218l-1.19-1.416-1.193 1.416H15.93v-4.3H20.496l1.192 1.43 1.19-1.43h1.22l-1.802 2.157 1.8 2.143z"/></g></g></svg>
