<svg width="30" height="20" viewBox="0 0 30 20" xmlns="http://www.w3.org/2000/svg" xmlns:xlink="http://www.w3.org/1999/xlink"><title>icons/creditcard_mastercard</title><defs><path d="M2.92 0C1.31 0 0 1.307 0 2.91v13.36c0 1.606 1.31 2.912 2.92 2.912h24.162c1.61 0 2.918-1.306 2.918-2.91V2.91C30 1.307 28.69 0 27.082 0H2.922z" id="a"/><filter x="-50%" y="-50%" width="200%" height="200%" filterUnits="objectBoundingBox" id="b"><feMorphology radius=".5" in="SourceAlpha" result="shadowSpreadInner1"/><feOffset in="shadowSpreadInner1" result="shadowOffsetInner1"/><feComposite in="shadowOffsetInner1" in2="SourceAlpha" operator="arithmetic" k2="-1" k3="1" result="shadowInnerInner1"/><feColorMatrix values="0 0 0 0 0 0 0 0 0 0 0 0 0 0 0 0 0 0 0.12 0" in="shadowInnerInner1"/></filter></defs><g fill="none" fill-rule="evenodd"><use fill="#FFF" xlink:href="#a"/><use fill="#000" filter="url(#b)" xlink:href="#a"/><g><path d="M23.856 9.44c0 3.225-2.525 5.84-5.64 5.84-3.116 0-5.642-2.615-5.642-5.84 0-3.224 2.526-5.84 5.64-5.84 3.117 0 5.642 2.616 5.642 5.84z" fill="#F79F1A"/><path d="M16.897 9.44c0 3.225-2.526 5.84-5.64 5.84-3.117 0-5.642-2.615-5.642-5.84 0-3.224 2.525-5.84 5.64-5.84 3.116 0 5.642 2.616 5.642 5.84z" fill="#EA001B"/><path d="M14.735 4.844c-1.316 1.07-2.16 2.73-2.16 4.596s.844 3.528 2.16 4.597c1.317-1.07 2.162-2.73 2.162-4.597 0-1.866-.845-3.527-2.162-4.596z" fill="#FF5F01"/></g></g></svg>
