
<svg width="30" height="20" version="1.1" id="VISA_Logo" xmlns="http://www.w3.org/2000/svg" xmlns:xlink="http://www.w3.org/1999/xlink" x="0px" y="0px"
	 viewBox="0 0 216.74 70.3" style="enable-background:new 0 0 216.74 70.3;" xml:space="preserve">
<path fill="#1A1F71" d="M82.36,1.78L54.09,69.25H35.63L21.72,15.4c-0.85-3.32-1.58-4.53-4.15-5.93C13.38,7.2,6.45,5.06,0.35,3.74
	l0.42-1.96h29.7c3.78,0,7.19,2.52,8.05,6.88l7.35,39.05L64.03,1.78H82.36z M154.66,47.22c0.07-17.81-24.63-18.79-24.46-26.74
	c0.05-2.42,2.36-4.99,7.4-5.65c2.5-0.33,9.39-0.58,17.21,3.02l3.06-14.31c-4.2-1.53-9.6-2.99-16.33-2.99
	c-17.25,0-29.39,9.17-29.5,22.31c-0.11,9.71,8.67,15.13,15.28,18.36c6.8,3.31,9.08,5.43,9.05,8.38c-0.04,4.53-5.42,6.52-10.44,6.6
	c-8.78,0.14-13.87-2.37-17.93-4.26l-3.16,14.78c4.08,1.87,11.6,3.5,19.41,3.58C142.6,70.3,154.6,61.24,154.66,47.22 M200.21,69.25
	h16.14L202.26,1.78h-14.9c-3.35,0-6.17,1.95-7.43,4.95l-26.18,62.52h18.33l3.64-10.08h22.39L200.21,69.25z M180.74,45.34l9.19-25.34
	l5.29,25.34H180.74z M107.3,1.78L92.87,69.25H75.42L89.85,1.78H107.3z"/>
</svg>