<svg width="30" height="20" viewBox="0 0 30 20" xmlns="http://www.w3.org/2000/svg" xmlns:xlink="http://www.w3.org/1999/xlink"><title>icons/creditcard_discover</title><defs><path d="M27.082 0H2.922C1.31 0 0 1.307 0 2.91v13.36c0 1.606 1.31 2.912 2.92 2.912h24.162c1.61 0 2.918-1.306 2.918-2.91V2.91C30 1.307 28.69 0 27.082 0" id="a"/><path d="M2.92 0C1.31 0 0 1.307 0 2.91v13.36c0 1.606 1.31 2.912 2.92 2.912h24.162c1.61 0 2.918-1.306 2.918-2.91V2.91C30 1.307 28.69 0 27.082 0H2.922z" id="c"/><filter x="-50%" y="-50%" width="200%" height="200%" filterUnits="objectBoundingBox" id="d"><feMorphology radius=".5" in="SourceAlpha" result="shadowSpreadInner1"/><feOffset in="shadowSpreadInner1" result="shadowOffsetInner1"/><feComposite in="shadowOffsetInner1" in2="SourceAlpha" operator="arithmetic" k2="-1" k3="1" result="shadowInnerInner1"/><feColorMatrix values="0 0 0 0 0 0 0 0 0 0 0 0 0 0 0 0 0 0 0.0742753623 0" in="shadowInnerInner1"/></filter></defs><g fill="none" fill-rule="evenodd"><mask id="b" fill="#fff"><use xlink:href="#a"/></mask><use fill="#FFF" xlink:href="#a"/><path d="M30.072 12.5s-5.52 3.218-8.382 4.294C18.196 18.107 11 19.664 11 19.664L30.2 20l-.128-7.5z" fill="#F68200" mask="url(#b)"/><use filter="url(#d)" xlink:href="#c" fill="#000"/><g><path d="M6.51 8.795c.23.194.37.494.37.803 0 .31-.14.62-.37.812-.207.178-.478.257-.905.257h-.178V8.534h.178c.427 0 .687.074.906.26zm19.24-.624c0-.11.092-.202.205-.202.115 0 .207.092.207.203 0 .112-.093.204-.207.204-.112 0-.206-.09-.206-.203zm.097.143h.07v-.11l.085.11h.087l-.098-.116c.042-.01.065-.04.065-.08 0-.056-.04-.087-.114-.087h-.096v.283zm-.15-.142c0 .138.116.248.26.248.14 0 .258-.11.258-.247 0-.134-.117-.246-.257-.246-.146 0-.26.11-.26.247zm-2.22 3.043h.662V9.917h.085l.917 1.296h.816l-1.07-1.36c.5-.095.774-.42.774-.913 0-.604-.437-.952-1.203-.952h-.985v3.225zm-2.32 0h1.88v-.546h-1.218v-.87h1.172V9.25H21.82v-.716h1.216v-.546h-1.88v3.225zm-3.568-3.225l1.442 3.307h.355l1.47-3.307h-.72l-.917 2.166-.907-2.166h-.724zm-6.253 1.615c0 .947.785 1.682 1.794 1.682.287 0 .532-.053.833-.188v-.74c-.265.252-.5.354-.8.354-.668 0-1.142-.46-1.142-1.112 0-.618.49-1.107 1.112-1.107.316 0 .556.108.83.364v-.74c-.29-.14-.53-.198-.814-.198-1.005 0-1.81.75-1.81 1.687zm-3.776 0c0-.952-.748-1.615-1.823-1.615h-.972v3.225h.968c.514 0 .885-.115 1.212-.373.387-.305.616-.763.616-1.237zm.97-1.615h-.663v3.225h.663V7.988zm2.6 2.243c0-.51-.225-.743-.98-1.004-.397-.14-.514-.233-.514-.406 0-.203.208-.358.494-.358.198 0 .362.078.535.262l.347-.43c-.286-.238-.627-.36-1-.36-.6 0-1.058.397-1.058.925 0 .443.213.67.835.883.26.087.39.145.458.184.133.082.2.198.2.333 0 .262-.22.456-.516.456-.316 0-.572-.15-.723-.43l-.43.39c.306.426.672.615 1.176.615.69 0 1.173-.435 1.173-1.06zm13.85-1.257c0-.313-.225-.477-.638-.477h-.203v.976h.192c.423 0 .647-.174.647-.5zm1.005-.855c0-.024-.018-.036-.053-.036h-.013v.074h.01c.036 0 .055-.012.055-.038z" fill="#000"/><path d="M14.18 9.612c0 .947.81 1.715 1.807 1.715.812 0 1.5-.507 1.727-1.205.01-.03.017-.06.025-.09l.02-.074c.023-.112.036-.228.036-.347 0-.946-.81-1.713-1.81-1.713-.747 0-1.39.43-1.665 1.047-.09.206-.14.43-.14.668z" fill="#F68200"/></g></g></svg>
