<svg width="30" height="20" viewBox="0 0 30 20" xmlns="http://www.w3.org/2000/svg"><title>icons/creditcard_default</title><path d="M25.166 11.11h-1.872c-.37 0-.67-.3-.67-.67 0-.37.3-.668.67-.668h1.872c.37 0 .67.3.67.67 0 .368-.3.668-.67.668m-11.77 0H4.323c-.37 0-.67-.3-.67-.67 0-.37.3-.668.67-.668h9.073c.37 0 .67.3.67.67 0 .368-.3.668-.67.668m13.686 6.733H2.922c-.874 0-1.583-.704-1.583-1.572V5.98h27.32v10.29c0 .87-.707 1.573-1.578 1.573M2.922 1.34h24.16c.87 0 1.58.704 1.58 1.57v.39H1.338v-.39c0-.866.708-1.57 1.58-1.57m0-1.34C1.31 0 0 1.307 0 2.91v13.36c0 1.606 1.31 2.912 2.92 2.912h24.162c1.61 0 2.918-1.306 2.918-2.91V2.91C30 1.307 28.69 0 27.082 0H2.922z" fill="#000" fill-rule="evenodd"/></svg>
