<svg width="24" height="24" viewBox="0 0 24 24" fill="none" xmlns="http://www.w3.org/2000/svg">
<rect x="0.25" y="0.25" width="23.5" height="23.5" rx="3.75" fill="white" stroke="black" stroke-width="0.5"/>
<path fill-rule="evenodd" clip-rule="evenodd" d="M4.4629 2.01737C4.00926 2.03778 3.90235 2.07349 3.70585 2.27035C3.33409 2.64272 3.35206 3.12348 3.75141 3.49093L3.95539 3.67864V3.94048C3.95539 4.08447 3.94442 4.34825 3.93096 4.52661L3.90656 4.85094L3.33887 4.85076C2.64438 4.85055 2.48183 4.89353 2.24728 5.13938C2.16074 5.23008 2.06984 5.36759 2.04526 5.4449C1.98019 5.64958 1.98691 6.4421 2.05496 6.59158C2.16762 6.83899 2.46356 7.04764 2.70178 7.04764C2.91911 7.04764 2.94802 7.07337 2.87486 7.20166C2.82813 7.28365 2.81088 7.40294 2.81001 7.64996C2.80896 7.94765 2.82091 8.00976 2.91335 8.18713C3.0785 8.50409 3.38225 8.72295 3.78916 8.81819C3.93209 8.85163 3.94133 8.86127 3.92585 8.96087C3.89709 9.14532 3.95622 9.45771 4.03366 9.5307C4.13847 9.62948 4.33504 9.61949 4.44429 9.50986C4.51917 9.43479 4.53538 9.37477 4.54955 9.12013L4.56632 8.81918H12.005H19.4437V10.6793V12.5394H16.925H14.4062V12.4489C14.4062 12.3036 14.2957 11.8689 14.1906 11.6005C13.8385 10.7013 13.1746 10.0981 12.3574 9.93471C12.0825 9.87972 12.0286 9.87916 11.7298 9.92809C11.3218 9.99487 10.9266 10.1702 10.6414 10.4107C10.422 10.5959 10.1059 10.9762 9.99113 11.193C9.80173 11.5509 9.59569 12.191 9.59478 12.4243L9.59433 12.5394H7.07561H4.55688L4.55477 12.2471C4.55361 12.0863 4.53244 11.8992 4.50778 11.8312C4.43008 11.6172 4.16527 11.5646 4.00517 11.7314C3.93964 11.7996 3.93652 11.9855 3.93502 15.891C3.93404 18.4502 3.91998 19.9913 3.89743 20.0113C3.87761 20.029 3.7007 20.0497 3.50428 20.0575C3.22132 20.0686 3.10933 20.0894 2.96508 20.1576C2.19657 20.521 2.22672 21.6053 3.01418 21.9246L3.20011 22L12.0456 21.9908L20.891 21.9817L21.0449 21.9041C21.78 21.5333 21.7745 20.5111 21.0355 20.1563C20.8884 20.0857 20.7848 20.0666 20.4963 20.0567C20.2999 20.05 20.1222 20.0292 20.1016 20.0104C20.0484 19.9622 20.0472 8.89677 20.1003 8.85666C20.1217 8.84054 20.1984 8.8156 20.2707 8.80121C20.5918 8.73748 20.9072 8.50799 21.0763 8.21519C21.2236 7.96023 21.2528 7.53889 21.1422 7.26696C21.0571 7.05781 21.0507 7.06536 21.3409 7.03255C21.5985 7.00346 21.7819 6.87938 21.9014 6.65334C21.9922 6.48157 22 6.43136 22 6.01764C22 5.50396 21.9518 5.32522 21.7634 5.14027C21.5184 4.89962 21.4119 4.8706 20.703 4.85094L20.064 4.83322L20.0727 4.2387L20.0814 3.64417L20.2693 3.46709C20.745 3.01875 20.6054 2.32027 19.9888 2.06382C19.8468 2.00476 19.4229 2.00121 12.3574 2.00004C8.24287 1.99934 4.69034 2.00713 4.4629 2.01737ZM19.8454 2.6604C19.9716 2.77219 19.9657 2.97875 19.8333 3.07682L19.7343 3.15027H12.0003H4.26629L4.16723 3.07682C4.03896 2.98176 4.03069 2.78498 4.1499 2.66536L4.23166 2.58338H11.995H19.7584L19.8454 2.6604ZM19.4437 4.28405V4.85094H12.0003H4.55688V4.28405V3.71716H12.0003H19.4437V4.28405ZM21.2828 5.50956L21.3985 5.60129L21.3979 5.97902C21.3976 6.18678 21.3814 6.38066 21.3618 6.40989C21.303 6.49772 20.1875 6.50789 11.192 6.50254C4.45497 6.49854 2.7543 6.48851 2.68663 6.45248C2.6069 6.41 2.60205 6.38491 2.60205 6.01618C2.60205 5.63102 2.60374 5.62336 2.71193 5.5214L2.82182 5.41783H11.9945H21.1672L21.2828 5.50956ZM20.184 7.09778C20.3403 7.13094 20.5599 7.36096 20.5927 7.52582C20.6451 7.78896 20.5573 8.00257 20.3314 8.16151L20.2276 8.23457H12.0003H3.77295L3.66912 8.16151C3.40421 7.97511 3.32071 7.66591 3.46236 7.39603C3.60334 7.12747 3.66909 7.1033 4.31253 7.08307C5.19318 7.0554 20.0493 7.06918 20.184 7.09778ZM4.08001 10.3776C3.89509 10.4496 3.85803 10.7184 4.01686 10.8361C4.21933 10.9863 4.48169 10.8694 4.48169 10.629C4.48169 10.4273 4.27881 10.3003 4.08001 10.3776ZM12.5576 10.5944C12.7229 10.6643 12.8727 10.7682 13.0492 10.9351C13.507 11.3683 13.7401 11.8928 13.8091 12.6457C13.836 12.9389 13.8425 13.8908 13.8285 15.4624C13.8167 16.7681 13.8066 18.3346 13.8059 18.9435L13.8047 20.0507H12.0003H10.1958L10.1943 18.5715C10.1935 17.7579 10.1835 16.1535 10.1721 15.0063C10.1493 12.7087 10.1663 12.4054 10.346 11.9016C10.5005 11.4686 10.6635 11.2085 10.9513 10.9356C11.4429 10.4696 11.9885 10.3538 12.5576 10.5944ZM9.55674 14.0984V15.0904H7.05681H4.55688V14.0984V13.1063H7.05681H9.55674V14.0984ZM19.4437 14.0984V15.0904H16.9438H14.4438V14.0984V13.1063H16.9438H19.4437V14.0984ZM9.56805 16.2862C9.58001 16.6321 9.59208 17.607 9.59486 18.4526C9.59899 19.6945 9.59042 19.9958 9.55016 20.0198C9.52276 20.0362 8.38809 20.0499 7.02862 20.0502L4.55688 20.0507V17.854V15.6573H7.05162H9.54636L9.56805 16.2862ZM19.4437 17.854V20.0507L16.9719 20.0502C15.6125 20.0499 14.4768 20.0357 14.4482 20.0186C14.4045 19.9925 14.3998 19.6449 14.4188 17.8313C14.4312 16.6454 14.4419 15.671 14.4425 15.6662C14.4433 15.6613 15.5688 15.6573 16.9438 15.6573H19.4437V17.854ZM20.8507 20.7369C20.9665 20.8398 20.985 20.8785 20.985 21.0176C20.985 21.2187 20.8637 21.3686 20.6583 21.4214C20.5609 21.4464 17.8783 21.4556 12.2822 21.4502C7.75416 21.4458 3.87431 21.4401 3.66029 21.4374L3.2712 21.4325L3.14339 21.312C3.03403 21.209 3.01557 21.1673 3.01557 21.0239C3.01557 20.8776 3.03264 20.8411 3.14981 20.7369L3.28406 20.6176H12.0003H20.7165L20.8507 20.7369Z" fill="black"/>
</svg>
