<svg width="24" height="24" viewBox="0 0 24 24" fill="none" xmlns="http://www.w3.org/2000/svg">
<rect x="0.25" y="0.25" width="23.5" height="23.5" rx="3.75" fill="white" stroke="black" stroke-width="0.5"/>
<path fill-rule="evenodd" clip-rule="evenodd" d="M7.6018 3.15875C6.6384 3.67657 5.60457 5.01713 5.47762 5.91337C5.44152 6.16822 5.44882 6.19756 5.54798 6.19712C5.7423 6.19618 6.27126 5.87207 6.6364 5.53015C7.07108 5.1231 7.49852 4.51938 7.74571 3.96329C7.93232 3.54362 8.04697 2.99906 7.94857 3C7.91978 3.00033 7.76373 3.07174 7.6018 3.15875ZM15.9936 3.20628C15.995 3.47045 16.3204 4.24748 16.6153 4.69048C16.9982 5.26586 17.6142 5.86352 18.0466 6.07934C18.5212 6.31622 18.5485 6.31021 18.5065 5.97849C18.4285 5.3612 18.0001 4.62696 17.3275 3.95772C16.883 3.51545 16.2436 3.05464 16.0744 3.05464C16.0244 3.05464 15.9931 3.11342 15.9936 3.20628ZM5.00295 3.5611C4.58953 4.17018 4.32637 5.09702 4.31707 5.97705C4.311 6.54328 4.43984 7.13499 4.56915 7.13499C4.59624 7.13499 4.72637 6.98363 4.85827 6.79864C5.2601 6.23516 5.47114 5.42885 5.46307 4.48828C5.45789 3.88797 5.35702 3.38229 5.2349 3.34479C5.19615 3.33288 5.09175 3.4302 5.00295 3.5611ZM18.6836 3.3717C18.6334 3.45546 18.5747 3.74726 18.5236 4.16715C18.4077 5.11913 18.7308 6.43521 19.2121 6.97078C19.3924 7.17144 19.429 7.17408 19.5172 6.99273C19.8597 6.28914 19.6052 4.6049 19.0159 3.67497C18.8065 3.3444 18.7376 3.28154 18.6836 3.3717ZM3.54586 5.42086C3.08321 6.38619 3.02274 8.0679 3.4245 8.79541C3.47497 8.88684 3.54563 8.95245 3.58149 8.94126C3.70532 8.90261 3.96977 8.3286 4.07023 7.88031C4.21861 7.21814 4.17145 6.03892 3.97548 5.51173C3.89722 5.30132 3.80413 5.12062 3.7685 5.1102C3.73294 5.09972 3.63272 5.23956 3.54586 5.42086ZM20.0844 5.28113C19.8214 5.87058 19.7372 7.13835 19.9095 7.91715C19.9951 8.30445 20.3118 9.00974 20.4001 9.00974C20.4841 9.00974 20.6442 8.68624 20.7311 8.34123C20.8432 7.8957 20.8466 6.93676 20.7379 6.40924C20.6403 5.93559 20.3739 5.23702 20.2559 5.14532C20.1893 5.0936 20.1565 5.11969 20.0844 5.28113ZM6.71542 5.80397C5.91383 6.16866 5.17 6.7891 4.69699 7.48761C4.49531 7.78536 4.30635 8.26194 4.35858 8.34106C4.39114 8.39041 4.65765 8.35088 4.88718 8.26265C4.96803 8.23161 4.92929 8.31575 4.74739 8.56658C4.39421 9.05363 4.01052 9.83938 3.86684 10.3699C3.74242 10.8294 3.70196 11.5699 3.79824 11.6257C3.90688 11.6885 4.40781 11.0719 4.68898 10.5292C5.05177 9.8289 5.21105 9.29145 5.25709 8.61185L5.29343 8.07617L5.53491 7.9268C6.1516 7.54534 6.81776 6.81137 7.1574 6.13905C7.35066 5.75649 7.38163 5.59108 7.2601 5.59108C7.21794 5.59108 6.9728 5.68685 6.71542 5.80397ZM16.6411 5.74271C16.6419 5.88778 16.896 6.37026 17.1771 6.76053C17.4637 7.15859 18.0306 7.70061 18.4285 7.95696L18.7015 8.1328V8.46331C18.7015 8.81008 18.8275 9.4663 18.9754 9.89005C19.2289 10.616 19.9284 11.6565 20.163 11.6565C20.2747 11.6565 20.2471 10.9007 20.1182 10.4288C19.952 9.82019 19.6661 9.2137 19.3118 8.718C19.1407 8.47869 19.0418 8.29761 19.0918 8.31559C19.1419 8.33356 19.2904 8.36439 19.4218 8.38407L19.6609 8.41986L19.6209 8.2599C19.4115 7.42006 18.3421 6.31986 17.2604 5.83154C16.7985 5.623 16.6402 5.60028 16.6411 5.74271ZM1.8606 7.40363C1.8606 8.32546 2.38461 9.63977 2.99824 10.2571C3.19003 10.4501 3.33853 10.5568 3.38105 10.5322C3.49269 10.4676 3.46372 9.74045 3.33017 9.25445C3.15952 8.6338 2.64335 7.67299 2.27291 7.28662C2.10573 7.11227 1.94457 6.96957 1.91477 6.96957C1.88498 6.96957 1.8606 7.16488 1.8606 7.40363ZM21.8185 7.17497C21.0796 7.96308 20.5286 9.21801 20.5286 10.1125C20.5287 10.6091 20.5772 10.6609 20.8395 10.4452C21.2363 10.1189 21.6932 9.32547 21.9519 8.51348C22.0821 8.10468 22.1706 6.96957 22.0723 6.96957C22.0387 6.96957 21.9245 7.06198 21.8185 7.17497ZM1.72787 9.51979C1.68642 9.62339 1.78711 10.313 1.89399 10.6573C2.00204 11.0053 2.32726 11.6316 2.57681 11.9721C2.93659 12.4632 3.60292 12.9663 3.73205 12.8445C3.81249 12.7686 3.76474 12.0688 3.65851 11.7667C3.398 11.026 2.94442 10.3582 2.33791 9.82245C1.92225 9.45522 1.78158 9.38546 1.72787 9.51979ZM21.8223 9.69452C20.9433 10.3536 20.2299 11.5804 20.2113 12.4647C20.2067 12.6819 20.2228 12.8782 20.2469 12.9011C20.4379 13.0817 21.3756 12.1673 21.7777 11.4083C22.0804 10.8369 22.3188 9.89032 22.2463 9.54736C22.2174 9.41105 22.1857 9.42208 21.8223 9.69452ZM4.49484 11.1392C4.47582 11.168 4.41487 11.4012 4.35946 11.6573C4.18269 12.4743 4.31719 13.6174 4.68044 14.3852C4.80651 14.6516 5.0152 14.9097 5.10464 14.9097C5.12867 14.9097 5.19691 14.7919 5.25627 14.6478C5.40531 14.2861 5.40554 13.1753 5.25662 12.5956C5.07161 11.8754 4.60177 10.9771 4.49484 11.1392ZM19.1178 11.6119C18.7518 12.3093 18.6287 12.8184 18.6203 13.6691C18.6147 14.2343 18.6359 14.4471 18.7209 14.6754C18.7802 14.8345 18.8529 14.9648 18.8825 14.9648C18.912 14.9648 19.0161 14.8616 19.1137 14.7355C19.3258 14.4613 19.5642 13.784 19.652 13.2059C19.7629 12.4765 19.6249 11.2371 19.426 11.175C19.3888 11.1633 19.2501 11.36 19.1178 11.6119ZM1.00707 11.8214C0.936059 11.929 1.41355 12.6619 1.82032 13.0697C2.49402 13.7453 3.37345 14.2576 3.9965 14.3376C4.26272 14.3718 4.27485 14.3675 4.27485 14.2388C4.27485 13.8194 3.51601 12.9538 2.70594 12.4491C2.06245 12.0482 1.09363 11.6903 1.00707 11.8214ZM22.4406 11.9282C21.6701 12.1854 20.983 12.6095 20.4008 13.1875C20.0402 13.5454 19.7338 14.0153 19.6911 14.2756C19.6392 14.5922 20.9027 14.1427 21.6337 13.5846C21.8376 13.4289 22.1463 13.1405 22.3197 12.9436C22.6221 12.6003 23 12.0112 23 11.8831C23 11.7963 22.7834 11.8138 22.4406 11.9282ZM5.51142 14.0738C5.51142 14.632 5.94586 15.697 6.48106 16.4509C6.79003 16.8861 7.33494 17.3867 7.67806 17.5506L7.92566 17.6689V17.3152C7.92566 16.3202 7.06172 14.894 5.96247 14.0745C5.59591 13.8012 5.51142 13.8011 5.51142 14.0738ZM17.984 14.1403C17.3606 14.6068 16.8838 15.1734 16.4781 15.9302C16.1697 16.5055 16.0517 16.8895 16.0517 17.3183C16.0517 17.7445 16.0903 17.7529 16.5606 17.4287C17.3489 16.8853 18.066 15.793 18.3758 14.6638C18.4763 14.2974 18.4954 13.862 18.4109 13.862C18.3807 13.862 18.1886 13.9873 17.984 14.1403ZM2.44944 14.2861C2.44944 14.4009 2.8505 14.9003 3.22671 15.2539C3.64373 15.6459 4.312 16.0853 4.82318 16.3036C5.46725 16.5786 5.45294 16.5658 5.06978 16.5238C4.27767 16.4369 3.10482 16.5251 2.7524 16.698L2.61043 16.7676L2.81387 16.9129C3.11041 17.1248 3.85418 17.4331 4.37825 17.5615C4.67143 17.6334 5.12072 17.6846 5.63654 17.705C6.35057 17.7332 6.48501 17.7236 6.85839 17.6174C7.08916 17.5518 7.27794 17.4766 7.27794 17.4503C7.27794 17.3759 6.8866 17.0722 6.64329 16.9578C6.52275 16.9011 6.28503 16.8121 6.11498 16.76C5.94492 16.7079 5.80584 16.6585 5.80584 16.6502C5.80584 16.642 5.93832 16.6472 6.10026 16.6617C6.45321 16.6935 6.476 16.6307 6.24523 16.262C5.80713 15.562 4.65883 14.787 3.50935 14.4156C3.08615 14.2788 2.44944 14.201 2.44944 14.2861ZM20.8045 14.3615C19.603 14.638 18.2308 15.5056 17.7342 16.3026C17.5149 16.6546 17.5573 16.7457 17.9208 16.7041C18.1953 16.6727 18.1926 16.6748 17.7896 16.8097C17.3283 16.964 16.7288 17.3232 16.7288 17.4453C16.7288 17.4901 16.8587 17.5735 17.0233 17.6345C17.2642 17.7239 17.4622 17.7441 18.1126 17.7456C18.9803 17.7477 19.5453 17.6562 20.2324 17.4024C20.6744 17.2391 21.3101 16.8928 21.3161 16.812C21.3256 16.6844 20.4011 16.5115 19.7025 16.5102C19.492 16.5099 19.1508 16.5353 18.9444 16.5666C18.7379 16.598 18.5584 16.6137 18.5455 16.6017C18.5326 16.5895 18.675 16.5273 18.862 16.4633C19.6599 16.1902 20.7174 15.4274 21.2726 14.7244C21.6782 14.2111 21.6278 14.172 20.8045 14.3615ZM7.98455 16.1845C7.98455 16.2988 8.41688 16.9138 8.75852 17.2855C9.4328 18.0191 10.667 18.7408 11.3622 18.808C11.7513 18.8456 11.7618 18.824 11.5552 18.4111C11.1414 17.584 9.85277 16.6218 8.64676 16.2395C8.24087 16.1109 7.98455 16.0895 7.98455 16.1845ZM15.4747 16.2301C14.1357 16.5878 12.4803 17.8874 12.3023 18.7206L12.2647 18.8972L12.5603 18.8644C13.2819 18.7844 14.2721 18.2273 15.052 17.4626C15.6921 16.835 16.1038 16.1994 15.9045 16.1467C15.8721 16.138 15.6787 16.1757 15.4747 16.2301ZM6.36618 17.9787C5.87167 18.078 5.07809 18.3572 4.98175 18.4659C4.94365 18.5089 4.92823 18.5681 4.9476 18.5973C4.99194 18.6646 5.6104 18.8529 6.05939 18.9359C6.55584 19.0277 7.69637 19.0127 8.24953 18.9071C8.89166 18.7844 9.57442 18.4857 9.57442 18.3274C9.57442 18.2636 8.92187 18.0132 8.58523 17.9478C8.14436 17.8622 6.85762 17.8801 6.36618 17.9787ZM15.482 17.969C14.9842 18.0536 14.3818 18.2952 14.4163 18.3965C14.4544 18.5085 15.0376 18.7786 15.4886 18.8931C16.1424 19.0592 17.2955 19.0837 18.0014 18.9465C18.3126 18.8861 18.6969 18.7829 18.8552 18.7173L19.1431 18.5979L18.9959 18.4922C18.7527 18.3175 17.8896 18.0518 17.2909 17.9673C16.6151 17.8719 16.0505 17.8724 15.482 17.969ZM9.12301 18.8511C8.23445 19.0021 6.98352 19.5037 6.98352 19.7091C6.98352 19.7895 7.59945 19.9341 8.137 19.98C9.04281 20.0573 10.1146 19.905 10.8529 19.594C11.2185 19.44 11.6354 19.178 11.6354 19.1021C11.6354 19.0449 11.2406 18.891 10.9288 18.8268C10.5652 18.7519 9.63319 18.7645 9.12301 18.8511ZM13.2755 18.8263C13.0602 18.85 12.7577 18.9219 12.6031 18.986L12.3221 19.1024L12.484 19.2607C12.8717 19.6396 13.9953 19.9723 15.0535 20.0214C15.9056 20.0609 16.994 19.9028 16.9937 19.7395C16.9936 19.6643 16.588 19.422 16.1989 19.2645C15.2882 18.896 14.166 18.7278 13.2755 18.8263ZM11.3392 19.4603C11.1316 19.6566 10.9194 19.8171 10.8679 19.8171C10.8163 19.8171 10.698 19.8916 10.6049 19.9826C10.5118 20.0735 10.406 20.148 10.3699 20.148C10.3337 20.148 10.2138 20.2353 10.1033 20.342L9.90246 20.5361L10.1207 20.7405L10.339 20.9449L10.6928 20.6171C10.8874 20.4368 11.0465 20.2472 11.0465 20.1957C11.0465 20.1442 11.2508 19.9258 11.5004 19.7104L11.9543 19.3187L12.4131 19.7458C12.6655 19.9807 12.8719 20.2116 12.8719 20.2587C12.8719 20.3058 13.0311 20.4919 13.2256 20.6722L13.5794 21L13.7977 20.7956L14.016 20.5912L13.8151 20.3972C13.7047 20.2904 13.5847 20.2031 13.5486 20.2031C13.5124 20.2031 13.4067 20.1287 13.3136 20.0377C13.2205 19.9467 13.11 19.8723 13.0681 19.8723C13.0262 19.8723 12.803 19.7054 12.5722 19.5016C12.2282 19.1976 12.1133 19.1284 11.9347 19.1171C11.7372 19.1048 11.6816 19.1368 11.3392 19.4603Z" fill="black"/>
</svg>
