<svg width="24" height="24" viewBox="0 0 24 24" fill="none" xmlns="http://www.w3.org/2000/svg">
<rect x="0.25" y="0.25" width="23.5" height="23.5" rx="3.75" fill="white" stroke="black" stroke-width="0.5"/>
<path fill-rule="evenodd" clip-rule="evenodd" d="M10.3394 3.14302C9.91931 3.23107 9.28134 3.4083 8.95622 3.52723C8.75884 3.59944 8.71993 3.68223 8.80702 3.84442C8.83014 3.88741 8.94592 4.17309 9.0644 4.47924C9.18283 4.78545 9.30374 5.04515 9.33307 5.05645C9.3624 5.0677 9.48443 5.04267 9.60426 5.00085C9.97559 4.87116 10.6487 4.71036 10.8203 4.71036C10.9651 4.71036 10.9771 4.66017 10.924 4.27334C10.8976 4.0804 10.8572 3.77383 10.8343 3.59206C10.765 3.04173 10.7758 3.05154 10.3394 3.14302ZM13.713 3.21558C13.713 3.2353 13.6723 3.45305 13.6224 3.69951C13.4126 4.73768 13.4196 4.67187 13.5117 4.73926C13.5576 4.77289 13.6355 4.80039 13.6847 4.80039C13.7338 4.80039 13.8363 4.8202 13.9122 4.84442C14.4581 5.01841 14.6593 5.08899 14.8303 5.16642C14.9821 5.23516 15.0397 5.24313 15.089 5.20216C15.1239 5.17322 15.1524 5.13234 15.1524 5.11132C15.1524 5.07175 15.2773 4.78671 15.5397 4.22769C15.6235 4.04893 15.6922 3.87364 15.6922 3.83821C15.6922 3.80278 15.6365 3.75223 15.5685 3.7258C15.0847 3.53804 14.9155 3.47727 14.6576 3.39858C13.9571 3.18484 13.713 3.13757 13.713 3.21558ZM7.9104 3.97524C7.41029 4.24718 6.9357 4.53714 6.80179 4.65251C6.73117 4.71338 6.64579 4.77869 6.61206 4.79769C6.53901 4.83879 6.57252 4.97231 6.68704 5.09633C6.73108 5.144 6.92477 5.39065 7.11742 5.64445C7.31008 5.89826 7.47988 6.10587 7.49482 6.10587C7.50975 6.10587 7.68738 5.99572 7.88957 5.86103C8.09181 5.72638 8.40385 5.54051 8.58305 5.448C8.76226 5.35549 8.91803 5.25587 8.92927 5.22661C8.94047 5.19735 8.8959 5.05406 8.83018 4.90812C8.32981 3.79675 8.34991 3.83537 8.26544 3.82439C8.23098 3.81993 8.07121 3.88782 7.9104 3.97524ZM15.9675 4.29396C15.8955 4.43634 15.7427 4.73377 15.6278 4.95498C15.513 5.17619 15.4275 5.37922 15.4378 5.40614C15.4481 5.4331 15.6057 5.54384 15.788 5.65224C15.9704 5.76064 16.2659 5.95925 16.4449 6.09358C16.6239 6.22791 16.7978 6.33122 16.8315 6.32312C16.8652 6.31506 17.0924 6.07549 17.3364 5.79076C17.5805 5.50603 17.8013 5.25767 17.827 5.23885C17.9203 5.1707 17.2044 4.60457 16.5568 4.23435C16.3658 4.12514 16.1845 4.03565 16.1539 4.03543C16.1233 4.03525 16.0394 4.15157 15.9675 4.29396ZM11.1266 5.12253C10.485 5.21873 10.1145 5.31628 10.1145 5.38894C10.1145 5.40956 10.1326 5.47294 10.1548 5.5298C10.177 5.58665 10.2198 5.72436 10.25 5.83577C10.2802 5.94719 10.3204 6.08899 10.3394 6.15089C10.3584 6.21279 10.3986 6.35459 10.4288 6.466C10.5253 6.82213 10.5593 6.88272 10.6441 6.85013C10.8172 6.78355 11.4615 6.69271 11.766 6.6919C12.0403 6.69122 12.0977 6.67763 12.1371 6.60402C12.1636 6.55437 12.1836 6.20617 12.1836 5.79373V5.07049L11.79 5.07625C11.5736 5.07945 11.275 5.10025 11.1266 5.12253ZM12.5955 5.66358C12.5649 5.96875 12.5299 6.31484 12.5176 6.43274C12.4971 6.62937 12.5045 6.65062 12.6076 6.68978C12.6693 6.71333 12.827 6.74641 12.9578 6.76334C13.0887 6.78031 13.3722 6.85198 13.588 6.9227C13.8038 6.99337 14.0021 7.05122 14.0289 7.05122C14.0556 7.05122 14.1088 6.97528 14.1472 6.88241C14.1856 6.78958 14.2619 6.61231 14.3169 6.48851C14.3718 6.36472 14.444 6.19253 14.4772 6.10587C14.5105 6.01922 14.5518 5.92806 14.569 5.9033C14.5862 5.87854 14.6137 5.80179 14.6302 5.73273C14.6573 5.61938 14.6437 5.60025 14.4902 5.53583C14.0788 5.3631 13.3735 5.18357 12.9234 5.13694L12.6511 5.10871L12.5955 5.66358ZM5.79488 5.48716C5.34727 5.91802 4.80668 6.55055 4.80668 6.64346C4.80668 6.68424 4.91293 6.79643 5.04283 6.89276C5.17274 6.98914 5.43597 7.18573 5.62782 7.32969C5.81966 7.47365 5.99549 7.59142 6.01853 7.59142C6.04156 7.59142 6.18068 7.44453 6.32777 7.26505C6.47482 7.08557 6.72923 6.81029 6.89315 6.65336C7.06736 6.48658 7.17851 6.34635 7.16078 6.31574C7.12358 6.25164 6.80102 5.85459 6.66109 5.70072C6.60482 5.63883 6.48337 5.49279 6.3912 5.37615C6.29903 5.25956 6.20336 5.16345 6.17862 5.16264C6.15388 5.16179 5.98119 5.30782 5.79488 5.48716ZM9.39479 5.57576C8.58489 5.94318 7.86542 6.37296 7.86542 6.48919C7.86542 6.53186 8.76568 7.72647 8.79784 7.72647C8.81133 7.72647 8.95622 7.63909 9.11982 7.53231C9.41435 7.34009 9.97959 7.05122 10.0612 7.05122C10.1563 7.05122 10.219 6.91513 10.1708 6.81335C10.1448 6.75848 10.0992 6.64269 10.0695 6.55604C10.0398 6.46938 9.99808 6.35796 9.97689 6.30845C9.95566 6.25893 9.88886 6.06648 9.82845 5.88079C9.70943 5.51498 9.63859 5.46511 9.39479 5.57576ZM17.6438 6.04199C17.3745 6.32875 17.1467 6.58395 17.1376 6.60911C17.1286 6.63428 17.2116 6.74911 17.3222 6.86431C17.5825 7.13554 17.9561 7.59398 18.0594 7.76901C18.104 7.84464 18.1717 7.90626 18.2096 7.9059C18.2657 7.90536 18.9775 7.46659 19.4104 7.16561C19.5184 7.09052 19.51 6.97631 19.3865 6.84135C19.3448 6.79584 19.2617 6.68771 19.2017 6.60105C19.1417 6.5144 19.0815 6.43337 19.068 6.42099C19.0544 6.40861 18.932 6.2673 18.7959 6.107C18.4918 5.74876 18.2543 5.52066 18.1854 5.52066C18.1568 5.52066 17.9131 5.75528 17.6438 6.04199ZM14.7535 6.47726C14.5768 6.8301 14.4323 7.15485 14.4325 7.19892C14.4326 7.24303 14.4681 7.2921 14.5114 7.30795C14.6354 7.35328 15.2911 7.79998 15.4893 7.97401C15.588 8.06072 15.6811 8.13162 15.6963 8.13162C15.7335 8.13162 16.6925 7.15584 16.7416 7.0681C16.7933 6.97559 16.6706 6.84828 16.1645 6.46956C15.7699 6.17425 15.2123 5.83577 15.1205 5.83577C15.0954 5.83577 14.9302 6.12442 14.7535 6.47726ZM7.04941 7.17502C6.65362 7.58259 6.15612 8.22232 6.15612 8.32366C6.15612 8.37534 6.36862 8.51826 7.18804 9.01781C7.32267 9.09988 7.44624 9.167 7.46266 9.167C7.47907 9.167 7.58001 9.04217 7.68698 8.8896C7.7939 8.737 8.01952 8.46897 8.1883 8.2939C8.35707 8.11888 8.49516 7.96393 8.49516 7.94957C8.49516 7.93525 8.45971 7.88425 8.4164 7.83626C8.37308 7.78823 8.27961 7.67807 8.20867 7.59142C7.95205 7.27792 7.49554 6.78112 7.4641 6.78112C7.44637 6.78112 7.25974 6.9584 7.04941 7.17502ZM4.26677 7.39897C4.03489 7.80619 3.79631 8.27382 3.72123 8.46816C3.53933 8.93903 3.54135 8.89622 3.69771 8.96366C3.77575 8.99728 3.96103 9.06891 4.10947 9.12279C4.25791 9.17668 4.41984 9.23803 4.46932 9.25915C4.59225 9.31159 4.98224 9.4371 5.02219 9.4371C5.04 9.4371 5.08269 9.37124 5.11701 9.29079C5.27336 8.92418 5.4671 8.53595 5.62467 8.27333C5.71904 8.11604 5.79587 7.96411 5.79537 7.9357C5.79452 7.88758 4.68811 7.13166 4.53513 7.07472C4.48488 7.05599 4.41161 7.14449 4.26677 7.39897ZM11.3422 7.20419C11.164 7.23147 10.9982 7.27405 10.974 7.29881C10.9318 7.34189 10.9438 7.42445 11.0618 7.90653C11.083 7.99319 11.1235 8.17551 11.1519 8.31168C11.1803 8.44786 11.2305 8.62324 11.2635 8.70144C11.3211 8.83779 11.3306 8.84198 11.495 8.8038C11.7194 8.75167 12.2933 8.75284 12.521 8.80592C12.6508 8.83617 12.7143 8.83275 12.7491 8.79363C12.7755 8.76378 12.8423 8.54689 12.8973 8.31168C12.9523 8.07647 13.0186 7.79287 13.0447 7.68145C13.0707 7.57004 13.0983 7.45677 13.106 7.42976C13.138 7.31695 13.0272 7.26235 12.65 7.20504C12.1871 7.13472 11.7976 7.13445 11.3422 7.20419ZM16.8492 7.58066C16.7212 7.69797 16.5937 7.81425 16.5658 7.83901C16.3842 7.9999 16.0077 8.36431 15.9848 8.40127C15.9698 8.42566 16.0097 8.50161 16.0735 8.56999C16.223 8.72998 16.6481 9.37128 16.73 9.56017C16.7647 9.64026 16.8141 9.71381 16.8398 9.72372C16.8825 9.7401 17.0592 9.66402 17.9525 9.24465C18.1195 9.16623 18.2555 9.08124 18.2546 9.05576C18.2478 8.8481 17.3274 7.46163 17.1516 7.39411C17.1069 7.37696 16.998 7.44412 16.8492 7.58066ZM10.2704 7.47298C9.67277 7.6959 8.63019 8.40113 8.6301 8.5825C8.6301 8.66218 9.61803 9.66218 9.69675 9.66218C9.72594 9.66218 9.88171 9.56229 10.0429 9.44025C10.204 9.31816 10.4682 9.15507 10.63 9.07782C10.8359 8.97946 10.9242 8.91229 10.9242 8.85391C10.9242 8.80799 10.8727 8.62167 10.8097 8.4398C10.7467 8.25793 10.6423 7.95214 10.5776 7.76023C10.513 7.56832 10.4481 7.41378 10.4335 7.41671C10.4188 7.41968 10.3455 7.44498 10.2704 7.47298ZM13.5586 7.50787C13.4458 7.84671 13.3798 8.0387 13.2434 8.42422C13.1558 8.67182 13.084 8.88848 13.0837 8.90568C13.0835 8.92292 13.2345 9.01178 13.4193 9.10321C13.6041 9.19464 13.8775 9.36795 14.0268 9.48833C14.1761 9.6087 14.3114 9.7072 14.3275 9.7072C14.3831 9.7072 15.4223 8.65399 15.4223 8.59767C15.4223 8.56661 15.3937 8.52506 15.3588 8.50525C15.3238 8.48545 15.2176 8.3973 15.1226 8.30943C14.8854 8.08984 14.4678 7.81537 14.1162 7.64791C13.7342 7.46605 13.585 7.42855 13.5586 7.50787ZM19.5156 7.58827C19.4538 7.6345 19.2817 7.73885 19.1333 7.8201C18.9848 7.90136 18.7578 8.03528 18.6288 8.11762L18.3942 8.26743L18.5914 8.66092C18.8233 9.12387 18.9028 9.3052 18.9811 9.54964C19.0738 9.83945 19.1 9.853 19.3817 9.75689C19.5172 9.71066 19.7799 9.62896 19.9654 9.57534C20.151 9.52173 20.367 9.44952 20.4454 9.4149C20.5927 9.34985 20.6025 9.29138 20.506 9.05446C20.4858 9.00494 20.4447 8.89352 20.4145 8.80686C20.327 8.55536 20.2409 8.36219 20.018 7.91779C19.7917 7.46645 19.7314 7.42697 19.5156 7.58827ZM5.85443 8.81812C5.69596 9.02637 5.29824 10.1269 5.23931 10.5202L5.20886 10.7234L5.49134 10.7817C5.64667 10.8138 5.88511 10.86 6.02118 10.8844C6.15725 10.9088 6.34176 10.9477 6.43123 10.9708C6.68524 11.0362 6.78586 11.0243 6.78586 10.9286C6.78586 10.8134 7.02989 10.0816 7.17189 9.77085C7.23581 9.63103 7.27126 9.50116 7.25066 9.48234C7.19304 9.42967 5.95623 8.76185 5.91628 8.76185C5.9058 8.76185 5.878 8.78719 5.85443 8.81812ZM8.20094 8.9999C7.8374 9.42332 7.28372 10.6051 7.33203 10.8545C7.34089 10.9002 7.39874 10.9522 7.46059 10.97C7.73421 11.0487 8.82271 11.2873 8.83283 11.2709C8.83643 11.265 8.89473 11.1055 8.96242 10.9163C9.03008 10.7271 9.17663 10.4334 9.28805 10.2637L9.4906 9.95501L9.36092 9.84238C9.10407 9.61923 8.27596 8.94196 8.26202 8.94362C8.25419 8.94457 8.22666 8.96987 8.20094 8.9999ZM15.5746 9.13229C15.5032 9.18743 15.4178 9.25865 15.3847 9.29052C15.3516 9.32235 15.2504 9.40383 15.1597 9.47153C15.0692 9.53924 14.9679 9.62027 14.9348 9.6516C14.9018 9.68293 14.8056 9.76131 14.7212 9.82577C14.6367 9.89023 14.5677 9.95888 14.5677 9.97838C14.5677 9.99787 14.6548 10.1552 14.7613 10.3282C14.8679 10.5011 15.0041 10.7866 15.0639 10.9627C15.1508 11.2181 15.1912 11.2828 15.2638 11.2828C15.3455 11.2828 15.5054 11.2513 16.187 11.1013C16.2983 11.0768 16.4552 11.0441 16.5356 11.0288C16.6634 11.0044 16.6818 10.9832 16.6818 10.8603C16.6818 10.4618 15.9755 9.03546 15.777 9.03289C15.737 9.03235 15.6459 9.0771 15.5746 9.13229ZM11.5089 9.19522C11.134 9.26797 10.4743 9.5572 10.4743 9.64885C10.4743 9.68226 10.6569 9.98252 10.88 10.3161C11.166 10.7438 11.3111 10.9226 11.3721 10.9226C11.4197 10.9226 11.469 10.9058 11.4817 10.8852C11.5206 10.8223 11.9973 10.734 12.1351 10.7643C12.295 10.7994 12.3166 10.769 12.4231 10.3599C12.6479 9.49679 12.6871 9.29268 12.6375 9.24308C12.5924 9.19792 11.6917 9.15975 11.5089 9.19522ZM3.38531 9.42274C3.37074 9.46775 3.34244 9.55526 3.32238 9.61716C3.24191 9.86547 3.1564 10.2812 3.09549 10.7201C3.07147 10.8934 3.03981 11.1091 3.02519 11.1996C3.00283 11.338 3.013 11.3685 3.0896 11.3928C3.21839 11.4338 4.55375 11.5004 4.58569 11.4675C4.60022 11.4526 4.63669 11.2681 4.66679 11.0577C4.72382 10.6583 4.78005 10.3811 4.85922 10.1086C4.92876 9.86935 4.89646 9.79511 4.69423 9.7293C4.51858 9.67208 3.64778 9.40707 3.49075 9.363C3.441 9.34904 3.40205 9.3711 3.38531 9.42274ZM12.9748 9.94353C12.855 10.1973 12.7099 10.5096 12.6524 10.6376L12.5479 10.8702L12.6469 10.9352C12.8173 11.0471 13.0413 11.2987 13.1167 11.4628C13.1565 11.5495 13.195 11.6282 13.2022 11.6377C13.2094 11.6472 13.2716 11.6344 13.3405 11.6092C13.4093 11.5839 13.5466 11.5409 13.6455 11.5134C14.4452 11.2919 14.7026 11.1978 14.7026 11.1272C14.7026 11.0096 14.3889 10.4368 14.1924 10.1956C13.9544 9.90333 13.4192 9.48319 13.2842 9.48256C13.2121 9.4822 13.1463 9.58034 12.9748 9.94353ZM18.0762 9.64597C17.9154 9.70895 17.7383 9.77886 17.6826 9.80137C17.4434 9.89802 17.3704 9.92629 17.2216 9.97995C16.9964 10.0612 16.9837 10.0819 17.0405 10.2758C17.1701 10.7181 17.2188 10.9269 17.273 11.2717L17.3314 11.6429H17.5777C17.9112 11.6429 18.8558 11.5508 18.8944 11.5145C18.9383 11.4731 18.8153 10.6634 18.6985 10.2249C18.5764 9.76639 18.4801 9.52668 18.4194 9.52933C18.3914 9.53055 18.237 9.58304 18.0762 9.64597ZM9.76399 10.2586C9.58717 10.4889 9.36263 10.9263 9.2647 11.2314C9.19781 11.4396 9.1491 12.0749 9.19768 12.1047C9.21949 12.118 9.57012 12.1158 9.97685 12.0998L10.7163 12.0706L10.7773 11.823C10.8507 11.5247 10.9435 11.3151 11.0358 11.2384C11.0734 11.2072 11.1041 11.1607 11.1041 11.1351C11.1041 11.0698 10.0636 10.0223 9.99866 10.0223C9.96943 10.0223 9.86381 10.1287 9.76399 10.2586ZM5.10468 11.3334C5.02835 11.7153 5.11116 13.1173 5.21709 13.2373C5.23913 13.2622 5.34763 13.2588 5.49121 13.2287C5.62188 13.2013 5.85025 13.1565 5.99869 13.1291C6.57382 13.0232 6.764 12.9645 6.74403 12.8991C6.73342 12.8643 6.71614 12.5077 6.70571 12.1066L6.68677 11.3773L6.45516 11.3348C6.19377 11.2869 5.37394 11.1917 5.22838 11.1923C5.15745 11.1927 5.12555 11.229 5.10468 11.3334ZM7.21085 11.4666C7.10348 11.6405 7.15741 12.5855 7.30697 13.1509C7.40724 13.5301 7.42483 13.5786 7.46176 13.5786C7.53503 13.5786 8.88573 13.1127 8.92428 13.0741C8.93161 13.0668 8.90696 12.9494 8.86958 12.8133C8.83216 12.6771 8.79064 12.353 8.77737 12.0931C8.76343 11.8209 8.73185 11.6063 8.70288 11.5873C8.67522 11.5691 8.56758 11.554 8.46363 11.5535C8.35972 11.5532 8.17754 11.534 8.05879 11.511C7.66431 11.4343 7.24436 11.4124 7.21085 11.4666ZM16.404 11.4858C16.3914 11.4983 16.1761 11.5282 15.9255 11.5521C15.2018 11.6211 15.2424 11.5955 15.2424 11.9825C15.2424 12.3583 15.1544 12.8258 15.0189 13.1698C14.9679 13.2992 14.9377 13.4237 14.9518 13.4464C14.9829 13.4969 16.2439 14.1188 16.315 14.1188C16.3664 14.1188 16.4438 13.9594 16.5751 13.5833C16.7908 12.9655 16.9153 12.0123 16.8336 11.6035C16.8075 11.4727 16.7922 11.4628 16.6162 11.4628C16.5121 11.4628 16.4166 11.4731 16.404 11.4858ZM14.3203 11.7795C14.2213 11.8005 14.0088 11.8213 13.848 11.8257C13.3238 11.8399 13.3012 11.8522 13.2329 12.1606C13.1646 12.4686 13.1062 12.6021 12.9605 12.7832C12.8979 12.8611 12.8714 12.9346 12.8923 12.9721C12.9112 13.0059 13.0986 13.2207 13.3086 13.4494C13.5186 13.6781 13.7274 13.9121 13.7725 13.9695C13.8176 14.0269 13.8823 14.0738 13.9162 14.0738C14.0162 14.0738 14.3884 13.5816 14.546 13.241C14.7601 12.7782 14.8064 12.5875 14.811 12.1496L14.8151 11.7554L14.6576 11.7483C14.571 11.7444 14.4192 11.7585 14.3203 11.7795ZM3.02182 12.3899C3.03383 12.7094 3.05614 13.0418 3.07138 13.1284C3.08663 13.2151 3.12222 13.4227 3.15046 13.5898C3.20129 13.8907 3.20318 13.8937 3.34528 13.8937C3.42422 13.8937 3.54747 13.8757 3.61921 13.8536C3.69091 13.8315 3.87106 13.7879 4.0195 13.7567C4.16794 13.7254 4.3906 13.6752 4.5143 13.6449L4.73921 13.5899L4.72423 13.3479C4.71595 13.2148 4.69117 13.0249 4.66908 12.9259C4.647 12.8268 4.62846 12.5596 4.62783 12.3321C4.62725 12.1045 4.60989 11.9079 4.58929 11.8951C4.56864 11.8824 4.20262 11.8578 3.77588 11.8404L3 11.8089L3.02182 12.3899ZM17.3415 12.0331C17.325 12.0495 17.3115 12.1762 17.3115 12.3144C17.3114 12.4527 17.2802 12.7177 17.2421 12.9034C17.204 13.089 17.1613 13.3235 17.1472 13.4244L17.1217 13.6077L17.5877 13.7551C17.844 13.8363 18.17 13.9424 18.3121 13.991C18.4542 14.0397 18.5885 14.0683 18.6105 14.0546C18.6325 14.041 18.6617 13.9739 18.6754 13.9055C18.689 13.8371 18.7227 13.6799 18.7503 13.5561C18.839 13.1589 18.9309 12.4907 18.9309 12.2433V12.003H18.1512C17.7223 12.003 17.358 12.0165 17.3415 12.0331ZM10.2269 12.4351C9.58636 12.5932 9.42632 12.6373 9.3498 12.6768C9.245 12.7308 9.27383 12.8591 9.50216 13.3545C9.62001 13.6102 9.99772 14.046 10.2962 14.2705C10.4486 14.3852 10.5901 14.4789 10.6107 14.4789C10.6705 14.4789 10.801 14.2701 11.1089 13.6819L11.3965 13.1323L11.1792 12.9175C11.0597 12.7993 10.9226 12.6161 10.8745 12.5104C10.8263 12.4047 10.7622 12.3195 10.7319 12.3212C10.7015 12.3228 10.4743 12.3741 10.2269 12.4351ZM12.5187 13.1209C12.4399 13.1901 12.0246 13.2577 11.835 13.2323C11.6674 13.2098 11.6427 13.2186 11.6059 13.314C11.5608 13.4313 11.4194 13.8904 11.3302 14.2088C11.2991 14.3202 11.2521 14.4698 11.2258 14.5412C11.1863 14.649 11.1917 14.681 11.2574 14.7291C11.4334 14.8578 12.3766 14.8649 12.7684 14.7404C13.0071 14.6645 13.3863 14.4895 13.4159 14.4416C13.4303 14.4182 13.298 14.1588 13.1217 13.8651C12.6417 13.065 12.6171 13.0346 12.5187 13.1209ZM5.98753 13.5312C5.63506 13.6232 5.33391 13.7112 5.31835 13.7268C5.26873 13.7764 5.61693 14.7571 5.80918 15.1092C6.04745 15.5454 6.08739 15.6043 6.14506 15.6043C6.17933 15.6043 6.29566 15.5436 6.40352 15.4693C6.51139 15.395 6.61057 15.3342 6.62389 15.3342C6.63725 15.3342 6.80318 15.2329 6.99264 15.1092C7.18215 14.9854 7.35483 14.8841 7.37638 14.8841C7.45586 14.8841 7.41115 14.7165 7.23824 14.3659C7.14068 14.1681 7.01415 13.8595 6.95711 13.6801C6.83242 13.2882 6.88685 13.2966 5.98753 13.5312ZM8.53573 13.6154C8.29827 13.7313 7.99969 13.8717 7.87226 13.9273C7.74478 13.9829 7.64051 14.0406 7.64051 14.0555C7.64051 14.1813 8.04346 14.827 8.31208 15.1317C8.59128 15.4483 8.95698 15.7823 8.99729 15.7573C9.07569 15.7089 9.93456 14.6169 9.93456 14.5657C9.93456 14.5366 9.81599 14.3861 9.67111 14.2311C9.52622 14.076 9.33244 13.8253 9.24054 13.6738C9.1486 13.5224 9.04955 13.3999 9.02045 13.4016C8.9913 13.4033 8.77319 13.4995 8.53573 13.6154ZM14.6326 13.8813C14.5024 14.0802 14.1627 14.4263 13.9297 14.5975C13.8105 14.6851 13.713 14.7746 13.713 14.7965C13.713 14.8183 13.8091 14.9847 13.9267 15.1662C14.0442 15.3477 14.2112 15.6209 14.2978 15.7735C14.3844 15.926 14.4837 16.0623 14.5185 16.0764C14.7219 16.159 16.0534 14.8828 16.0516 14.607C16.0514 14.5737 15.9249 14.4674 15.7705 14.3707C15.6161 14.2739 15.3368 14.0967 15.1498 13.9768C14.9628 13.8568 14.788 13.7587 14.7614 13.7587C14.7348 13.7587 14.6768 13.8139 14.6326 13.8813ZM16.9621 13.9971C16.939 14.0269 16.8628 14.1728 16.7927 14.3214C16.7226 14.4699 16.5678 14.7387 16.4486 14.9187C16.3295 15.0987 16.233 15.281 16.2342 15.3238C16.2366 15.4097 17.3079 16.2807 17.4077 16.2779C17.5423 16.2741 18.2716 15.0745 18.4087 14.6316C18.4451 14.5141 18.3989 14.477 18.0537 14.3468C17.9053 14.2908 17.7433 14.2286 17.6939 14.2085C17.6444 14.1884 17.5735 14.1621 17.5364 14.1501C17.4993 14.1381 17.3644 14.0866 17.2365 14.0356C17.0591 13.9649 16.9942 13.9558 16.9621 13.9971ZM4.57646 14.004C4.56531 14.0153 4.31998 14.0849 4.03133 14.1589C3.28163 14.351 3.31073 14.3271 3.4101 14.6702C3.56438 15.2028 3.98838 16.1961 4.08769 16.2575C4.1334 16.2858 5.33373 15.6719 5.45194 15.5598C5.48266 15.5307 5.3084 15.0938 5.12857 14.749C5.10918 14.7119 5.044 14.5246 4.98373 14.3328C4.87825 13.9972 4.86898 13.9842 4.73548 13.984C4.65919 13.9838 4.58762 13.9929 4.57646 14.004ZM18.9302 14.6027C18.8747 14.7451 18.7165 15.0895 18.5787 15.3681C18.4227 15.6837 18.3443 15.8901 18.3709 15.9158C18.4691 16.0105 19.5729 16.6847 19.6297 16.6847C19.7256 16.6847 20.0931 16.0139 20.3204 15.4243C20.4016 15.2138 20.4863 14.9955 20.5087 14.9391C20.5435 14.8514 20.5315 14.8296 20.4261 14.7892C20.1808 14.6951 19.1136 14.3439 19.0729 14.3439C19.05 14.3439 18.9858 14.4603 18.9302 14.6027ZM9.82787 15.3602C9.60836 15.6958 9.42618 16.0017 9.42303 16.0401C9.40882 16.2123 10.7027 16.7351 11.2584 16.7816C11.4215 16.7952 11.4381 16.786 11.472 16.6618C11.5071 16.5338 11.606 15.6413 11.6165 15.3591C11.6211 15.2336 11.6079 15.2235 11.374 15.1738C11.0535 15.1056 10.7276 14.9905 10.4747 14.8563C10.3636 14.7973 10.2623 14.7492 10.2498 14.7495C10.2372 14.7498 10.0474 15.0246 9.82787 15.3602ZM13.0383 15.0595C12.855 15.1291 12.3818 15.2273 12.0937 15.2556L11.9812 15.2667L11.9489 16.0093C11.9084 16.9422 11.8825 16.903 12.4858 16.8226C12.9873 16.7558 13.2603 16.6917 13.6455 16.5506C13.794 16.4962 13.9508 16.4411 13.9941 16.428C14.1073 16.3937 14.0953 16.3386 13.878 15.8921C13.7708 15.672 13.6267 15.3753 13.5578 15.2329C13.4174 14.9428 13.3793 14.9301 13.0383 15.0595ZM6.99953 15.5651C6.68407 15.7896 6.42601 16.0048 6.42601 16.0435C6.42601 16.0821 6.51008 16.2227 6.61282 16.356C6.8425 16.6539 7.7164 17.495 7.79628 17.495C7.82827 17.495 7.94292 17.3786 8.05101 17.2362C8.1591 17.0938 8.2577 16.9672 8.27012 16.9548C8.30628 16.9189 8.55759 16.5856 8.66951 16.4253L8.77206 16.2783L8.3258 15.84C8.08039 15.599 7.84369 15.346 7.79984 15.278C7.75598 15.2099 7.68702 15.1548 7.64659 15.1555C7.60615 15.1562 7.31498 15.3405 6.99953 15.5651ZM15.629 15.9008C15.4582 16.0581 15.1799 16.2799 15.0105 16.3937C14.8411 16.5074 14.7026 16.6154 14.7026 16.6338C14.7026 16.6521 14.7594 16.7572 14.8289 16.8672C14.8983 16.9773 14.9687 17.0978 14.9853 17.1349C15.0019 17.172 15.0771 17.3037 15.1524 17.4275C15.2278 17.5513 15.3231 17.7184 15.3642 17.7989C15.4053 17.8794 15.4684 17.9452 15.5043 17.9452C15.6295 17.9452 16.3432 17.4249 16.7248 17.0555L17.1091 16.6835L16.6368 16.2311C16.377 15.9823 16.1139 15.7418 16.052 15.6967L15.9396 15.6146L15.629 15.9008ZM5.12069 16.1941C4.83664 16.3699 4.54862 16.5427 4.48056 16.5779C4.41255 16.6132 4.35727 16.6769 4.35776 16.7197C4.35943 16.8625 5.48019 18.2975 5.59386 18.3023C5.65634 18.305 6.6959 17.29 6.6959 17.2263C6.6959 17.1978 6.55713 17.0086 6.38746 16.8058C6.21784 16.6031 5.99343 16.3106 5.88875 16.1558C5.78404 16.0011 5.68463 15.8744 5.66776 15.8744C5.65094 15.8744 5.40475 16.0183 5.12069 16.1941ZM17.8856 16.4739C17.7931 16.6032 17.5553 16.8841 17.357 17.098C17.1588 17.312 16.9967 17.4995 16.9967 17.5146C16.9967 17.5431 17.928 18.5717 18.0083 18.632C18.0982 18.6993 19.3791 17.2803 19.38 17.1124C19.3804 17.054 18.1955 16.2339 18.115 16.2367C18.0813 16.2379 17.9781 16.3447 17.8856 16.4739ZM8.84169 16.8085C8.38702 17.5121 8.22527 17.769 8.22527 17.7876C8.22527 17.8467 8.96719 18.2573 9.32731 18.3975C9.64871 18.5226 10.0491 18.6655 10.0786 18.6655C10.107 18.6655 10.1801 18.4373 10.3455 17.8327C10.3726 17.7336 10.4124 17.6019 10.434 17.54C10.4556 17.4781 10.4786 17.3582 10.485 17.2734C10.4966 17.1223 10.4913 17.1173 10.2121 17.0161C9.87568 16.8942 9.46523 16.7013 9.2979 16.5866C9.23222 16.5415 9.14689 16.5047 9.10825 16.5047C9.06966 16.5047 8.94969 16.6414 8.84169 16.8085ZM14.1403 16.8821C13.9043 16.9851 13.4738 17.1248 13.2182 17.1814C13.0821 17.2116 12.944 17.2438 12.9113 17.2529C12.8493 17.2704 12.8628 17.5492 12.947 17.9902C12.9682 18.1016 13.0108 18.3396 13.0417 18.5192C13.0725 18.6987 13.1096 18.8455 13.1242 18.8455C13.1634 18.8455 13.7106 18.7215 13.8929 18.6713C14.315 18.555 14.9221 18.3181 15.0131 18.2342C15.0665 18.1848 15.0254 18.0729 14.7432 17.4994C14.5345 17.0753 14.385 16.823 14.3427 16.8231C14.3056 16.8232 14.2146 16.8498 14.1403 16.8821ZM10.8621 17.2762C10.8521 17.3099 10.8199 17.459 10.7905 17.6076C10.7251 17.9374 10.676 18.1642 10.6029 18.4745C10.565 18.6353 10.5618 18.726 10.5929 18.7571C10.6775 18.8418 11.533 18.9388 12.0793 18.9257L12.611 18.9131L12.6071 18.688C12.6024 18.4176 12.5471 17.6637 12.5175 17.4661L12.4963 17.3247L11.8339 17.3C11.4696 17.2863 11.106 17.2616 11.0259 17.2451C10.9215 17.2234 10.8751 17.2323 10.8621 17.2762ZM6.80444 17.6866C6.70764 17.792 6.48166 18.0372 6.30231 18.2314C6.12297 18.4256 5.9762 18.6111 5.9762 18.6435C5.9762 18.6945 6.22202 18.9072 6.78204 19.3407C7.02678 19.5301 7.52401 19.8306 7.59738 19.8333C7.63678 19.8348 7.71972 19.7338 7.78954 19.5996C7.8571 19.4696 7.96555 19.2721 8.0305 19.1606C8.0955 19.0492 8.20692 18.8526 8.27817 18.7237L8.40771 18.4894L7.99038 18.2101C7.76084 18.0564 7.45487 17.8327 7.31048 17.7129C7.16605 17.5931 7.03272 17.495 7.01415 17.495C6.99561 17.495 6.90124 17.5812 6.80444 17.6866ZM16.5687 17.8112C16.5275 17.8778 15.7997 18.3618 15.5225 18.5068C15.3927 18.5747 15.2776 18.6448 15.2667 18.6625C15.2345 18.7147 15.9173 20.061 15.976 20.061C16.1799 20.061 17.6823 19.0658 17.6597 18.9457C17.6537 18.9142 17.4465 18.637 17.1991 18.3297C16.7812 17.8108 16.6404 17.695 16.5687 17.8112ZM8.65777 18.7764C8.61782 18.8374 8.58512 18.8976 8.58512 18.91C8.58512 18.9226 8.46115 19.1876 8.30956 19.499C7.98975 20.1563 7.9691 20.0921 8.57487 20.3235C8.79078 20.406 9.00795 20.4906 9.05742 20.5115C9.22309 20.5815 9.73071 20.7283 9.86025 20.7436C9.97487 20.7572 9.99439 20.7398 10.0454 20.5787C10.0767 20.4796 10.1265 20.2771 10.1561 20.1285C10.1857 19.9799 10.2273 19.7976 10.2485 19.7234C10.2698 19.6491 10.2999 19.5069 10.3155 19.4075L10.3438 19.2266L10.1279 19.1659C9.64655 19.0305 8.96121 18.7768 8.87975 18.7038C8.80598 18.6376 8.73298 18.6615 8.65777 18.7764ZM14.7026 18.8863C14.5652 18.9637 13.9753 19.1455 13.495 19.2584L13.2546 19.3149L13.2834 19.4741C13.3278 19.7197 13.3903 20.0984 13.4404 20.4258C13.5066 20.8584 13.5194 20.8806 13.685 20.8493C14.062 20.778 14.7242 20.6 14.95 20.5093C14.9995 20.4894 15.1381 20.4376 15.258 20.3943C15.3779 20.3509 15.4855 20.291 15.4969 20.2611C15.5084 20.2312 15.4761 20.1132 15.425 19.9988C15.3741 19.8845 15.2919 19.6999 15.2424 19.5888C15.1929 19.4776 15.1524 19.3769 15.1524 19.3651C15.1524 19.3531 15.1012 19.2314 15.0387 19.0945C14.9248 18.8455 14.8534 18.8013 14.7026 18.8863ZM10.7046 19.392C10.6814 19.4505 10.6387 19.6502 10.6099 19.8359C10.581 20.0216 10.5373 20.2554 10.5126 20.3556C10.488 20.4558 10.4743 20.6178 10.4823 20.7157L10.4968 20.8938L10.7442 20.9318C10.8803 20.9528 11.4268 20.979 11.9587 20.9903C13.1551 21.0156 13.1281 21.0262 13.0482 20.5599C13.018 20.3836 12.9914 20.1537 12.989 20.0489C12.9866 19.9441 12.9613 19.7521 12.9328 19.6221L12.8809 19.3858L11.9362 19.3684C11.4167 19.3588 10.9366 19.3363 10.8692 19.3183C10.7669 19.2911 10.74 19.3031 10.7046 19.392Z" fill="black"/>
<path d="M20.9427 10.9001C20.9237 10.8011 20.8862 10.5783 20.8595 10.405C20.8328 10.2316 20.7895 10.0323 20.7634 9.96199C20.7023 9.79759 20.6885 9.79894 19.6281 10.075C19.1628 10.1961 19.1823 10.1547 19.2903 10.7876C19.322 10.9733 19.3603 11.2974 19.3755 11.5079L19.4032 11.8905L20.2016 11.9028L21 11.9151L20.9427 10.9001Z" fill="black"/>
<path d="M21 12.3077L20.2016 12.3017L19.4032 12.2956L19.3738 12.5882C19.3387 12.9381 19.2651 13.4277 19.2017 13.7324C19.1764 13.8541 19.1653 13.9633 19.177 13.975C19.1887 13.9867 19.3051 14.0256 19.4357 14.0614C19.5662 14.0972 19.7338 14.1439 19.808 14.1651C20.6925 14.4183 20.6952 14.4183 20.7454 14.1736C20.84 13.7129 20.8745 13.5223 20.9086 13.2711C20.9298 13.1144 20.9591 12.9743 20.9736 12.9598L21 12.3077Z" fill="black"/>
<path d="M11.2165 3L11.2222 3.21369C11.235 3.70262 11.3164 4.5356 11.3549 4.57306C11.3778 4.59521 11.7709 4.61911 12.2286 4.62618L13.0608 4.63901L13.1186 4.28081C13.1504 4.08377 13.196 3.80994 13.2198 3.67228C13.2437 3.53462 13.2632 3.34982 13.2632 3.26164C13.2632 3.10917 13.2537 3.09931 13.072 3.06176L11.2165 3Z" fill="black"/>
</svg>
