<svg width="24" height="24" viewBox="0 0 24 24" fill="none" xmlns="http://www.w3.org/2000/svg">
<rect x="0.25" y="0.25" width="23.5" height="23.5" rx="3.75" fill="white" stroke="black" stroke-width="0.5"/>
<path fill-rule="evenodd" clip-rule="evenodd" d="M9.53124 2.16869C8.79391 2.45371 8.28682 3.15911 8.19652 4.02503C8.16003 4.37539 8.18381 4.54454 8.29257 4.70887C8.58944 5.15743 9.04253 4.8687 9.04279 4.23073C9.04305 3.45913 9.59585 2.85814 10.3053 2.85814C10.7592 2.85814 11.2051 3.13566 11.4162 3.54956C11.5529 3.8176 11.5669 4.10253 11.5469 6.22043L11.5245 8.59128L8.92662 8.63439C6.45643 8.67534 6.3225 8.68594 6.20041 8.84992C6.1135 8.96665 6.09007 9.11977 6.12769 9.32409C6.3474 10.5162 7.41251 11.2848 9.56511 11.8047C9.86694 11.8776 9.8699 11.8829 9.8699 12.3471V12.8157L7.03971 12.8378C4.50281 12.8575 4.19819 12.8748 4.10066 13.0051C3.96124 13.1912 3.96682 13.6347 4.11634 14.2542C4.53625 15.993 6.15399 17.4883 8.30241 18.1231C9.08607 18.3547 9.05368 18.3192 9.02503 18.9153L8.99908 19.4541L8.55748 19.5074C7.65513 19.6165 7.45344 19.857 7.40389 20.8832C7.34468 22.1088 6.8834 21.9974 12.0149 21.9974H16.3536L16.4973 21.7802C16.6099 21.61 16.6326 21.4187 16.602 20.8955C16.5446 19.9154 16.3102 19.6364 15.4406 19.5132L15.0078 19.4519V18.8959V18.3399L15.8043 18.0674C18.177 17.2557 19.5923 15.8317 19.9323 13.9139C20.0236 13.3989 20.0229 13.2499 19.9281 13.0744L19.8127 12.8611L16.9748 12.8384L14.137 12.8157V12.3506V11.8855L14.5724 11.7674C15.5127 11.5126 15.7229 11.4415 16.227 11.2071C17.1711 10.7681 17.8334 9.95698 17.8348 9.23788C17.8359 8.65775 17.942 8.68008 15.0546 8.65232L12.4389 8.62715V6.20828C12.4389 3.51473 12.4591 3.40179 13.0046 3.05212C13.3832 2.80943 13.9471 2.79675 14.321 3.02246C14.6706 3.23351 14.9643 3.8351 14.9643 4.34039C14.9643 4.79594 15.117 4.97293 15.4408 4.89241C15.7106 4.82542 15.7861 4.56179 15.7254 3.89898C15.6731 3.32817 15.5022 2.95659 15.1297 2.60424C14.3403 1.85738 13.2605 1.81126 12.3578 2.48587L11.9718 2.77425L11.7482 2.56312C11.4328 2.26534 10.7476 1.99532 10.3199 2.00006C10.1203 2.0023 9.76541 2.07817 9.53124 2.16869ZM8.27986 5.96059C8.22038 6.05482 8.17179 6.34579 8.17179 6.60718C8.17179 6.97152 8.2135 7.12386 8.35039 7.25938C8.53449 7.44164 8.84198 7.42319 8.976 7.22179C9.08207 7.06239 9.05194 6.0055 8.93812 5.89282C8.77458 5.73092 8.40038 5.76945 8.27986 5.96059ZM15.0688 5.89282C15.0067 5.95429 14.9643 6.25043 14.9643 6.62261C14.9643 7.1536 14.9899 7.26249 15.1327 7.33818C15.5557 7.56233 15.748 7.32421 15.748 6.5764C15.748 5.96231 15.6619 5.78937 15.3561 5.78937C15.2555 5.78937 15.1262 5.83592 15.0688 5.89282ZM16.8312 9.57428C16.9059 9.69377 16.3183 10.2313 15.9021 10.4243C14.7802 10.9447 13.7385 11.1346 12.0034 11.1346C10.2662 11.1346 9.12752 10.9274 8.10317 10.4251C7.59382 10.1754 7.08107 9.72567 7.16049 9.59842C7.23861 9.47333 16.7534 9.44953 16.8312 9.57428ZM13.2056 12.4062L13.1791 12.8157H12.0034H10.8278L10.8013 12.4062L10.7747 11.9967H12.0034H13.2322L13.2056 12.4062ZM18.998 14.0349C18.9658 14.7754 18.2018 15.8287 17.2284 16.4748C16.7111 16.8182 15.9939 17.1694 15.8099 17.1694C15.7471 17.1694 15.6586 17.2038 15.613 17.2459C15.4917 17.3581 14.4328 17.6021 13.484 17.7365C11.3591 18.0374 9.23194 17.7252 7.39771 16.843C6.18107 16.2579 5.45454 15.4881 5.03367 14.3384C4.86508 13.8776 4.85306 13.7797 4.95704 13.7144C5.02818 13.6696 8.02897 13.6455 12.047 13.6573L19.0136 13.6778L18.998 14.0349ZM11.9164 18.6782C12.2277 18.6782 12.8448 18.645 13.2879 18.6044L14.0934 18.5306V18.9691C14.0934 19.3524 14.0687 19.4137 13.8975 19.4553C13.7897 19.4814 12.859 19.4918 11.8293 19.4785L9.95699 19.4541L9.93034 18.9921L9.90369 18.5301L10.627 18.6041C11.0248 18.6448 11.605 18.6782 11.9164 18.6782ZM15.5262 20.3732C15.7079 20.4551 15.748 20.5332 15.748 20.8043V21.1352H12.0007C8.74767 21.1352 8.24677 21.1182 8.20322 21.0057C8.11823 20.7864 8.25399 20.4421 8.45742 20.361C8.75934 20.2408 15.2574 20.2519 15.5262 20.3732Z" fill="black"/>
</svg>
