<svg width="24" height="24" viewBox="0 0 24 24" fill="none" xmlns="http://www.w3.org/2000/svg">
<rect width="24" height="24" fill="white"/>
<path fill-rule="evenodd" clip-rule="evenodd" d="M3.70919 1.01911C3.21019 1.04156 3.09258 1.08084 2.87644 1.29738C2.4675 1.70699 2.48727 2.23583 2.92656 2.64003L3.15093 2.84651V3.13453C3.15093 3.29291 3.13886 3.58307 3.12405 3.77927L3.09722 4.13603L2.47276 4.13584C1.70882 4.1356 1.53001 4.18288 1.27201 4.45332C1.17682 4.55309 1.07683 4.70435 1.04978 4.78939C0.978204 5.01454 0.985606 5.88631 1.06045 6.05074C1.18439 6.32289 1.50991 6.55241 1.77196 6.55241C2.01102 6.55241 2.04282 6.5807 1.96235 6.72183C1.91095 6.81201 1.89196 6.94324 1.89101 7.21496C1.88986 7.54242 1.90301 7.61074 2.00469 7.80584C2.18635 8.1545 2.52048 8.39524 2.96807 8.5C3.12529 8.53679 3.13547 8.5474 3.11843 8.65695C3.0868 8.85985 3.15184 9.20348 3.23703 9.28377C3.35232 9.39243 3.56855 9.38143 3.68872 9.26085C3.77109 9.17826 3.78891 9.11224 3.8045 8.83214L3.82295 8.5011H12.0055H20.188V10.5472V12.5933H17.4174H14.6468V12.4938C14.6468 12.334 14.5253 11.8558 14.4097 11.5605C14.0223 10.5715 13.292 9.90789 12.3932 9.72818C12.0907 9.6677 12.0314 9.66707 11.7027 9.7209C11.2539 9.79436 10.8192 9.98717 10.5056 10.2518C10.2642 10.4554 9.91644 10.8738 9.79024 11.1123C9.58191 11.506 9.35525 12.2102 9.35426 12.4667L9.35377 12.5933H6.58317H3.81257L3.81025 12.2718C3.80897 12.0949 3.78569 11.8891 3.75856 11.8143C3.67309 11.5789 3.3818 11.5211 3.20568 11.7045C3.13361 11.7796 3.13017 11.9841 3.12852 16.2801C3.12744 19.0952 3.11198 20.7904 3.08717 20.8124C3.06537 20.8318 2.87077 20.8547 2.65471 20.8632C2.34345 20.8755 2.22026 20.8984 2.06159 20.9734C1.21623 21.3731 1.24939 22.5658 2.1156 22.9171L2.32012 23L12.0501 22.9899L21.7801 22.9798L21.9494 22.8945C22.758 22.4867 22.7519 21.3622 21.939 20.972C21.7772 20.8943 21.6633 20.8732 21.3459 20.8624C21.1298 20.855 20.9345 20.8321 20.9117 20.8115C20.8532 20.7584 20.8519 8.58645 20.9103 8.54233C20.9338 8.5246 21.0182 8.49716 21.0978 8.48134C21.4509 8.41122 21.7979 8.15879 21.9839 7.83671C22.1459 7.55625 22.1781 7.09278 22.0565 6.79365C21.9628 6.56359 21.9558 6.57189 22.275 6.5358C22.5584 6.50381 22.7601 6.36732 22.8915 6.11867C22.9914 5.92972 23 5.8745 23 5.4194C23 4.85436 22.947 4.65774 22.7398 4.45429C22.4702 4.18958 22.3531 4.15766 21.5733 4.13603L20.8704 4.11655L20.88 3.46257L20.8895 2.80859L21.0962 2.6138C21.6195 2.12062 21.466 1.35229 20.7877 1.0702C20.6314 1.00523 20.1652 1.00134 12.3932 1.00005C7.86715 0.99927 3.95937 1.00784 3.70919 1.01911ZM20.6299 1.72644C20.7688 1.8494 20.7622 2.07662 20.6167 2.1845L20.5077 2.26529H12.0003H3.49292L3.38395 2.1845C3.24286 2.07993 3.23376 1.86347 3.36489 1.7319L3.45483 1.64171H11.9945H20.5342L20.6299 1.72644ZM20.188 3.51245V4.13603H12.0003H3.81257V3.51245V2.88887H12.0003H20.188V3.51245ZM22.2111 4.86052L22.3384 4.96142L22.3377 5.37692C22.3374 5.60546 22.3195 5.81873 22.298 5.85088C22.2333 5.9475 21.0062 5.95868 11.1112 5.9528C3.70046 5.94839 1.82973 5.93736 1.7553 5.89773C1.66759 5.851 1.66225 5.8234 1.66225 5.4178C1.66225 4.99412 1.66411 4.9857 1.78313 4.87353L1.904 4.75961H11.9939H22.0839L22.2111 4.86052ZM21.0024 6.60755C21.1743 6.64403 21.4159 6.89705 21.452 7.0784C21.5096 7.36786 21.413 7.60283 21.1646 7.77766L21.0504 7.85803H12.0003H2.95025L2.83604 7.77766C2.54463 7.57262 2.45278 7.2325 2.6086 6.93564C2.76367 6.64021 2.83599 6.61363 3.54378 6.59138C4.5125 6.56094 20.8542 6.5761 21.0024 6.60755ZM3.28802 10.2154C3.0846 10.2945 3.04383 10.5903 3.21854 10.7198C3.44127 10.8849 3.72986 10.7563 3.72986 10.492C3.72986 10.27 3.50669 10.1303 3.28802 10.2154ZM12.6134 10.4538C12.7951 10.5307 12.96 10.645 13.1541 10.8286C13.6577 11.3051 13.9141 11.8821 13.99 12.7103C14.0196 13.0328 14.0268 14.0799 14.0113 15.8087C13.9984 17.2449 13.9873 18.968 13.9865 19.6378L13.9852 20.8558H12.0003H10.0154L10.0137 19.2286C10.0128 18.3337 10.0018 16.5689 9.98927 15.3069C9.96421 12.7796 9.9829 12.446 10.1806 11.8918C10.3506 11.4154 10.5298 11.1293 10.8465 10.8292C11.3872 10.3166 11.9873 10.1891 12.6134 10.4538ZM9.31241 14.3082V15.3995H6.56249H3.81257V14.3082V13.2169H6.56249H9.31241V14.3082ZM20.188 14.3082V15.3995H17.4381H14.6882V14.3082V13.2169H17.4381H20.188V14.3082ZM9.32486 16.7148C9.33801 17.0953 9.35128 18.1677 9.35434 19.0979C9.35889 20.464 9.34947 20.7954 9.30518 20.8218C9.27503 20.8398 8.0269 20.8548 6.53148 20.8552L3.81257 20.8558V18.4394V16.023H6.55678H9.301L9.32486 16.7148ZM20.188 18.4394V20.8558L17.4691 20.8552C15.9737 20.8548 14.7245 20.8392 14.693 20.8205C14.645 20.7917 14.6398 20.4094 14.6607 18.4144C14.6743 17.1099 14.6861 16.0381 14.6868 16.0328C14.6876 16.0274 15.9257 16.023 17.4381 16.023H20.188V18.4394ZM21.7358 21.6106C21.8631 21.7238 21.8835 21.7664 21.8835 21.9194C21.8835 22.1406 21.75 22.3055 21.5241 22.3635C21.417 22.391 18.4661 22.4011 12.3104 22.3952C7.32957 22.3904 3.06174 22.3841 2.82632 22.3811L2.39832 22.3758L2.25772 22.2432C2.13743 22.1299 2.11713 22.0841 2.11713 21.9263C2.11713 21.7653 2.1359 21.7252 2.2648 21.6106L2.41246 21.4794H12.0003H21.5881L21.7358 21.6106Z" fill="black"/>
</svg>
