<svg width="24" height="24" viewBox="0 0 24 24" fill="none" xmlns="http://www.w3.org/2000/svg">
<rect width="24" height="24" fill="white"/>
<path fill-rule="evenodd" clip-rule="evenodd" d="M9.97037 1.1748C9.45694 1.28242 8.6772 1.49903 8.27982 1.6444C8.03858 1.73265 7.99103 1.83383 8.09746 2.03207C8.12572 2.08461 8.26723 2.43377 8.41204 2.80797C8.5568 3.18221 8.70457 3.49962 8.74042 3.51343C8.77626 3.52719 8.92542 3.4966 9.07188 3.44548C9.52572 3.28697 10.3485 3.09044 10.5581 3.09044C10.7352 3.09044 10.7497 3.02909 10.6849 2.5563C10.6526 2.32049 10.6032 1.9458 10.5752 1.72363C10.4905 1.051 10.5037 1.063 9.97037 1.1748ZM14.0937 1.26349C14.0937 1.28759 14.0439 1.55372 13.9829 1.85496C13.7265 3.12384 13.7351 3.0434 13.8476 3.12576C13.9038 3.16686 13.9989 3.20048 14.059 3.20048C14.1191 3.20048 14.2443 3.22469 14.3372 3.25429C15.0043 3.46694 15.2503 3.55321 15.4593 3.64785C15.6448 3.73186 15.7152 3.7416 15.7754 3.69153C15.8181 3.65616 15.8529 3.6062 15.8529 3.5805C15.8529 3.53214 16.0056 3.18375 16.3262 2.50051C16.4288 2.28203 16.5127 2.06778 16.5127 2.02448C16.5127 1.98118 16.4446 1.91939 16.3615 1.88709C15.7702 1.6576 15.5634 1.58332 15.2482 1.48715C14.392 1.22591 14.0937 1.16814 14.0937 1.26349ZM7.0016 2.19196C6.39036 2.52434 5.8103 2.87872 5.64663 3.01974C5.56032 3.09413 5.45597 3.17396 5.41473 3.19718C5.32545 3.24741 5.36641 3.4106 5.50638 3.56218C5.5602 3.62045 5.79694 3.9219 6.0324 4.23211C6.26787 4.54231 6.47541 4.79607 6.49366 4.79607C6.51192 4.79607 6.72902 4.66143 6.97615 4.49681C7.22332 4.33224 7.6047 4.10507 7.82373 3.992C8.04276 3.87893 8.23314 3.75717 8.24689 3.72141C8.26058 3.68565 8.2061 3.51052 8.12577 3.33214C7.51421 1.9738 7.53878 2.02101 7.43553 2.00759C7.39342 2.00214 7.19814 2.08511 7.0016 2.19196ZM16.8491 2.5815C16.7612 2.75553 16.5744 3.11905 16.434 3.38942C16.2936 3.65979 16.1891 3.90793 16.2018 3.94083C16.2144 3.97379 16.407 4.10914 16.6298 4.24163C16.8527 4.37412 17.2139 4.61686 17.4327 4.78104C17.6514 4.94523 17.864 5.0715 17.9051 5.06159C17.9463 5.05174 18.224 4.75893 18.5223 4.41092C18.8206 4.06292 19.0905 3.75937 19.1219 3.73638C19.2359 3.65308 18.361 2.96114 17.5694 2.50865C17.336 2.37518 17.1143 2.2658 17.077 2.26552C17.0396 2.2653 16.9371 2.40747 16.8491 2.5815ZM10.9325 3.5942C10.1484 3.71178 9.69549 3.83101 9.69549 3.91981C9.69549 3.94501 9.71764 4.02248 9.74475 4.09197C9.77185 4.16146 9.82419 4.32977 9.86108 4.46594C9.89797 4.60212 9.94717 4.77543 9.97037 4.85109C9.99357 4.92674 10.0428 5.10005 10.0797 5.23623C10.1976 5.67149 10.2391 5.74555 10.3427 5.70571C10.5544 5.62434 11.3418 5.51331 11.714 5.51232C12.0492 5.51149 12.1194 5.49488 12.1675 5.40492C12.2 5.34423 12.2244 4.91865 12.2244 4.41456V3.5306L11.7434 3.53764C11.4788 3.54155 11.1139 3.56697 10.9325 3.5942ZM12.7278 4.25549C12.6905 4.62847 12.6476 5.05147 12.6326 5.19557C12.6076 5.4359 12.6167 5.46187 12.7426 5.50973C12.8181 5.53851 13.0107 5.57895 13.1707 5.59964C13.3306 5.62038 13.6772 5.70797 13.9409 5.79441C14.2046 5.88079 14.4471 5.95149 14.4797 5.95149C14.5124 5.95149 14.5775 5.85867 14.6244 5.74516C14.6713 5.63171 14.7646 5.41504 14.8317 5.26374C14.8989 5.11243 14.9871 4.90198 15.0277 4.79607C15.0684 4.69015 15.1189 4.57874 15.1399 4.54847C15.1609 4.51821 15.1945 4.4244 15.2147 4.34C15.2478 4.20146 15.2312 4.17808 15.0436 4.09934C14.5407 3.88823 13.6788 3.66881 13.1286 3.61181L12.7958 3.57731L12.7278 4.25549ZM4.41596 4.03987C3.86888 4.56647 3.20817 5.33956 3.20817 5.45312C3.20817 5.50297 3.33802 5.64008 3.4968 5.75782C3.65557 5.87562 3.9773 6.11589 4.21178 6.29184C4.44626 6.4678 4.66116 6.61173 4.68931 6.61173C4.71746 6.61173 4.8875 6.4322 5.06728 6.21284C5.247 5.99347 5.55795 5.65702 5.75829 5.46522C5.97122 5.26137 6.10706 5.08998 6.0854 5.05257C6.03994 4.97422 5.6457 4.48894 5.47466 4.30088C5.40589 4.22523 5.25745 4.04675 5.1448 3.90419C5.03215 3.76169 4.91521 3.64422 4.88497 3.64323C4.85474 3.64218 4.64368 3.82067 4.41596 4.03987ZM8.81585 4.14815C7.82598 4.59722 6.94662 5.1225 6.94662 5.26456C6.94662 5.31672 8.04694 6.77679 8.08625 6.77679C8.10274 6.77679 8.27982 6.67 8.47977 6.53949C8.83977 6.30455 9.53061 5.95149 9.63034 5.95149C9.74656 5.95149 9.8232 5.78516 9.76432 5.66076C9.73254 5.59369 9.67685 5.45218 9.64051 5.34627C9.60417 5.24035 9.55321 5.10418 9.52731 5.04366C9.50136 4.98313 9.41972 4.74792 9.34589 4.52096C9.20042 4.07387 9.11383 4.01291 8.81585 4.14815ZM18.8979 4.71799C18.5688 5.06847 18.2904 5.38038 18.2793 5.41114C18.2683 5.44189 18.3698 5.58225 18.5049 5.72305C18.8231 6.05454 19.2797 6.61487 19.4059 6.82879C19.4605 6.92122 19.5431 6.99654 19.5895 6.9961C19.658 6.99544 20.528 6.45916 21.0572 6.0913C21.1892 5.99952 21.1789 5.85994 21.0279 5.69499C20.977 5.63936 20.8754 5.5072 20.8021 5.40129C20.7287 5.29537 20.6552 5.19634 20.6386 5.18121C20.6221 5.16608 20.4724 4.99337 20.3061 4.79744C19.9345 4.35959 19.6442 4.0808 19.56 4.0808C19.525 4.0808 19.2271 4.36757 18.8979 4.71799ZM15.3654 5.24998C15.1495 5.68123 14.9729 6.07815 14.973 6.13201C14.9732 6.18593 15.0166 6.2459 15.0695 6.26527C15.221 6.32068 16.0225 6.86664 16.2647 7.07935C16.3853 7.18532 16.4991 7.27198 16.5177 7.27198C16.5631 7.27198 17.7353 6.07936 17.7953 5.97212C17.8585 5.85906 17.7085 5.70346 17.0899 5.24057C16.6076 4.87964 15.9262 4.46594 15.814 4.46594C15.7832 4.46594 15.5814 4.81873 15.3654 5.24998ZM5.94928 6.1028C5.46554 6.60095 4.85749 7.38284 4.85749 7.50669C4.85749 7.56985 5.1172 7.74454 6.11872 8.3551C6.28327 8.45541 6.43429 8.53744 6.45436 8.53744C6.47442 8.53744 6.59779 8.38487 6.72853 8.19841C6.85921 8.01189 7.13497 7.6843 7.34125 7.47032C7.54752 7.2564 7.7163 7.06702 7.7163 7.04947C7.7163 7.03198 7.67298 6.96964 7.62004 6.91099C7.5671 6.85228 7.45285 6.71765 7.36615 6.61173C7.05251 6.22857 6.49455 5.62137 6.45612 5.62137C6.43446 5.62137 6.20635 5.83804 5.94928 6.1028ZM2.54827 6.37652C2.26486 6.87423 1.97326 7.44578 1.88151 7.68331C1.65918 8.25882 1.66165 8.20649 1.85275 8.28891C1.94814 8.33001 2.17459 8.41755 2.35601 8.48341C2.53744 8.54927 2.73536 8.62426 2.79583 8.65007C2.94609 8.71417 3.42274 8.86756 3.47156 8.86756C3.49333 8.86756 3.54551 8.78707 3.58745 8.68875C3.77856 8.24066 4.01534 7.76617 4.20793 7.44518C4.32327 7.25294 4.41717 7.06725 4.41657 7.03253C4.41552 6.97371 3.06324 6.04981 2.87627 5.98021C2.81486 5.95732 2.7253 6.06549 2.54827 6.37652ZM11.196 6.13845C10.9782 6.17179 10.7756 6.22384 10.746 6.2541C10.6945 6.30676 10.709 6.40766 10.8533 6.99687C10.8792 7.10279 10.9287 7.32562 10.9634 7.49206C10.9981 7.65849 11.0595 7.87285 11.0999 7.96842C11.1703 8.13508 11.1819 8.1402 11.3827 8.09354C11.6571 8.02982 12.3585 8.03125 12.6368 8.09612C12.7954 8.1331 12.8731 8.12892 12.9155 8.0811C12.9479 8.04462 13.0294 7.77954 13.0967 7.49206C13.1639 7.20458 13.245 6.85795 13.2768 6.72177C13.3087 6.5856 13.3424 6.44717 13.3518 6.41416C13.3909 6.27627 13.2554 6.20953 12.7944 6.13949C12.2286 6.05355 11.7527 6.05322 11.196 6.13845ZM17.9267 6.59858C17.7704 6.74197 17.6145 6.88408 17.5804 6.91434C17.3584 7.11099 16.8983 7.55637 16.8704 7.60155C16.8519 7.63137 16.9007 7.72419 16.9788 7.80776C17.1614 8.0033 17.681 8.78712 17.7811 9.01799C17.8235 9.11587 17.8839 9.20577 17.9153 9.21788C17.9675 9.2379 18.1835 9.14492 19.2753 8.63235C19.4794 8.53651 19.6456 8.43263 19.6445 8.40149C19.6362 8.14768 18.5113 6.45311 18.2964 6.37058C18.2418 6.34962 18.1086 6.43171 17.9267 6.59858ZM9.88604 6.46698C9.15561 6.73944 7.88134 7.60138 7.88123 7.82306C7.88123 7.92044 9.0887 9.14266 9.18491 9.14266C9.22059 9.14266 9.41098 9.02057 9.60796 8.87141C9.80489 8.7222 10.1278 8.52286 10.3256 8.42845C10.5772 8.30823 10.6851 8.22614 10.6851 8.15477C10.6851 8.09865 10.6221 7.87093 10.5452 7.64864C10.4682 7.42636 10.3405 7.05261 10.2615 6.81806C10.1825 6.58351 10.1033 6.39462 10.0853 6.3982C10.0675 6.40183 9.97779 6.43275 9.88604 6.46698ZM13.9049 6.50962C13.7671 6.92375 13.6864 7.15841 13.5197 7.62961C13.4127 7.93222 13.3249 8.19703 13.3245 8.21805C13.3243 8.23912 13.5088 8.34773 13.7347 8.45948C13.9606 8.57122 14.2947 8.78305 14.4772 8.93017C14.6597 9.0773 14.8251 9.19768 14.8448 9.19768C14.9127 9.19768 16.1828 7.91043 16.1828 7.8416C16.1828 7.80364 16.1479 7.75285 16.1052 7.72864C16.0625 7.70443 15.9326 7.5967 15.8166 7.48931C15.5267 7.22092 15.0162 6.88546 14.5865 6.68078C14.1196 6.4585 13.9372 6.41267 13.9049 6.50962ZM21.1857 6.60788C21.1102 6.66439 20.8999 6.79192 20.7184 6.89124C20.537 6.99055 20.2595 7.15423 20.1019 7.25486L19.8152 7.43797L20.0561 7.9189C20.3395 8.48473 20.4367 8.70635 20.5324 9.00511C20.6458 9.35933 20.6778 9.37589 21.022 9.25843C21.1877 9.20192 21.5087 9.10206 21.7355 9.03653C21.9623 8.971 22.2263 8.88275 22.3222 8.84044C22.5022 8.76093 22.5142 8.68946 22.3962 8.39989C22.3716 8.33937 22.3213 8.20319 22.2844 8.09728C22.1775 7.78988 22.0722 7.55379 21.7998 7.01063C21.5231 6.459 21.4495 6.41074 21.1857 6.60788ZM4.48875 8.11103C4.29507 8.36556 3.80896 9.71064 3.73694 10.1913L3.69972 10.4397L4.04498 10.511C4.23481 10.5502 4.52625 10.6066 4.69255 10.6365C4.85886 10.6663 5.08438 10.7138 5.19372 10.742C5.50418 10.822 5.62717 10.8075 5.62717 10.6905C5.62717 10.5497 5.92542 9.65529 6.09898 9.27548C6.1771 9.10459 6.22043 8.94586 6.19525 8.92286C6.12482 8.85848 4.61316 8.04226 4.56434 8.04226C4.55154 8.04226 4.51756 8.07324 4.48875 8.11103ZM7.3567 8.33321C6.91237 8.85073 6.23566 10.2951 6.2947 10.5999C6.30553 10.6558 6.37623 10.7194 6.45183 10.7411C6.78625 10.8373 8.11665 11.1289 8.12902 11.1089C8.13342 11.1017 8.20467 10.9067 8.28741 10.6755C8.37009 10.4443 8.54921 10.0853 8.68539 9.87784L8.93295 9.50057L8.77445 9.36291C8.46053 9.09017 7.4484 8.26239 7.43136 8.26443C7.42179 8.26559 7.38815 8.29651 7.3567 8.33321ZM16.3689 8.49502C16.2817 8.56242 16.1773 8.64946 16.1368 8.68842C16.0964 8.72732 15.9727 8.8269 15.8619 8.90965C15.7512 8.9924 15.6275 9.09144 15.587 9.12973C15.5466 9.16803 15.4291 9.26382 15.3259 9.34261C15.2227 9.4214 15.1382 9.5053 15.1382 9.52913C15.1382 9.55295 15.2448 9.7453 15.375 9.95669C15.5052 10.168 15.6716 10.517 15.7448 10.7321C15.851 11.0443 15.9004 11.1234 15.9891 11.1234C16.0889 11.1234 16.2844 11.0849 17.1174 10.9015C17.2535 10.8716 17.4452 10.8317 17.5435 10.813C17.6997 10.7831 17.7222 10.7572 17.7222 10.607C17.7222 10.12 16.859 8.37667 16.6163 8.37354C16.5675 8.37287 16.4562 8.42757 16.3689 8.49502ZM11.3998 8.57194C10.9415 8.66085 10.1353 9.01436 10.1353 9.12638C10.1353 9.1672 10.3584 9.53419 10.6311 9.94189C10.9807 10.4647 11.158 10.6832 11.2326 10.6832C11.2907 10.6832 11.351 10.6627 11.3665 10.6375C11.4141 10.5605 11.9967 10.4527 12.1652 10.4897C12.3605 10.5326 12.387 10.4955 12.5171 9.99548C12.7919 8.94052 12.8398 8.69106 12.7792 8.63042C12.724 8.57524 11.6232 8.52858 11.3998 8.57194ZM1.47094 8.85001C1.45313 8.90503 1.41854 9.01199 1.39402 9.08764C1.29567 9.39113 1.19116 9.8993 1.11672 10.4356C1.08736 10.6475 1.04865 10.9112 1.03079 11.0217C1.00346 11.1908 1.01589 11.2282 1.10952 11.2579C1.26692 11.3079 2.89903 11.3894 2.93806 11.3492C2.95582 11.3309 3.0004 11.1055 3.03718 10.8483C3.1069 10.3602 3.17562 10.0214 3.27238 9.68824C3.35737 9.39587 3.3179 9.30514 3.07072 9.2247C2.85604 9.15477 1.79173 8.83086 1.5998 8.777C1.539 8.75994 1.49139 8.7869 1.47094 8.85001ZM13.1914 9.48654C13.045 9.79669 12.8677 10.1784 12.7974 10.3348L12.6696 10.6191L12.7907 10.6986C12.9989 10.8354 13.2726 11.1429 13.3648 11.3435C13.4135 11.4494 13.4605 11.5456 13.4694 11.5572C13.4782 11.5688 13.5542 11.5531 13.6384 11.5223C13.7225 11.4915 13.8903 11.4389 14.0112 11.4053C14.9885 11.1345 15.3032 11.0195 15.3032 10.9332C15.3032 10.7895 14.9198 10.0895 14.6796 9.7946C14.3887 9.43741 13.7346 8.9239 13.5695 8.92313C13.4815 8.92269 13.401 9.04264 13.1914 9.48654ZM19.4265 9.12286C19.2299 9.19983 19.0135 9.28528 18.9454 9.31279C18.653 9.43091 18.5638 9.46547 18.3819 9.53105C18.1067 9.63031 18.0912 9.65562 18.1606 9.89259C18.319 10.4333 18.3785 10.6885 18.4448 11.1099L18.5162 11.5635H18.8172C19.2248 11.5635 20.3793 11.451 20.4265 11.4066C20.4802 11.3561 20.3299 10.3664 20.1871 9.83042C20.0378 9.27003 19.9202 8.97705 19.8459 8.9803C19.8118 8.98178 19.623 9.04594 19.4265 9.12286ZM9.2671 9.87168C9.05099 10.1531 8.77654 10.6877 8.65686 11.0606C8.57511 11.3151 8.51556 12.0916 8.57494 12.1279C8.6016 12.1443 9.03015 12.1416 9.52726 12.1219L10.4311 12.0862L10.5056 11.7836C10.5954 11.4191 10.7087 11.163 10.8215 11.0692C10.8674 11.0311 10.905 10.9742 10.905 10.9429C10.905 10.8631 9.63325 9.58282 9.55392 9.58282C9.51819 9.58282 9.3891 9.71284 9.2671 9.87168ZM3.57239 11.1853C3.47909 11.652 3.58031 13.3655 3.70978 13.5122C3.73672 13.5427 3.86932 13.5386 4.04481 13.5017C4.20452 13.4682 4.48364 13.4135 4.66506 13.38C5.36801 13.2506 5.60045 13.1788 5.57604 13.0989C5.56306 13.0564 5.54195 12.6205 5.5292 12.1303L5.50605 11.2389L5.22298 11.187C4.9035 11.1284 3.90149 11.012 3.72358 11.0128C3.63688 11.0132 3.5979 11.0577 3.57239 11.1853ZM6.14659 11.3481C6.01536 11.5606 6.08128 12.7156 6.26408 13.4067C6.38662 13.8701 6.40812 13.9294 6.45326 13.9294C6.54282 13.9294 8.19367 13.3599 8.24079 13.3128C8.24975 13.3039 8.21962 13.1604 8.17394 12.994C8.12819 12.8276 8.07745 12.4315 8.06123 12.1137C8.04419 11.7811 8.0056 11.5189 7.97019 11.4956C7.93638 11.4734 7.80482 11.4548 7.67776 11.4543C7.55077 11.4539 7.32811 11.4305 7.18297 11.4023C6.70082 11.3086 6.18755 11.2818 6.14659 11.3481ZM17.3827 11.3715C17.3673 11.3868 17.1041 11.4233 16.7978 11.4525C15.9133 11.5369 15.9629 11.5056 15.9629 11.9786C15.9629 12.4379 15.8554 13.0093 15.6898 13.4298C15.6275 13.5879 15.5905 13.7401 15.6078 13.7679C15.6458 13.8295 17.187 14.5896 17.2739 14.5896C17.3367 14.5896 17.4313 14.3949 17.5918 13.9352C17.8554 13.18 18.0076 12.015 17.9077 11.5154C17.8758 11.3555 17.8571 11.3435 17.642 11.3435C17.5147 11.3435 17.398 11.3561 17.3827 11.3715ZM14.8359 11.7305C14.7149 11.7562 14.4552 11.7816 14.2586 11.787C13.618 11.8043 13.5904 11.8193 13.5068 12.1963C13.4234 12.5727 13.352 12.736 13.174 12.9573C13.0974 13.0525 13.065 13.1423 13.0906 13.1882C13.1137 13.2294 13.3427 13.4919 13.5994 13.7714C13.8561 14.051 14.1113 14.337 14.1664 14.4071C14.2215 14.4773 14.3006 14.5346 14.3421 14.5346C14.4643 14.5346 14.9192 13.9331 15.1117 13.5167C15.3734 12.9511 15.43 12.7181 15.4356 12.1828L15.4406 11.7011L15.2482 11.6924C15.1424 11.6876 14.9568 11.7048 14.8359 11.7305ZM1.02666 12.4765C1.04134 12.8671 1.06861 13.2733 1.08725 13.3792C1.10588 13.4851 1.14938 13.7389 1.1839 13.9431C1.24603 14.3109 1.24833 14.3145 1.42201 14.3145C1.51849 14.3145 1.66913 14.2925 1.75682 14.2655C1.84445 14.2384 2.06463 14.1852 2.24606 14.1471C2.42748 14.1089 2.69962 14.0474 2.85081 14.0104L3.1257 13.9432L3.10739 13.6474C3.09728 13.4848 3.06698 13.2526 3.03999 13.1316C3.013 13.0106 2.99035 12.684 2.98958 12.4058C2.98886 12.1277 2.96764 11.8874 2.94246 11.8718C2.91723 11.8563 2.46987 11.8262 1.9483 11.805L1 11.7665L1.02666 12.4765ZM18.5285 12.0404C18.5084 12.0605 18.4918 12.2153 18.4918 12.3843C18.4917 12.5532 18.4536 12.8771 18.407 13.1041C18.3604 13.3311 18.3082 13.6176 18.291 13.7409L18.2599 13.965L18.8294 14.1452C19.1427 14.2443 19.5411 14.374 19.7148 14.4335C19.8884 14.4929 20.0526 14.5279 20.0795 14.5112C20.1064 14.4946 20.1421 14.4125 20.1588 14.3289C20.1754 14.2454 20.2167 14.0532 20.2504 13.9019C20.3588 13.4165 20.471 12.5998 20.471 12.2973V12.0037H19.5181C18.994 12.0037 18.5487 12.0202 18.5285 12.0404ZM9.83293 12.5318C9.05 12.7251 8.85439 12.7789 8.76087 12.8272C8.63277 12.8933 8.66802 13.05 8.94708 13.6554C9.09112 13.9681 9.55277 14.5006 9.9176 14.7751C10.1038 14.9152 10.2768 15.0298 10.3019 15.0298C10.375 15.0298 10.5345 14.7746 10.9109 14.0556L11.2623 13.384L10.9968 13.1214C10.8508 12.9769 10.6832 12.753 10.6243 12.6238C10.5655 12.4946 10.4871 12.3905 10.4501 12.3925C10.413 12.3945 10.1353 12.4572 9.83293 12.5318ZM12.634 13.3699C12.5376 13.4546 12.0301 13.5372 11.7983 13.5061C11.5935 13.4786 11.5633 13.4894 11.5184 13.606C11.4632 13.7494 11.2903 14.3105 11.1814 14.6997C11.1433 14.8358 11.0859 15.0187 11.0538 15.1059C11.0054 15.2376 11.012 15.2767 11.0924 15.3355C11.3075 15.4929 12.4603 15.5015 12.9392 15.3494C13.2309 15.2566 13.6943 15.0428 13.7305 14.9842C13.7481 14.9556 13.5864 14.6385 13.371 14.2795C12.7843 13.3016 12.7543 13.2645 12.634 13.3699ZM4.65143 13.8715C4.22063 13.9839 3.85256 14.0914 3.83353 14.1105C3.77289 14.1712 4.19847 15.3698 4.43344 15.8001C4.72466 16.3333 4.77348 16.4053 4.84396 16.4053C4.88585 16.4053 5.02803 16.331 5.15986 16.2402C5.2917 16.1495 5.41292 16.0752 5.42919 16.0752C5.44552 16.0752 5.64833 15.9514 5.8799 15.8001C6.11152 15.6488 6.32258 15.525 6.34891 15.525C6.44605 15.525 6.39141 15.3202 6.18008 14.8916C6.06083 14.6499 5.90618 14.2727 5.83647 14.0535C5.68407 13.5745 5.75059 13.5847 4.65143 13.8715ZM7.76589 13.9744C7.47567 14.1161 7.11073 14.2876 6.95498 14.3556C6.79917 14.4235 6.67174 14.4941 6.67174 14.5123C6.67174 14.6661 7.16422 15.4552 7.49255 15.8276C7.83379 16.2146 8.28076 16.6228 8.33002 16.5923C8.42584 16.5331 9.47558 15.1984 9.47558 15.1358C9.47558 15.1003 9.33066 14.9163 9.15357 14.7269C8.97649 14.5374 8.73965 14.2309 8.62733 14.0458C8.51496 13.8607 8.3939 13.711 8.35833 13.7131C8.3227 13.7151 8.05612 13.8327 7.76589 13.9744ZM15.2176 14.2994C15.0585 14.5425 14.6433 14.9655 14.3586 15.1747C14.2129 15.2817 14.0937 15.3912 14.0937 15.4179C14.0937 15.4446 14.2112 15.648 14.3548 15.8698C14.4985 16.0916 14.7025 16.4256 14.8084 16.612C14.9142 16.7984 15.0356 16.965 15.0782 16.9823C15.3268 17.0832 16.9542 15.5234 16.952 15.1864C16.9517 15.1457 16.7971 15.0157 16.6084 14.8975C16.4197 14.7792 16.0783 14.5626 15.8498 14.416C15.6212 14.2694 15.4076 14.1495 15.375 14.1495C15.3425 14.1495 15.2716 14.2169 15.2176 14.2994ZM18.0648 14.4409C18.0365 14.4773 17.9434 14.6557 17.8577 14.8372C17.7721 15.0188 17.5829 15.3473 17.4372 15.5673C17.2916 15.7873 17.1736 16.0101 17.1751 16.0625C17.178 16.1674 18.4875 17.2319 18.6094 17.2285C18.7739 17.2239 19.6653 15.7578 19.8329 15.2164C19.8773 15.0728 19.8208 15.0274 19.399 14.8684C19.2176 14.7999 19.0196 14.7239 18.9592 14.6993C18.8987 14.6748 18.8121 14.6426 18.7667 14.6279C18.7214 14.6133 18.5565 14.5503 18.4002 14.488C18.1834 14.4016 18.104 14.3904 18.0648 14.4409ZM2.92679 14.4494C2.91316 14.4631 2.61331 14.5483 2.26052 14.6387C1.34421 14.8735 1.37978 14.8442 1.50123 15.2635C1.6898 15.9145 2.20801 17.1285 2.3294 17.2036C2.38526 17.2382 3.85233 16.4879 3.99681 16.3509C4.03436 16.3153 3.82138 15.7813 3.60158 15.3599C3.57789 15.3145 3.49822 15.0856 3.42456 14.8513C3.29563 14.441 3.28431 14.4251 3.12114 14.4248C3.02789 14.4247 2.94042 14.4357 2.92679 14.4494ZM20.4703 15.1811C20.4024 15.3551 20.209 15.776 20.0407 16.1166C19.8499 16.5024 19.7542 16.7546 19.7867 16.7859C19.9066 16.9017 21.2557 17.7258 21.3252 17.7258C21.4424 17.7258 21.8916 16.9059 22.1694 16.1852C22.2686 15.928 22.3721 15.6612 22.3995 15.5922C22.442 15.485 22.4274 15.4585 22.2985 15.409C21.9988 15.294 20.6944 14.8647 20.6447 14.8647C20.6167 14.8647 20.5382 15.0071 20.4703 15.1811ZM9.34517 16.1069C9.07688 16.5171 8.85422 16.891 8.85037 16.9378C8.833 17.1484 10.4144 17.7874 11.0936 17.8442C11.2929 17.8609 11.3132 17.8495 11.3547 17.6977C11.3975 17.5413 11.5185 16.4504 11.5312 16.1055C11.5369 15.9522 11.5207 15.9399 11.2349 15.879C10.8431 15.7957 10.4448 15.6551 10.1357 15.491C9.9999 15.4189 9.8762 15.3602 9.86086 15.3605C9.84552 15.3609 9.61346 15.6967 9.34517 16.1069ZM13.269 15.7394C13.045 15.8245 12.4667 15.9445 12.1145 15.9791L11.977 15.9926L11.9376 16.9003C11.888 18.0404 11.8564 17.9925 12.5938 17.8943C13.2067 17.8126 13.5404 17.7343 14.0112 17.5619C14.1926 17.4954 14.3843 17.428 14.4373 17.4119C14.5756 17.3701 14.5609 17.3027 14.2953 16.757C14.1643 16.4879 13.9882 16.1254 13.904 15.9514C13.7324 15.5968 13.6858 15.5812 13.269 15.7394ZM5.88831 16.3573C5.50275 16.6317 5.18735 16.8948 5.18735 16.942C5.18735 16.9892 5.2901 17.1611 5.41567 17.324C5.69639 17.6882 6.76448 18.7161 6.86212 18.7161C6.90121 18.7161 7.04135 18.5738 7.17346 18.3998C7.30557 18.2258 7.42608 18.071 7.44125 18.0559C7.48545 18.0119 7.79261 17.6046 7.9294 17.4086L8.05474 17.2291L7.50932 16.6934C7.20936 16.3988 6.92007 16.0896 6.86647 16.0064C6.81286 15.9232 6.72858 15.8558 6.67916 15.8567C6.62973 15.8576 6.27387 16.0829 5.88831 16.3573ZM16.4354 16.7676C16.2266 16.96 15.8865 17.231 15.6795 17.37C15.4725 17.509 15.3032 17.6411 15.3032 17.6635C15.3032 17.6859 15.3726 17.8143 15.4575 17.9488C15.5424 18.0834 15.6284 18.2306 15.6487 18.276C15.6689 18.3214 15.7609 18.4823 15.8529 18.6336C15.9451 18.7849 16.0615 18.9892 16.1118 19.0875C16.1621 19.1859 16.2391 19.2664 16.283 19.2664C16.436 19.2664 17.3084 18.6304 17.7748 18.1789L18.2445 17.7242L17.6672 17.1713C17.3497 16.8672 17.0281 16.5733 16.9525 16.5181L16.8151 16.4178L16.4354 16.7676ZM3.59196 17.1261C3.24478 17.341 2.89276 17.5521 2.80958 17.5952C2.72645 17.6383 2.65889 17.7163 2.65949 17.7685C2.66152 17.943 4.03134 19.6969 4.17027 19.7028C4.24663 19.7061 5.51721 18.4655 5.51721 18.3877C5.51721 18.3529 5.34761 18.1217 5.14023 17.8738C4.93291 17.626 4.65863 17.2685 4.5307 17.0793C4.40271 16.8902 4.28121 16.7354 4.2606 16.7354C4.24004 16.7354 3.93914 16.9113 3.59196 17.1261ZM19.1935 17.4681C19.0804 17.6261 18.7898 17.9694 18.5475 18.2309C18.3052 18.4925 18.107 18.7216 18.107 18.7401C18.107 18.7749 19.2453 20.0321 19.3435 20.1057C19.4533 20.1881 21.0189 18.4537 21.02 18.2485C21.0205 18.1772 19.5723 17.1748 19.4739 17.1782C19.4327 17.1797 19.3065 17.3102 19.1935 17.4681ZM8.13985 17.8771C7.58414 18.7371 7.38644 19.0511 7.38644 19.0738C7.38644 19.146 8.29323 19.6478 8.73338 19.8191C9.1262 19.9721 9.6156 20.1467 9.65167 20.1467C9.6863 20.1467 9.77565 19.8678 9.97785 19.1288C10.011 19.0078 10.0597 18.8468 10.086 18.7712C10.1124 18.6955 10.1405 18.5489 10.1484 18.4453C10.1625 18.2606 10.156 18.2545 9.81473 18.1308C9.40361 17.9818 8.90194 17.746 8.69743 17.6058C8.61716 17.5507 8.51287 17.5057 8.46564 17.5057C8.41847 17.5057 8.27185 17.6729 8.13985 17.8771ZM14.616 17.967C14.3274 18.0929 13.8013 18.2637 13.4889 18.3329C13.3226 18.3697 13.1538 18.4091 13.1139 18.4203C13.0381 18.4415 13.0545 18.7823 13.1574 19.3214C13.1834 19.4575 13.2355 19.7484 13.2731 19.9679C13.3108 20.1873 13.3562 20.3668 13.3741 20.3668C13.4219 20.3668 14.0907 20.2151 14.3136 20.1538C14.8295 20.0117 15.5715 19.7221 15.6826 19.6195C15.7479 19.5592 15.6977 19.4224 15.3528 18.7215C15.0977 18.2032 14.915 17.8948 14.8634 17.8949C14.818 17.895 14.7067 17.9275 14.616 17.967ZM10.6093 18.4486C10.5971 18.4899 10.5576 18.6721 10.5217 18.8537C10.4417 19.2568 10.3818 19.534 10.2924 19.9133C10.2461 20.1098 10.2422 20.2207 10.2802 20.2587C10.3836 20.3622 11.4292 20.4808 12.0969 20.4648L12.7467 20.4493L12.742 20.1742C12.7363 19.8438 12.6687 18.9223 12.6325 18.6808L12.6065 18.508L11.797 18.4777C11.3517 18.4611 10.9074 18.4309 10.8094 18.4106C10.6819 18.3842 10.6251 18.395 10.6093 18.4486ZM5.64987 18.9503C5.53156 19.0791 5.25536 19.3788 5.03616 19.6161C4.81697 19.8535 4.63758 20.0802 4.63758 20.1198C4.63758 20.1822 4.93803 20.4421 5.62249 20.972C5.92163 21.2035 6.52935 21.5707 6.61901 21.5741C6.66717 21.5758 6.76855 21.4525 6.85388 21.2883C6.93645 21.1295 7.069 20.8881 7.14839 20.7519C7.22783 20.6157 7.36401 20.3754 7.45109 20.2179L7.60943 19.9315L7.09935 19.5901C6.8188 19.4023 6.44484 19.1289 6.26837 18.9824C6.09183 18.836 5.92888 18.7161 5.90618 18.7161C5.88353 18.7161 5.76818 18.8215 5.64987 18.9503ZM17.5839 19.1026C17.5337 19.184 16.6441 19.7755 16.3053 19.9528C16.1467 20.0358 16.006 20.1214 15.9926 20.143C15.9533 20.2068 16.7878 21.8523 16.8595 21.8523C17.1088 21.8523 18.945 20.636 18.9174 20.4892C18.9101 20.4507 18.6568 20.1118 18.3544 19.7363C17.8437 19.1021 17.6717 18.9605 17.5839 19.1026ZM7.91505 20.2823C7.86623 20.3569 7.82626 20.4304 7.82626 20.4456C7.82626 20.4609 7.67474 20.7848 7.48947 21.1655C7.09858 21.9688 7.07334 21.8903 7.81372 22.1731C8.07762 22.274 8.34304 22.3774 8.40352 22.4029C8.606 22.4885 9.22642 22.6679 9.38476 22.6866C9.52484 22.7032 9.5487 22.682 9.61099 22.485C9.64925 22.364 9.71017 22.1164 9.74634 21.9348C9.78246 21.7533 9.83332 21.5304 9.85932 21.4396C9.88527 21.3489 9.9221 21.1751 9.94113 21.0536L9.97571 20.8325L9.71192 20.7583C9.12356 20.5929 8.28592 20.2828 8.18636 20.1935C8.0962 20.1127 8.00697 20.1419 7.91505 20.2823ZM15.3032 20.4166C15.1353 20.5112 14.4143 20.7334 13.8273 20.8714L13.5333 20.9405L13.5686 21.1351C13.6229 21.4351 13.6993 21.898 13.7605 22.2982C13.8414 22.8269 13.8571 22.8541 14.0594 22.8159C14.5202 22.7287 15.3296 22.5112 15.6056 22.4002C15.666 22.3759 15.8355 22.3127 15.982 22.2597C16.1286 22.2067 16.26 22.1335 16.274 22.0969C16.288 22.0604 16.2485 21.9161 16.1862 21.7763C16.1239 21.6366 16.0234 21.411 15.9629 21.2752C15.9024 21.1393 15.8529 21.0163 15.8529 21.0017C15.8529 20.9872 15.7904 20.8383 15.7139 20.671C15.5748 20.3668 15.4875 20.3127 15.3032 20.4166ZM10.4167 21.0346C10.3884 21.1061 10.3362 21.3502 10.301 21.5772C10.2657 21.8042 10.2122 22.09 10.1821 22.2124C10.152 22.3348 10.1353 22.5329 10.145 22.6526L10.1628 22.8702L10.4652 22.9167C10.6315 22.9423 11.2994 22.9744 11.9496 22.9881C13.4117 23.019 13.3788 23.032 13.2812 22.4621C13.2442 22.2466 13.2117 21.9656 13.2088 21.8375C13.2058 21.7095 13.1749 21.4748 13.14 21.3159L13.0766 21.0271L11.9221 21.0058C11.2871 20.9941 10.7003 20.9666 10.6179 20.9446C10.4928 20.9113 10.4599 20.926 10.4167 21.0346Z" fill="black"/>
<path d="M22.93 10.6557C22.9067 10.5347 22.8609 10.2623 22.8282 10.0505C22.7956 9.83867 22.7428 9.59504 22.7108 9.5091C22.6361 9.30816 22.6193 9.30981 21.3232 9.6472C20.7545 9.79526 20.7784 9.74469 20.9104 10.5182C20.9491 10.7451 20.996 11.1413 21.0145 11.3985L21.0483 11.8662L22.0242 11.8812L23 11.8962L22.93 10.6557Z" fill="black"/>
<path d="M23 12.3761L22.0242 12.3688L21.0483 12.3613L21.0124 12.719C20.9695 13.1465 20.8795 13.745 20.8021 14.1173C20.7712 14.2661 20.7576 14.3995 20.7719 14.4138C20.7862 14.4282 20.9284 14.4757 21.088 14.5195C21.2476 14.5632 21.4524 14.6203 21.5431 14.6463C22.6241 14.9557 22.6275 14.9557 22.6889 14.6566C22.8045 14.0936 22.8466 13.8606 22.8882 13.5536C22.9142 13.3621 22.95 13.1909 22.9677 13.1731L23 12.3761Z" fill="black"/>
<path d="M11.0424 1L11.0493 1.26118C11.065 1.85876 11.1645 2.87685 11.2116 2.92263C11.2395 2.9497 11.72 2.97891 12.2794 2.98755L13.2965 3.00323L13.3672 2.56544C13.4061 2.32461 13.4618 1.98992 13.4909 1.82167C13.52 1.65342 13.5439 1.42756 13.5439 1.31978C13.5439 1.13342 13.5324 1.12137 13.3102 1.07549L11.0424 1Z" fill="black"/>
</svg>
