<svg width="24" height="24" viewBox="0 0 24 24" fill="none" xmlns="http://www.w3.org/2000/svg">
<rect width="24" height="24" fill="white"/>
<path fill-rule="evenodd" clip-rule="evenodd" d="M3.85423 2.04728C3.6826 2.13327 3.65665 2.23916 3.65665 2.85337C3.65665 3.44818 3.68275 3.56789 3.82985 3.64787C3.92775 3.70109 4.07322 3.70109 4.17112 3.64787C4.31822 3.56789 4.34432 3.44818 4.34432 2.85337C4.34432 2.23433 4.31847 2.1313 4.14183 2.04614C4.01365 1.98435 3.97957 1.98451 3.85423 2.04728ZM19.2855 2.02357C18.9444 2.09758 18.6028 2.37106 18.4473 2.69461C18.3733 2.84861 18.3634 2.90678 18.3634 3.18677C18.3634 3.46244 18.3741 3.5275 18.4447 3.68038C18.8722 4.60637 20.1405 4.60637 20.5629 3.68038C20.7015 3.37639 20.6897 2.94856 20.5339 2.63111C20.4451 2.45009 20.1934 2.2156 19.9843 2.11898C19.7783 2.02382 19.4751 1.98241 19.2855 2.02357ZM8.20113 2.37646C8.10148 2.41735 8.00146 2.56449 8.00146 2.67019C8.00146 2.97069 8.3602 3.12888 8.5665 2.91932C8.81947 2.66235 8.53487 2.23948 8.20113 2.37646ZM15.1907 2.71795C15.0643 2.76739 14.9872 2.93158 15.0163 3.08919C15.0418 3.22716 15.1572 3.33114 15.3076 3.35162C15.4139 3.3661 15.4464 3.35445 15.5452 3.26637C15.6448 3.17743 15.6596 3.14603 15.6596 3.02226C15.6596 2.82934 15.5332 2.69344 15.3572 2.69712C15.2914 2.69849 15.2165 2.70788 15.1907 2.71795ZM19.723 2.74221C19.8466 2.80714 19.9723 2.98238 19.9944 3.1206C20.0225 3.29666 19.93 3.50692 19.783 3.60119C19.6325 3.69772 19.3762 3.70791 19.2487 3.62247C19.0832 3.51159 19.0208 3.39531 19.0208 3.19779C19.0208 2.99327 19.0777 2.88782 19.2539 2.76605C19.3762 2.68153 19.5871 2.6708 19.723 2.74221ZM2.15485 3.75138C2.06233 3.82543 2 3.94777 2 4.05531C2 4.13831 2.02604 4.18854 2.11162 4.27053L2.22324 4.37747H2.81698C3.19266 4.37747 3.43579 4.36445 3.47898 4.342C3.67766 4.23881 3.72036 3.9772 3.56597 3.8093L3.4753 3.71067L2.83924 3.71169C2.38784 3.71239 2.18914 3.72392 2.15485 3.75138ZM4.44141 3.80279C4.33138 3.90722 4.31156 4.06226 4.38886 4.2141C4.46344 4.36057 4.54653 4.37747 5.19287 4.37747H5.78842L5.8947 4.26951C6.00991 4.15247 6.03101 4.03464 5.96362 3.88442C5.89388 3.7289 5.80808 3.71067 5.14623 3.71067H4.53849L4.44141 3.80279ZM3.8522 4.41014C3.81363 4.42589 3.75346 4.48571 3.71845 4.54305C3.65928 4.64005 3.65543 4.69045 3.66356 5.26125L3.67228 5.87514L3.77437 5.96773C3.94957 6.12665 4.18963 6.08156 4.29762 5.86946C4.33394 5.79811 4.34429 5.65202 4.34419 5.21254C4.3441 4.70369 4.33788 4.63701 4.28168 4.54337C4.19144 4.39302 4.02246 4.3406 3.8522 4.41014ZM5.83728 5.44322C5.63638 5.55394 5.60991 5.82882 5.78564 5.97904L5.88072 6.06032H6.59727C7.14747 6.06032 7.31476 6.06953 7.31792 6.10001C7.32017 6.12186 7.32367 6.72213 7.32573 7.43397C7.32895 8.55965 7.32333 8.72993 7.28253 8.74124C7.25675 8.74838 6.76444 8.74965 6.18852 8.74403C5.6126 8.73841 4.90424 8.74178 4.61439 8.75152C4.11639 8.76826 4.08244 8.77343 3.99811 8.84554C3.88474 8.94245 3.8527 9.09873 3.9194 9.22974C4.01974 9.42686 4.01493 9.42603 5.05459 9.42603H6.00097V10.7914V12.1567H5.13039C4.27724 12.1567 4.25767 12.1581 4.15459 12.2287C3.9556 12.3649 3.9556 12.647 4.15459 12.7832L4.2598 12.8552H6.30255H8.34529V14.3591V15.863L8.05616 15.8804C7.89712 15.89 6.9934 15.8942 6.04786 15.8897C4.1443 15.8806 4.15018 15.8801 4.0469 16.0748C3.97135 16.2173 4.00402 16.3821 4.12899 16.4889L4.22407 16.5702H5.11254H6.00097V17.9179V19.2655L5.11235 19.2753C4.26605 19.2845 4.21954 19.2882 4.1358 19.3518C3.9641 19.4821 3.96413 19.7548 4.13586 19.8851L4.22385 19.9518L8.28506 19.9601L12.3463 19.9684V21.3805V22.7926L12.4375 22.8963L12.5287 23H15.3085C17.6264 23 18.1017 22.9926 18.1696 22.9557C18.3441 22.8609 18.3477 22.828 18.3477 21.337V19.9693L20.0646 19.9605C21.7537 19.9519 21.7829 19.9507 21.8695 19.8851C22.0412 19.7548 22.0412 19.4821 21.8695 19.3518C21.783 19.2861 21.7536 19.2849 20.0646 19.276L18.3477 19.2671V17.9186V16.5702H20.0645H21.7813L21.8764 16.4889C22.0006 16.3827 22.034 16.2173 21.9594 16.0767C21.8594 15.8881 21.8945 15.8915 20.0513 15.888L18.3634 15.8848L18.3477 14.3832C18.3391 13.5573 18.338 12.8757 18.3451 12.8685C18.3523 12.8612 19.1203 12.8552 20.0519 12.8552H21.7455L21.8508 12.7832C22.0497 12.647 22.0497 12.3649 21.8508 12.2287C21.7492 12.1592 21.7213 12.1567 21.0469 12.1567H20.3482V10.7914V9.42603H21.0647H21.7813L21.8764 9.34475C22.0629 9.18525 22.025 8.87837 21.8073 8.78677C21.7339 8.7559 21.3304 8.74517 20.1153 8.74177C19.2377 8.73933 18.4035 8.73511 18.2614 8.73241L18.0032 8.72749L18.0114 7.40184L18.0195 6.0762L19.0876 6.06032C20.1517 6.04451 20.156 6.04416 20.2329 5.97078C20.3325 5.87562 20.3591 5.73562 20.3034 5.60004C20.2111 5.37578 20.8379 5.3934 12.9964 5.3948C6.80073 5.39591 5.9122 5.40191 5.83728 5.44322ZM17.3228 6.10001C17.3301 6.12186 17.3349 6.72371 17.3335 7.4375L17.331 8.7353L16.8469 8.73847L16.3629 8.74168L16.345 8.53612C16.3084 8.1135 16.2592 8.09242 15.311 8.09257C14.6367 8.09267 14.5734 8.0975 14.4788 8.15608C14.355 8.23276 14.3155 8.32827 14.3155 8.5506V8.71882L13.9951 8.74012C13.8189 8.75184 13.5474 8.75946 13.3917 8.75708L13.1087 8.75273L12.8839 8.53237L12.6591 8.31201L12.7092 8.19428C12.9671 7.58835 12.853 6.98122 12.3993 6.54533C11.921 6.08582 11.2249 6.02812 10.6765 6.40251C10.4927 6.52806 10.284 6.76105 10.2164 6.9161C10.1817 6.99567 10.1537 7.01167 10.0186 7.02907C9.2894 7.12296 8.7563 7.75502 8.78827 8.48782L8.79853 8.72288L8.70866 8.74108C8.58944 8.76518 8.11355 8.76438 8.05091 8.73997C8.0069 8.72282 8.00146 8.57416 8.00146 7.39051V6.06032H12.6555C16.3508 6.06032 17.3123 6.06848 17.3228 6.10001ZM11.768 6.90984C12.0687 7.05984 12.243 7.42537 12.1611 7.73428C12.1419 7.80652 12.0745 7.94166 12.0112 8.03459C11.9184 8.17091 11.8958 8.23336 11.8946 8.35764L11.893 8.51173L12.3932 9.00748L12.8933 9.50325L12.4869 9.54208C12.2634 9.56342 11.9546 9.59044 11.8006 9.60213C11.5382 9.622 11.5142 9.62988 11.4177 9.7279C11.3611 9.7854 11.3148 9.85589 11.3148 9.88453C11.3148 9.97016 11.2023 10.1654 11.0909 10.273C10.7698 10.5833 10.2556 10.5168 9.98822 10.1304C9.90639 10.0121 9.89451 9.96772 9.89501 9.78187C9.89533 9.66474 9.90742 9.4936 9.92193 9.40152L9.94831 9.23415L9.76045 9.05088C9.52633 8.82246 9.46131 8.69821 9.45828 8.47347C9.45503 8.23266 9.54071 8.02269 9.698 7.88593C9.85638 7.74822 10 7.70663 10.2832 7.7165C10.5628 7.72628 10.6475 7.66919 10.7396 7.40908C10.8145 7.19726 10.9606 7.0051 11.1057 6.92731C11.3001 6.8231 11.5793 6.81573 11.768 6.90984ZM2.2188 7.44807C2.12569 7.48265 2.03182 7.59667 2.01313 7.69787C1.98868 7.83033 2.01372 7.90721 2.11478 8.00986C2.28807 8.18589 2.60687 8.07854 2.64578 7.83103C2.68839 7.56016 2.46249 7.35758 2.2188 7.44807ZM15.6596 9.63242V10.4738H15.3157H14.9719V9.63242V8.79099H15.3157H15.6596V9.63242ZM9.22326 9.79118C9.24301 10.1673 9.26239 10.2303 9.4479 10.5215C9.65055 10.8396 9.93968 11.0355 10.3426 11.1279C10.5408 11.1733 10.6056 11.1753 10.7959 11.142C10.9179 11.1206 11.1038 11.0613 11.209 11.0102C11.4282 10.9036 11.7095 10.6344 11.8172 10.4284C11.9028 10.2643 11.8873 10.2684 12.612 10.2206C13.1562 10.1848 13.706 10.1311 13.7906 10.1055C13.8199 10.0967 13.8797 10.0462 13.9234 9.99344C14.0344 9.85948 14.0294 9.71288 13.9091 9.57377C13.8576 9.51411 13.8154 9.45584 13.8154 9.44432C13.8154 9.43279 13.9244 9.42752 14.0576 9.43263L14.2999 9.44191V9.99341V10.5449L14.0654 10.6296C13.4307 10.8589 12.9127 11.3286 12.6001 11.9584L12.5015 12.157L9.58766 12.1489L6.67382 12.1408L6.67167 10.8072C6.67048 10.0738 6.67473 9.46277 6.68114 9.4495C6.68755 9.43619 7.258 9.42905 7.94882 9.43362L9.20488 9.44191L9.22326 9.79118ZM19.6605 10.7914V12.1567H18.9167H18.1729L18.0338 11.8789C17.9186 11.6487 17.8384 11.5439 17.5664 11.2676C17.2164 10.9123 16.9944 10.7667 16.5755 10.618L16.3629 10.5425L16.3543 9.98423L16.3458 9.42603H18.0032H19.6605V10.7914ZM16.2599 11.2332C16.9155 11.4237 17.4461 11.9783 17.6129 12.6476C17.6526 12.8068 17.6595 13.142 17.6566 14.7591C17.6547 15.8163 17.642 16.6242 17.6283 16.5543C17.482 15.807 16.9791 15.1686 16.2797 14.8424C15.0862 14.2857 13.64 14.8953 13.1611 16.1568C13.1084 16.2957 13.0652 16.4313 13.0652 16.4581C13.0652 16.4848 13.0511 16.5067 13.0339 16.5067C12.9904 16.5067 12.9923 13.0663 13.036 12.7926C13.134 12.1791 13.5433 11.6268 14.1054 11.3497C14.414 11.1976 14.56 11.1767 15.3315 11.1745C15.9503 11.1727 16.0796 11.1809 16.2599 11.2332ZM12.3463 14.359V15.8626L12.0102 15.8799C11.8254 15.8894 11.0764 15.8945 10.3458 15.8912L9.01733 15.8853L9.0092 14.3703L9.00111 12.8552H10.6737H12.3463V14.359ZM15.8159 15.3879C16.2383 15.5233 16.6359 15.8596 16.8174 16.2352C16.9172 16.4418 17.0022 16.7921 17.0031 17.001C17.0071 17.9512 16.1649 18.7555 15.2376 18.6872C14.4437 18.6288 13.8579 18.0931 13.7011 17.2824C13.6557 17.0476 13.6533 16.9735 13.6853 16.7839C13.7964 16.126 14.1918 15.6356 14.7946 15.408C15.0447 15.3136 15.5527 15.3036 15.8159 15.3879ZM15.0039 15.7638C14.9098 15.7895 14.7759 15.8444 14.7065 15.8857C14.5214 15.9959 14.2775 16.2732 14.1743 16.4908C14.0931 16.6621 14.084 16.7135 14.0843 16.9989C14.0846 17.2861 14.0938 17.3361 14.18 17.5228C14.3186 17.8231 14.494 18.0071 14.7769 18.1492C15.0074 18.2649 15.0268 18.269 15.346 18.269C15.6561 18.269 15.6893 18.2625 15.884 18.1652C16.1494 18.0325 16.4077 17.7564 16.5064 17.5001C16.6035 17.248 16.6226 16.855 16.5489 16.6277C16.3295 15.951 15.6697 15.5821 15.0039 15.7638ZM15.6017 16.4625C15.6473 16.4859 15.734 16.5638 15.7945 16.6356C16.042 16.9293 15.9361 17.3954 15.5851 17.5573C15.1997 17.7351 14.7533 17.4459 14.7474 17.0146C14.7413 16.5605 15.2069 16.2596 15.6017 16.4625ZM10.6584 17.9197V19.2691H8.67643H6.69452L6.67864 19.1183C6.66488 18.9875 6.66748 17.7618 6.68342 16.8639L6.68864 16.5702H8.6735H10.6584V17.9197ZM12.3306 17.9197V19.2533L11.8383 19.262L11.346 19.2708V17.9197V16.5686L11.8383 16.5774L12.3306 16.5861V17.9197ZM17.6601 19.8407V22.3173H15.3314H13.0027V19.9042C13.0027 18.5769 13.0132 17.4914 13.0261 17.4919C13.039 17.4924 13.0882 17.6148 13.1354 17.7639C13.3142 18.3291 13.7358 18.8304 14.2621 19.1036C14.6571 19.3087 14.9643 19.375 15.436 19.357C15.8578 19.3409 16.1693 19.253 16.5032 19.0556C16.7802 18.8919 17.2156 18.4494 17.3554 18.1896C17.4838 17.9507 17.6288 17.5541 17.6288 17.4415C17.6288 17.3989 17.6358 17.364 17.6444 17.364C17.653 17.364 17.6601 18.4785 17.6601 19.8407Z" fill="black"/>
</svg>
