<svg width="24" height="24" viewBox="0 0 24 24" fill="none" xmlns="http://www.w3.org/2000/svg">
<rect width="24" height="24" fill="white"/>
<path fill-rule="evenodd" clip-rule="evenodd" d="M12.3584 2.36521V2.73041L11.9104 2.73815L11.4624 2.74589V3.19624V3.64659H12.4411H13.4198L13.4275 3.27365L13.4352 2.9007H13.8755H14.3158V2.45035V2H13.3371H12.3584V2.36521ZM14.1504 2.45035V2.73182H13.3371H12.5238V2.45035V2.16888H13.3371H14.1504V2.45035ZM13.2544 3.19624V3.47771H12.4411H11.6278L11.6198 3.22661C11.6153 3.08852 11.6181 2.95849 11.626 2.93768C11.6375 2.90695 11.7918 2.90126 12.4473 2.90731L13.2544 2.91477V3.19624ZM14.9499 3.74274C14.5238 3.80579 14.0707 3.96634 13.7644 4.1628C12.8859 4.72631 12.4046 6.11293 12.7077 7.20717C12.854 7.73506 13.2575 8.27146 13.8281 8.69648C14.3872 9.11297 15.4829 9.56768 16.4524 9.78562C16.7606 9.85492 17.2386 9.85585 17.4035 9.78748C17.5403 9.73079 17.6649 9.62352 17.7198 9.51521C17.7394 9.47651 17.8628 9.0712 17.9941 8.61451C18.1253 8.15783 18.2683 7.66385 18.3119 7.51679C18.5064 6.86085 18.515 6.79372 18.4167 6.69977C18.3826 6.66717 18.3174 6.62264 18.2719 6.60077C18.1996 6.56601 17.3968 6.31117 17.1692 6.25068C17.1237 6.23861 16.888 6.16937 16.6454 6.0968C16.4027 6.02424 16.1477 5.95793 16.0786 5.94943C15.8955 5.92694 15.8243 6.00063 15.7196 6.32054C15.6184 6.62985 15.5948 6.78502 15.6368 6.8651C15.6749 6.9378 15.82 7.01678 16.03 7.0791C16.2137 7.13362 16.3283 7.23146 16.3283 7.33383C16.3283 7.40473 16.1643 8.01797 16.1051 8.16841C16.089 8.20945 16.0464 8.27115 16.0106 8.30549C15.9125 8.39961 15.6634 8.37481 15.3883 8.24357C14.8915 8.0066 14.6679 7.61868 14.6692 6.99607C14.6705 6.34042 14.8838 5.78097 15.2835 5.385C15.5306 5.14026 15.716 5.0364 16.0283 4.96783C16.4024 4.88564 16.8048 4.95652 17.4085 5.21088C18.1782 5.53525 18.3608 5.57955 18.4611 5.46637C18.4864 5.4378 18.5489 5.26363 18.5999 5.07935C18.7076 4.69019 18.6993 4.64361 18.4986 4.51411C18.1333 4.27843 17.0682 3.92401 16.3145 3.78735C16.0341 3.73652 15.1806 3.7086 14.9499 3.74274ZM4.8872 4.13756C4.21198 4.2379 3.67016 4.71161 3.43674 5.40577C3.36194 5.62819 3.36225 6.25443 3.43723 6.47535C3.48733 6.62293 3.62823 6.9143 3.67276 6.96243C3.6923 6.98354 3.89901 7.03927 4.15662 7.09287C4.30249 7.12324 5.33786 7.3613 5.61777 7.42883C6.04049 7.53083 6.01865 7.5321 6.20058 7.39536C6.63622 7.06793 6.90254 6.55903 6.91021 6.03936L6.91351 5.81446L6.55512 5.78029C6.358 5.76152 6.14089 5.72884 6.07266 5.7077L5.9486 5.66928L6.26564 5.63376C7.04529 5.54648 7.78486 5.27371 8.00039 4.99395C8.03196 4.953 8.05763 4.87819 8.05763 4.82716C8.05763 4.69883 7.89461 4.55942 7.66524 4.49164C7.45935 4.43082 6.7827 4.40326 6.44685 4.44202L6.22834 4.46727L5.97818 4.33734C5.62381 4.15326 5.24653 4.08416 4.8872 4.13756ZM11.6554 5.84511C11.0943 6.45815 10.6113 6.99185 10.5819 7.03111C10.5287 7.10241 10.5287 7.10255 10.5949 7.15727L10.6611 7.21207L10.7861 7.07525C10.8548 6.99998 11.0029 6.8374 11.1152 6.71392C11.2274 6.59044 11.4076 6.39443 11.5155 6.27832C11.6234 6.16222 11.8659 5.89623 12.0544 5.68724C12.2429 5.47825 12.4039 5.30081 12.4122 5.2929C12.4205 5.28502 12.5189 5.18017 12.6308 5.05993C12.8289 4.84706 12.8329 4.83982 12.785 4.78575C12.7579 4.75524 12.7222 4.7303 12.7056 4.73039C12.689 4.73047 12.2164 5.2321 11.6554 5.84511ZM11.5175 7.14944C10.7981 7.36156 10.7729 7.37138 10.7644 7.44301C10.7516 7.55208 10.8069 7.55799 11.0809 7.47682C11.6314 7.31368 12.0781 7.18198 12.2274 7.13883C12.3229 7.11125 12.386 7.07744 12.386 7.05388C12.386 6.97952 12.3523 6.9257 12.3072 6.92781C12.2823 6.92899 11.9269 7.02872 11.5175 7.14944ZM2.79195 7.05419C2.68248 7.12712 2.57686 7.28584 2.53358 7.44253C2.51161 7.52208 2.43535 7.81514 2.36411 8.0938C2.2929 8.37245 2.18784 8.77777 2.13066 8.9945C2.07348 9.21123 1.98631 9.54688 1.93693 9.74039C1.88756 9.9339 1.76184 10.4215 1.65755 10.824C1.55325 11.2265 1.41731 11.7522 1.35545 11.9921C1.29358 12.2321 1.22436 12.4791 1.20158 12.541C1.1398 12.7091 1.12665 13.0219 1.17437 13.1884C1.19657 13.2658 1.3163 13.5634 1.44044 13.8498C1.56456 14.1362 1.75699 14.5859 1.86804 14.849C2.11255 15.4284 2.35681 15.9999 2.43133 16.167C2.57733 16.4942 2.70925 16.8185 2.70925 16.8503C2.70925 16.8697 2.66434 16.9847 2.60945 17.1058C2.55456 17.2269 2.47513 17.402 2.43295 17.4948C2.08578 18.2591 1.92105 18.6225 1.57189 19.3948C1.35142 19.8824 1.13255 20.3637 1.08552 20.4643C1.0054 20.6358 1.00003 20.6675 1 20.9679C0.999972 21.3483 1.0416 21.4631 1.26188 21.69C1.39556 21.8277 1.51937 21.8933 1.81764 21.9846C2.05763 22.0581 2.53179 21.8578 2.72267 21.6023C2.78774 21.5152 2.90433 21.2777 3.14997 20.7317C3.18478 20.6543 3.29961 20.401 3.40512 20.1688C3.51059 19.9366 3.62831 19.6769 3.66672 19.5918C3.70509 19.5066 3.77967 19.342 3.83241 19.2259C3.88515 19.1098 4.06826 18.7045 4.23932 18.3252C4.41039 17.9459 4.59585 17.5358 4.65145 17.4138C4.77152 17.1504 4.81571 16.9346 4.78946 16.7397C4.7738 16.6235 4.29766 15.4277 4.12726 15.0767C4.08094 14.9813 4.10225 14.9373 4.15745 15.0143C4.17815 15.0433 4.24848 15.1256 4.31371 15.1974C4.37893 15.2691 4.55016 15.4606 4.69421 15.6229C4.98537 15.951 4.98779 15.9537 5.57005 16.6133L5.98452 17.0828L6.00021 17.3451C6.00887 17.4894 6.02954 18.1647 6.04619 18.8459C6.09568 20.872 6.10977 21.1087 6.19146 21.2909C6.28439 21.4981 6.44967 21.6748 6.65845 21.7901C6.82052 21.8797 6.84644 21.8853 7.09271 21.8842C7.32222 21.8833 7.37403 21.8734 7.51143 21.8046C7.8044 21.6578 8.03375 21.3429 8.07254 21.0342C8.08175 20.9607 8.07618 20.4383 8.06013 19.8733C8.04412 19.3082 8.01828 18.3646 8.00276 17.7763C7.97164 16.595 7.95154 16.3984 7.84237 16.2065C7.80154 16.1348 7.26571 15.5099 6.65161 14.8179C5.29367 13.2877 5.40753 13.4221 5.42639 13.3714C5.44125 13.3315 5.53035 12.9906 5.81274 11.8936C5.88048 11.6304 5.97915 11.2505 6.032 11.0492C6.08485 10.848 6.16832 10.5219 6.21754 10.3246C6.26675 10.1273 6.3194 9.96587 6.33457 9.96587C6.34973 9.96584 6.53582 10.1828 6.7481 10.448C6.96038 10.7132 7.17128 10.9585 7.21677 10.9932C7.34185 11.0887 7.49453 11.1287 7.66482 11.1107C7.83575 11.0927 7.91236 11.0471 8.30812 10.7277C8.45346 10.6104 8.745 10.3761 8.95599 10.2071C9.36235 9.88143 9.46193 9.8011 10.1011 9.28342C10.5229 8.94169 10.6023 8.84143 10.6403 8.6028C10.6972 8.24478 10.3132 7.84881 9.95145 7.89255C9.79061 7.912 9.66677 7.98343 9.35337 8.23763C8.44626 8.97336 7.73121 9.54198 7.70301 9.54997C7.67833 9.55695 7.50536 9.35331 7.05028 8.78151C6.33848 7.88714 6.29222 7.83375 6.17684 7.77374C6.07285 7.71961 5.83118 7.65969 4.51501 7.36156C4.34822 7.32378 3.96364 7.23444 3.66038 7.16304C2.99381 7.00609 2.88475 6.99241 2.79195 7.05419ZM10.1391 7.39643C10.0348 7.42261 10.0192 7.45388 10.0497 7.57632C10.0653 7.63914 10.0918 7.69535 10.1086 7.7012C10.3905 7.79986 10.4778 7.847 10.5831 7.95768C10.8566 8.24497 10.8906 8.72032 10.6598 9.02931C10.6208 9.08155 10.469 9.22049 10.3226 9.33806C9.95991 9.62926 9.98227 9.60317 10.0127 9.69966C10.027 9.74529 10.097 9.99793 10.1682 10.2611C10.4351 11.2473 10.5385 11.6089 10.559 11.6284C10.5791 11.6475 11.9004 11.287 11.9331 11.2535C11.9417 11.2448 11.8842 11.0053 11.8053 10.7212C11.7265 10.4372 11.5969 9.97049 11.5174 9.68409C11.4379 9.3977 11.3145 8.94805 11.243 8.68488C10.9877 7.74469 11.0024 7.78418 10.9084 7.78418C10.8468 7.78418 10.8015 7.75629 10.7319 7.67567C10.6479 7.57826 10.6283 7.5688 10.5403 7.58335C10.3246 7.61899 10.3351 7.6227 10.2953 7.49568C10.2583 7.37721 10.2462 7.36955 10.1391 7.39643ZM13.194 9.26406C13.0976 9.32708 12.9925 9.51972 12.9925 9.63326C12.9925 9.7546 13.0693 9.90187 13.1761 9.98498C13.2597 10.0501 13.3052 10.0641 13.4336 10.0641C13.562 10.0641 13.6074 10.0501 13.691 9.98498C13.9374 9.79311 13.9167 9.41062 13.6511 9.25049C13.5431 9.18533 13.3035 9.19245 13.194 9.26406ZM20.0348 9.60756C20.0272 9.6278 20.0245 9.83378 20.0287 10.0653L20.0363 10.4863H21.0013H21.9662V10.0359V9.58558L21.0074 9.57818C20.2384 9.57224 20.0459 9.57807 20.0348 9.60756ZM21.8291 9.8038C21.8377 9.8387 21.841 9.96852 21.8365 10.0923L21.8283 10.3174H21.015H20.2018L20.1939 10.0289L20.186 9.74039H20.9998H21.8135L21.8291 9.8038ZM14.571 9.92165C14.3799 10.0093 14.3475 10.2871 14.5118 10.4283C14.6387 10.5373 14.7901 10.5284 14.9113 10.4047C14.9873 10.3271 15.005 10.2872 15.005 10.194C15.005 9.9677 14.7793 9.82607 14.571 9.92165ZM13.5801 10.6115C13.47 10.68 13.4334 10.7488 13.4342 10.8855C13.4352 11.0609 13.5609 11.1759 13.7516 11.1759C13.8297 11.1759 13.8738 11.1542 13.9464 11.0802C14.0565 10.9677 14.0701 10.843 13.9864 10.7133C13.884 10.5546 13.7324 10.5167 13.5801 10.6115ZM6.10084 11.5066C5.98422 11.9285 5.85169 12.4496 5.83741 12.5424C5.82115 12.6479 5.82498 12.6556 5.91202 12.6939C5.96247 12.7161 6.16502 12.8122 6.36213 12.9075C7.2321 13.3282 7.28914 13.3468 7.52731 13.2885C7.78538 13.2253 7.96502 13.002 7.9948 12.7073C8.0075 12.5816 7.9978 12.5318 7.93516 12.4011C7.89403 12.3152 7.81915 12.2129 7.76879 12.1737C7.71844 12.1345 7.46817 12.0032 7.21266 11.882C6.95716 11.7608 6.62558 11.603 6.47586 11.5313C6.32613 11.4597 6.18704 11.4011 6.16681 11.4011C6.14657 11.4011 6.11688 11.4486 6.10084 11.5066ZM9.42022 13.1717C9.41377 13.1783 9.4085 13.3459 9.4085 13.5442V13.9047L8.96051 13.9125L8.51251 13.9202L8.50488 14.3386C8.49967 14.6232 8.50736 14.7694 8.52892 14.796C8.5733 14.8506 10.4551 14.8543 10.458 14.7998C10.459 14.7804 10.4621 14.6126 10.4649 14.4268L10.4699 14.0891L10.9179 14.0813L11.3659 14.0736V13.624V13.1743L11.1936 13.1688C10.8486 13.1578 9.43161 13.1601 9.42022 13.1717ZM11.1946 13.6176L11.2024 13.9061H10.3882H9.57392V13.6294C9.57392 13.4771 9.58238 13.3439 9.59272 13.3334C9.60306 13.3228 9.96592 13.3175 10.3991 13.3217L11.1867 13.3291L11.1946 13.6176ZM10.3045 14.3705V14.652H9.49121H8.67793L8.67007 14.3631L8.66221 14.0742L9.48335 14.0816L10.3045 14.0891V14.3705ZM15.6391 17.7341V18.1844H16.6178H17.5965V17.7341V17.2837H16.6178H15.6391V17.7341ZM17.4311 17.7324C17.4311 17.9285 17.421 18.0133 17.3966 18.0224C17.3777 18.0294 17.0148 18.0329 16.5902 18.0302L15.8183 18.0253L15.8104 17.7398L15.8026 17.4543L16.1575 17.4464C16.3527 17.4421 16.7192 17.4423 16.9718 17.4469L17.4311 17.4552V17.7324ZM9.67631 17.6953C9.66547 17.7063 9.65662 17.7696 9.65662 17.8358V17.9563L9.51189 17.9648C9.36809 17.9733 9.36665 17.9743 9.2896 18.1211C9.22851 18.2375 9.19768 18.2689 9.14464 18.2689H9.07726L9.08438 20.0773L9.09146 21.8858L9.80136 21.8933L10.5113 21.9008V20.0848V18.2689H10.4441C10.3913 18.2689 10.3603 18.2373 10.2993 18.1211C10.2224 17.9746 10.2205 17.9733 10.0785 17.9649L9.93521 17.9564L9.92688 17.8242L9.91853 17.6919L9.80726 17.6835C9.74606 17.6789 9.68712 17.6842 9.67631 17.6953ZM11.5234 17.6953C11.5126 17.7063 11.5037 17.7696 11.5037 17.8358V17.9563L11.3615 17.9648C11.2219 17.9732 11.2181 17.9758 11.1454 18.1141C11.0889 18.2216 11.0541 18.2569 10.9979 18.2637L10.9244 18.2727L10.9315 20.0792L10.9386 21.8858L11.6485 21.8933L12.3584 21.9008V20.0848V18.2689H12.2912C12.2384 18.2689 12.2074 18.2373 12.1465 18.1211C12.0696 17.9746 12.0677 17.9733 11.9256 17.9649L11.7823 17.9564L11.774 17.8242L11.7656 17.6919L11.6544 17.6835C11.5932 17.6789 11.5342 17.6842 11.5234 17.6953ZM13.8611 19.0558C13.8509 19.1171 13.8507 19.1931 13.8606 19.2248L13.8785 19.2824L17.6466 19.2753L21.4148 19.2681L21.4231 19.1063L21.4313 18.9444H17.6554H13.8795L13.8611 19.0558ZM9.78805 20.0633L9.78068 20.7599H9.505H9.22931L9.22194 20.0633L9.21456 19.3666H9.505H9.79543L9.78805 20.0633ZM11.6352 20.0633L11.6278 20.7599L11.3544 20.768C11.204 20.7725 11.0738 20.7642 11.0649 20.7497C11.0561 20.7351 11.0524 20.418 11.0567 20.0449L11.0645 19.3666H11.3535H11.6426L11.6352 20.0633ZM12.8822 21.1541V21.9003L14.6535 21.893L16.4248 21.8858L16.4337 21.8069C16.4397 21.7528 16.4647 21.7194 16.5131 21.7006C16.6794 21.6361 16.7385 21.5672 16.7473 21.4275L16.7556 21.2947L16.8797 21.2806L17.0038 21.2665V21.1539V21.0414L16.8728 21.0328L16.7418 21.0242V20.8869C16.7418 20.7679 16.7313 20.742 16.6628 20.6921C16.6192 20.6605 16.551 20.622 16.5111 20.6065C16.4549 20.5846 16.4386 20.5592 16.4386 20.4932V20.408H14.6604H12.8822V21.1541Z" fill="black"/>
<path d="M23 8.55822C22.9931 8.55113 22.9417 8.32837 22.9013 8.13619C22.7759 7.53987 22.6884 7.4042 22.4294 7.4042C22.3475 7.4042 22.247 7.42159 22.206 7.44284C22.1651 7.46412 22.0508 7.50192 21.9522 7.52689C21.7288 7.58341 21.6087 7.55566 21.4524 7.41149C21.3266 7.29549 21.2696 7.19481 21.2193 7.0004C21.1733 6.82246 21.2015 6.76248 21.379 6.66061C21.5903 6.53933 21.9021 6.22211 22.0104 6.01827C22.1 5.84956 22.104 5.82944 22.1037 5.5465C22.1032 5.00169 21.8955 4.43839 21.5779 4.11991C21.239 3.7802 20.8396 3.64766 20.2155 3.66781C19.819 3.68065 19.5799 3.72459 18.6717 3.95173L18.1892 4.07237L18.4152 4.1898C18.5395 4.25437 18.6859 4.34722 18.7405 4.39614C18.8994 4.53857 18.9574 4.73818 18.8915 4.91528C18.8759 4.95714 18.8692 4.99761 18.8767 5.00521C18.8841 5.01284 18.9708 4.9984 19.0692 4.97318C19.3861 4.89189 19.551 4.92181 19.7284 5.09286C19.889 5.24756 19.9816 5.46167 20.0128 5.75018C20.058 6.16757 19.7752 6.4266 19.2293 6.46772C18.9638 6.48774 18.9403 6.46497 18.8643 6.11361C18.832 5.96426 18.7871 5.77399 18.7644 5.69079L18.7233 5.5395L18.6406 5.62585C18.4388 5.83661 18.1517 5.80596 17.5 5.50412C17.2512 5.38891 16.7183 5.20874 16.6263 5.20874C16.5622 5.20874 16.548 5.2191 16.5588 5.258C16.5663 5.28511 16.5995 5.42978 16.6325 5.57949C16.6995 5.88342 16.6828 5.86645 17.0038 5.95621C17.1676 6.00203 17.7347 6.17092 18.1065 6.2846C18.4619 6.3933 18.6438 6.52852 18.7022 6.72755C18.7396 6.855 18.7234 6.95413 18.5945 7.39012C18.5487 7.54493 18.3964 8.07058 18.2561 8.55822C17.9691 9.55611 17.941 9.63422 17.8161 9.77943C17.7671 9.8364 17.7317 9.8872 17.7376 9.89232C17.7858 9.93488 17.8868 9.96556 17.9786 9.96556C18.0889 9.96556 18.6178 9.84864 18.9984 9.74011C19.5491 9.58307 19.6549 9.40051 19.5123 8.85376C19.4921 8.77636 19.4237 8.48791 19.3603 8.21277C19.2374 7.67964 19.2385 7.62937 19.3737 7.62937C19.4811 7.62937 19.7737 7.79997 19.9224 7.94923C20.0016 8.02875 20.1434 8.19757 20.2375 8.32437C20.5043 8.68395 20.7905 8.88149 21.2127 8.99754C21.7206 9.13712 22.6892 8.97395 22.9156 8.71066L23 8.61254V8.55822Z" fill="black"/>
</svg>
