<svg width="24" height="24" viewBox="0 0 24 24" fill="none" xmlns="http://www.w3.org/2000/svg">
<rect width="24" height="24" fill="white"/>
<path fill-rule="evenodd" clip-rule="evenodd" d="M10.8699 1.0163C10.8612 1.02561 10.7347 1.05972 10.5889 1.09209C10.2946 1.15746 10.0471 1.29308 9.95808 1.43783C9.92591 1.49011 9.88894 1.60775 9.87593 1.69926C9.86288 1.79072 9.82048 1.94144 9.7817 2.03414C9.6835 2.26873 9.66539 2.42915 9.71755 2.60246C9.78683 2.83255 9.91811 2.99304 10.0791 3.04439C10.1625 3.07103 10.2469 3.1317 10.2814 3.18999C10.372 3.34297 10.6911 3.65098 10.8353 3.72458C11.0017 3.80954 11.2962 3.80677 11.4212 3.71908C11.4738 3.6822 11.558 3.58784 11.6082 3.50947C11.7157 3.34158 11.8496 2.92321 11.8498 2.75425C11.8498 2.68892 11.8799 2.58309 11.9166 2.51907C12.0951 2.20725 12.0862 2.0336 11.8752 1.71158C11.8198 1.62688 11.7222 1.47136 11.6584 1.36596C11.5106 1.12174 11.3161 1.0009 11.0695 1.00001C10.9685 0.999665 10.8787 1.00702 10.8699 1.0163ZM11.5852 3.72882C11.3687 4.07721 11.0178 4.09426 10.6242 3.77551L10.5011 3.67585L10.5278 3.82933C10.5425 3.91379 10.5633 4.03013 10.5739 4.08791C10.5897 4.17326 10.5771 4.19955 10.5065 4.22815C10.4138 4.26569 10.0963 4.51222 10.0063 4.61658C9.97651 4.65115 9.89519 4.72121 9.82562 4.77226C9.33346 5.13335 9.21158 5.68539 9.40881 6.66019C9.55447 7.38023 9.61114 7.54761 9.67353 7.44205C9.75712 7.3005 10.176 7.14948 10.4397 7.16576L10.6381 7.17804L10.6648 7.38977C10.6794 7.50622 10.7107 7.66656 10.7342 7.74609C10.7743 7.88152 10.7702 7.89989 10.6696 8.03482C10.3488 8.46497 10.0874 8.9834 9.91594 9.52909C9.81448 9.85211 9.68119 10.4095 9.68108 10.5114C9.68101 10.5517 9.94489 10.6252 10.2117 10.6594C10.7269 10.7253 11.6152 10.5561 12.5906 10.2061C13.1412 10.0086 13.8345 9.74459 13.8783 9.71572C13.9115 9.69385 13.9083 9.65601 13.8315 9.1606C13.794 8.91869 13.7288 8.63201 13.6476 8.35218C13.5915 8.15904 13.5986 7.8326 13.6721 7.21654C13.7284 6.74496 13.731 6.61669 13.6924 6.19031C13.6682 5.9223 13.6594 5.68408 13.6728 5.66098C13.6862 5.63785 13.7287 5.61895 13.7673 5.61895C13.8546 5.61895 13.855 5.62491 13.752 5.40075C13.5987 5.06726 13.5464 4.43164 13.6397 4.03567C13.6622 3.94001 13.6533 3.93192 13.4767 3.88677C13.3594 3.85678 13.2137 3.84935 13.0848 3.86671C12.706 3.91776 12.5617 3.90513 12.3016 3.79811C12.1625 3.74094 12.0243 3.69402 11.9943 3.6939C11.9644 3.69375 11.8934 3.66776 11.8365 3.63616C11.6947 3.55739 11.6908 3.55886 11.5852 3.72882ZM13.7739 4.04006C13.6769 4.20556 13.7278 5.0358 13.8577 5.40722C13.8914 5.50369 13.9829 5.61895 14.0256 5.61895C14.1432 5.61895 14.2045 5.00385 14.1246 4.62547C13.9989 4.02947 13.8883 3.84492 13.7739 4.04006ZM10.0857 7.2955C9.88178 7.36379 9.68104 7.49768 9.68104 7.56543C9.68104 7.6895 10.0542 7.67869 10.3445 7.54614C10.7708 7.35147 10.5518 7.13939 10.0857 7.2955ZM13.6387 10.0117C13.278 10.1591 12.0775 10.582 11.7954 10.6611C11.0853 10.8601 10.2601 10.9181 9.8807 10.7955C9.65354 10.7221 9.60876 10.7414 9.60876 10.9126C9.60876 10.9953 9.58093 11.0819 9.53889 11.13C9.47687 11.2009 9.47062 11.2557 9.48291 11.6192C9.50745 12.3428 9.51811 12.401 9.64776 12.517L9.76338 12.6206L9.68607 12.7957C9.59553 13.0009 9.59054 13.1168 9.66156 13.3661C9.73768 13.6332 9.81792 13.8038 10.0165 14.1205L10.1937 14.4031L10.169 14.6654C10.1493 14.8744 10.157 14.9563 10.2069 15.0683C10.2612 15.1903 10.2634 15.2288 10.2231 15.3587C10.171 15.5268 10.2063 15.6683 10.3375 15.8184L10.4102 15.9014L10.3322 16.0781C10.249 16.2664 10.2491 16.2632 10.3216 17.2063C10.3552 17.644 10.425 17.788 10.717 18.0228C10.8783 18.1526 10.9383 18.2362 11.0536 18.4923C11.1308 18.6637 11.2134 18.9114 11.237 19.0427C11.2857 19.3128 11.2567 19.6802 11.1802 19.7617C11.1528 19.7908 11.0413 19.8266 10.9324 19.841C10.5343 19.894 9.9759 20.1727 9.84661 20.3829C9.81517 20.434 9.78947 20.4852 9.78947 20.4966C9.78947 20.5081 11.2004 20.513 12.9249 20.5076L16.0603 20.4977L16.0511 20.3245C16.0112 19.573 15.5569 18.5275 14.8883 17.649C14.8077 17.5432 14.7416 17.4378 14.7415 17.4148C14.7412 17.3918 14.6751 17.2013 14.5944 16.9913C14.4552 16.6287 14.4502 16.602 14.4946 16.4563C14.5609 16.239 14.5513 15.7634 14.4759 15.5271C14.4414 15.4186 14.3548 15.2281 14.2836 15.1036L14.1542 14.8773L14.1605 14.4191C14.1682 13.8644 14.0886 13.5682 13.8564 13.2873L13.711 13.1113V12.7817C13.711 12.5841 13.7317 12.3981 13.7627 12.3173C13.8249 12.1555 14.0191 11.8214 14.103 11.732C14.2025 11.626 14.3073 11.3215 14.3073 11.1384C14.3073 11.0403 14.275 10.8993 14.2317 10.8089C14.1815 10.7042 14.1613 10.6042 14.1717 10.5121C14.1926 10.3262 14.1448 10.1552 14.0376 10.032C13.935 9.91405 13.884 9.91147 13.6387 10.0117ZM13.5462 11.0758C13.4263 11.2471 12.8863 11.7837 12.6934 11.9233C12.2661 12.2324 11.9796 12.3328 11.5243 12.333C11.1568 12.3331 10.8648 12.2557 10.4974 12.0606C10.2426 11.9255 9.89859 11.689 9.89823 11.6487C9.89787 11.6121 9.93292 11.6194 10.3316 11.7382C11.0711 11.9587 11.6851 11.998 12.1057 11.8517C12.4139 11.7446 12.8111 11.5208 13.1869 11.2424C13.5032 11.0082 13.6369 10.9461 13.5462 11.0758ZM13.041 13.1485C12.9802 13.2948 12.9158 13.4491 12.8979 13.4914C12.7294 13.8889 12.5717 14.7101 12.5732 15.1819C12.5743 15.5056 12.6656 16.2734 12.7875 16.985C12.8084 17.1067 12.8415 17.3059 12.861 17.4277C12.8805 17.5494 12.9062 17.6967 12.918 17.7549C12.9299 17.8131 12.9261 17.8608 12.9095 17.8608C12.8929 17.8608 12.8609 17.8131 12.8386 17.7549C12.311 16.3826 12.0955 15.41 12.1758 14.7634C12.2189 14.4172 12.2576 14.26 12.3588 14.0212C12.3968 13.9314 12.4279 13.8484 12.4279 13.8366C12.4279 13.7403 13.0988 12.8266 13.1385 12.8688C13.1456 12.8764 13.1017 13.0023 13.041 13.1485ZM11.7971 18.4033C12.0385 18.6695 12.5389 19.1002 12.8889 19.3429C13.0721 19.4699 13.2222 19.5868 13.2225 19.6027C13.2228 19.6186 13.0958 19.6316 12.9402 19.6316C12.7846 19.6316 12.4797 19.6599 12.2625 19.6944C11.6588 19.7905 11.685 19.7944 11.7057 19.6123C11.7153 19.5276 11.7209 19.2938 11.7182 19.0926C11.714 18.7747 11.6914 18.6112 11.6101 18.3131C11.5804 18.204 11.6445 18.2349 11.7971 18.4033ZM9.51529 20.762C9.50481 20.7911 9.5012 20.9081 9.5073 21.022L9.5184 21.2292H13.0062H16.494V20.9789V20.7287L13.0142 20.7189C10.0897 20.7107 9.5313 20.7175 9.51529 20.762ZM9.01048 21.49C9.00069 21.5172 8.99711 21.8681 9.00253 22.2698L9.0124 23H13.0062H17V22.2301V21.4602L13.0142 21.4504C9.79403 21.4424 9.0249 21.4501 9.01048 21.49Z" fill="black"/>
</svg>
