<svg width="24" height="24" viewBox="0 0 24 24" fill="none" xmlns="http://www.w3.org/2000/svg">
<rect width="24" height="24" fill="white"/>
<path fill-rule="evenodd" clip-rule="evenodd" d="M11.6813 1.1155C11.6477 1.17904 11.5954 1.3113 11.5652 1.40949C11.5011 1.61822 11.4552 1.63582 11.4169 1.46635C11.3759 1.28542 11.2435 1.18983 11.041 1.195C10.6817 1.20416 10.566 1.35077 10.6033 1.74985C10.6272 2.00528 10.6261 2.00827 10.4483 2.19554L10.2692 2.38407L10.2696 3.04652C10.2703 4.29905 10.3724 4.98568 10.6513 5.61352L10.8198 5.99307L10.7143 6.16493C10.6401 6.28555 10.5428 6.36766 10.3876 6.44031C10.1676 6.54334 10.1599 6.54384 8.84407 6.54493C7.61047 6.54594 7.49619 6.53968 7.14303 6.45132L6.76442 6.35661L6.3708 6.45631C5.99159 6.55232 5.93984 6.55497 4.95374 6.5283C4.39085 6.5131 3.721 6.48899 3.46514 6.47475L3 6.44884V6.63452C3 6.73661 3.02981 6.93283 3.06629 7.0705C3.34953 8.14034 4.36475 8.82912 6.15865 9.16843C7.04368 9.33584 7.5341 9.37225 8.94952 9.37561C9.87154 9.37775 10.317 9.39375 10.3745 9.42672C10.452 9.47116 10.4575 9.52281 10.4507 10.1379C10.4467 10.5026 10.4266 10.8118 10.406 10.8249C10.3606 10.8538 10.2919 12.0814 10.3049 12.6337C10.31 12.8531 10.343 13.181 10.3782 13.3623C10.4134 13.5437 10.461 13.9806 10.4841 14.3332C10.5452 15.2652 10.6037 15.5702 10.7325 15.6272C10.8255 15.6683 10.8343 15.6953 10.8229 15.9034C10.811 16.1183 10.8013 16.1367 10.6803 16.1741C10.5255 16.222 10.3691 16.3524 10.2903 16.4993C10.2471 16.5798 10.2301 16.933 10.2211 17.9342C10.2086 19.3312 10.212 19.3588 10.4029 19.4177C10.475 19.4399 10.4856 19.4852 10.4856 19.7701C10.4856 20.0605 10.4735 20.1099 10.3777 20.2101C10.3185 20.2722 10.2572 20.3725 10.2415 20.4331C10.207 20.5665 10.2926 22.9002 10.3344 22.9658C10.3745 23.0289 11.8547 22.9972 11.9221 22.9318C11.9571 22.8978 11.9943 22.898 12.0607 22.9325C12.1861 22.9977 13.6267 23.0269 13.6661 22.9649C13.7087 22.898 13.7935 20.5684 13.7583 20.4323C13.7419 20.369 13.6853 20.2753 13.6323 20.2239C13.5519 20.1459 13.5336 20.0744 13.521 19.7882C13.5072 19.4753 13.5134 19.4434 13.5928 19.419C13.7886 19.3587 13.7914 19.336 13.7789 17.9342C13.7699 16.933 13.7529 16.5798 13.7097 16.4993C13.6309 16.3524 13.4745 16.222 13.3197 16.1741C13.1987 16.1367 13.189 16.1183 13.1771 15.9034C13.1657 15.6953 13.1745 15.6683 13.2675 15.6272C13.3958 15.5704 13.4547 15.2658 13.515 14.3469C13.5377 14.0016 13.5856 13.5646 13.6215 13.3758C13.6574 13.1871 13.6907 12.8531 13.6956 12.6337C13.7079 12.0779 13.6392 10.8537 13.594 10.8249C13.5734 10.8118 13.5533 10.5026 13.5493 10.1379C13.5425 9.52277 13.548 9.4712 13.6255 9.42685C13.6829 9.39405 14.1309 9.37796 15.0505 9.37569C16.4657 9.37225 16.9568 9.33575 17.8413 9.16843C19.6317 8.82979 20.651 8.13824 20.9337 7.0705C20.9702 6.93283 21 6.7367 21 6.63464V6.44909L20.3401 6.48597C19.9772 6.50625 19.2617 6.52284 18.75 6.52284C17.9498 6.52284 17.7789 6.51121 17.5279 6.43964L17.2361 6.35648L16.8573 6.45127C16.5014 6.54027 16.3969 6.54577 15.137 6.54153L13.7957 6.53699L13.5842 6.42494C13.4476 6.35254 13.3375 6.25333 13.2735 6.14485C13.1752 5.97849 13.175 5.9753 13.2537 5.82003C13.5911 5.15418 13.6855 4.65641 13.7184 3.3681L13.7433 2.39726L13.5586 2.20276C13.3775 2.01204 13.3743 2.00356 13.3947 1.76665C13.4303 1.35338 13.3165 1.20411 12.959 1.195C12.7565 1.18983 12.6241 1.28542 12.5831 1.46635C12.5448 1.63582 12.4989 1.61822 12.4348 1.40949C12.318 1.02953 12.2867 1 12 1C11.7629 1 11.7378 1.00911 11.6813 1.1155ZM12.2619 1.49349C12.3764 1.83254 12.4123 1.88197 12.5436 1.88197C12.6639 1.88197 12.6851 1.85258 12.7503 1.59638C12.7931 1.42788 12.8176 1.39706 12.9174 1.38589C12.9816 1.3787 13.0767 1.39487 13.1286 1.42188C13.2163 1.46736 13.2211 1.49189 13.1955 1.75883C13.169 2.03565 13.1729 2.0522 13.2967 2.18907L13.4255 2.3314L13.0002 2.35656C12.7663 2.37038 12.4845 2.40381 12.374 2.43081L12.1731 2.47991V2.81561V3.1513L12.3353 3.1151C12.4246 3.09524 12.6339 3.07949 12.8005 3.08016C13.0529 3.08117 13.1421 3.102 13.3359 3.20515L13.5684 3.32892L13.5417 3.60292C13.5271 3.75361 13.5149 3.94546 13.5147 4.0292L13.5144 4.18149L13.2693 4.20123C13.0549 4.21849 13.0061 4.24012 12.8799 4.3738C12.8005 4.45789 12.7356 4.56633 12.7356 4.61479C12.7356 4.66561 12.7127 4.69627 12.6815 4.68724C12.5842 4.65906 12.3915 4.22068 12.3078 3.83689C12.2478 3.56188 12.2 3.44063 12.1297 3.38541C12.0769 3.34391 12.0185 3.30993 12 3.30993C11.9815 3.30993 11.9231 3.34391 11.8703 3.38541C11.8 3.44063 11.7522 3.56188 11.6922 3.83689C11.6085 4.22068 11.4158 4.65906 11.3185 4.68724C11.2873 4.69627 11.2644 4.66561 11.2644 4.61479C11.2644 4.56633 11.1995 4.45789 11.1201 4.3738C10.9939 4.24012 10.9451 4.21849 10.7307 4.20123L10.4856 4.18149L10.4853 4.0292C10.4851 3.94546 10.4727 3.75096 10.4577 3.59704L10.4305 3.31716L10.6635 3.20221C10.9155 3.07802 11.282 3.04505 11.643 3.11414L11.8269 3.14933V2.81464V2.47991L11.626 2.43081C11.5155 2.40381 11.2337 2.37038 10.9998 2.35656L10.5745 2.3314L10.7053 2.18676C10.8318 2.04699 10.8352 2.0325 10.8072 1.75623C10.7802 1.49109 10.785 1.46677 10.872 1.42154C10.9236 1.39475 11.0184 1.3787 11.0826 1.38589C11.1824 1.39706 11.2069 1.42788 11.2497 1.59638C11.3149 1.85258 11.3361 1.88197 11.4564 1.88197C11.5879 1.88197 11.6243 1.83221 11.741 1.49349C11.8386 1.21016 11.8387 1.20999 12.0023 1.20999H12.166L12.2619 1.49349ZM11.5024 2.59062C11.6132 2.61343 11.6341 2.63896 11.645 2.76454L11.6578 2.91174L11.3205 2.89696C11.056 2.88533 10.9318 2.90112 10.7452 2.97004C10.6143 3.01834 10.4926 3.0579 10.4748 3.0579C10.4346 3.05794 10.4313 2.62061 10.4712 2.58197C10.5069 2.54724 11.3251 2.55412 11.5024 2.59062ZM13.549 2.81645C13.5562 2.94925 13.5464 3.05794 13.5274 3.0579C13.5084 3.0579 13.3857 3.01834 13.2548 2.97004C13.0682 2.90112 12.944 2.88533 12.6795 2.89696L12.3422 2.91174L12.355 2.76454C12.371 2.58058 12.447 2.56009 13.0817 2.56874L13.5361 2.57495L13.549 2.81645ZM10.8543 3.32043C10.7893 3.37528 10.732 3.47759 10.7178 3.56424C10.6979 3.68561 10.7151 3.7387 10.8097 3.84773C10.907 3.96003 10.9561 3.98191 11.1105 3.98191C11.4875 3.98191 11.6545 3.63479 11.412 3.35517C11.2695 3.19078 11.026 3.17562 10.8543 3.32043ZM12.59 3.33664C12.4355 3.48662 12.432 3.73303 12.5822 3.87881C12.6631 3.95743 12.7341 3.98191 12.8812 3.98191C13.045 3.98191 13.0916 3.96167 13.1903 3.84773C13.2849 3.7387 13.3021 3.68561 13.2822 3.56424C13.2295 3.24248 12.8243 3.10926 12.59 3.33664ZM11.29 3.49893C11.3557 3.5962 11.3557 3.61165 11.29 3.70892C11.1625 3.89787 10.9183 3.82475 10.9183 3.59763C10.9183 3.39108 11.1718 3.32379 11.29 3.49893ZM12.998 3.4374C13.0929 3.48666 13.1121 3.68368 13.0298 3.76352C12.9426 3.84819 12.7859 3.82144 12.71 3.70892C12.6443 3.61165 12.6443 3.5962 12.71 3.49893C12.7864 3.38578 12.8659 3.36877 12.998 3.4374ZM12.1291 3.90842C12.1802 4.12211 12.2684 4.39615 12.325 4.5174C12.4252 4.73205 12.4256 4.73789 12.3418 4.73789C12.2944 4.73789 12.2079 4.7843 12.1495 4.841C12.0623 4.92563 12.0433 4.98569 12.0433 5.17699C12.0433 5.30509 12.0238 5.40987 12 5.40987C11.9762 5.40987 11.9567 5.30509 11.9567 5.17699C11.9567 4.98569 11.9377 4.92563 11.8505 4.841C11.7921 4.7843 11.7056 4.73789 11.6582 4.73789C11.5744 4.73789 11.5748 4.73205 11.675 4.5174C11.7316 4.39615 11.8198 4.12211 11.8709 3.90842C11.9221 3.69473 11.9802 3.51993 12 3.51993C12.0198 3.51993 12.0779 3.69473 12.1291 3.90842ZM10.994 4.50782C11.0527 4.57338 11.0907 4.6699 11.0896 4.75074C11.088 4.87006 11.0638 4.89581 10.8706 4.98384C10.7511 5.03823 10.6469 5.07602 10.6389 5.06783C10.6043 5.03201 10.5299 4.43424 10.5552 4.39455C10.6039 4.31799 10.8902 4.39186 10.994 4.50782ZM13.4478 4.39917C13.471 4.43563 13.3934 5.03449 13.3611 5.06783C13.3531 5.07602 13.2489 5.03823 13.1294 4.98384C12.9399 4.89753 12.912 4.86863 12.9104 4.75776C12.9074 4.53764 13.0851 4.36939 13.328 4.36255C13.3801 4.36112 13.434 4.37758 13.4478 4.39917ZM11.7094 4.96578C11.749 5.00421 11.7796 5.15838 11.795 5.39627C11.8082 5.60009 11.8159 5.76942 11.8122 5.77253C11.8084 5.77568 11.6109 5.78513 11.3733 5.79353L10.9413 5.80886L10.8402 5.56271L10.7391 5.31655L10.8362 5.21622C10.8897 5.16103 10.9543 5.11571 10.9799 5.1155C11.0055 5.11529 11.1238 5.06863 11.2428 5.01181C11.4909 4.89333 11.6215 4.88044 11.7094 4.96578ZM12.7572 5.01181C12.8762 5.06863 12.9945 5.11529 13.0201 5.1155C13.0457 5.11571 13.1121 5.16284 13.1677 5.22025L13.2687 5.32466L13.1618 5.56674L13.0549 5.80886L12.6248 5.79353C12.3883 5.78513 12.1916 5.77568 12.1878 5.77253C12.1841 5.76942 12.1918 5.60009 12.205 5.39627C12.2388 4.87418 12.3324 4.809 12.7572 5.01181ZM13.1035 6.23191C13.2545 6.46102 13.2548 6.46249 13.2542 6.95413C13.2537 7.28776 13.2399 7.42649 13.2115 7.38382C13.1885 7.34917 13.1693 7.2002 13.1689 7.05278C13.168 6.66484 12.9793 6.40831 12.6707 6.37538C12.4846 6.35556 12.476 6.36799 12.4744 6.65934C12.473 6.92641 12.4693 6.93674 12.4111 6.83783C12.377 6.78008 12.3485 6.6834 12.3477 6.62301C12.3468 6.56261 12.3058 6.46337 12.2565 6.40251C12.0661 6.16753 11.6566 6.31696 11.6523 6.62301C11.6515 6.6834 11.623 6.78008 11.5889 6.83783C11.5306 6.93682 11.527 6.92687 11.5256 6.66282C11.5239 6.35728 11.4968 6.32461 11.2916 6.38084C10.9756 6.46749 10.8321 6.68391 10.8311 7.07517C10.8307 7.21028 10.8115 7.34917 10.7885 7.38382C10.7601 7.42644 10.7463 7.28684 10.7458 6.95165C10.7453 6.53733 10.7583 6.43784 10.8255 6.34267C10.8697 6.28005 10.9376 6.17786 10.9765 6.11558L11.047 6.00231H11.9996H12.9522L13.1035 6.23191ZM12.1283 6.54107C12.1529 6.58576 12.1739 6.6661 12.1749 6.71956C12.1759 6.77307 12.2122 6.88147 12.2555 6.96047L12.3343 7.1041L12.1672 7.25845L12 7.4128L11.8328 7.25845L11.6657 7.1041L11.7445 6.96047C11.7878 6.88147 11.8241 6.77307 11.8251 6.71956C11.8278 6.57517 11.9055 6.45984 12 6.45984C12.0459 6.45984 12.1036 6.49638 12.1283 6.54107ZM6.98362 6.62931C7.08613 6.68256 7.08959 6.7443 6.9957 6.84501C6.86364 6.98668 6.50481 6.90146 6.50481 6.72843C6.50481 6.60465 6.81327 6.54082 6.98362 6.62931ZM10.5721 7.93274V9.2796L10.4748 9.2662L10.3774 9.25276L10.3659 7.9718C10.3554 6.80482 10.361 6.68617 10.4282 6.63834C10.4689 6.60948 10.5179 6.58584 10.5371 6.58584C10.5564 6.58584 10.5721 7.19192 10.5721 7.93274ZM11.351 6.83913C11.351 7.00515 11.3323 7.09801 11.2969 7.10864C11.2671 7.11754 11.1866 7.13682 11.1179 7.15156L10.993 7.17827L11.0155 6.98445C11.0296 6.86303 11.0751 6.75236 11.1371 6.68823C11.3011 6.51881 11.351 6.55396 11.351 6.83913ZM12.8629 6.68823C12.9249 6.75236 12.9704 6.86303 12.9845 6.98445L13.007 7.17827L12.8821 7.15156C12.6409 7.0999 12.644 7.10415 12.6538 6.83829C12.6643 6.55812 12.7071 6.52733 12.8629 6.68823ZM13.5718 6.63834C13.639 6.68617 13.6446 6.80482 13.6341 7.9718L13.6226 9.25276L13.5252 9.2662L13.4279 9.2796V7.93274C13.4279 7.19192 13.4436 6.58584 13.4629 6.58584C13.4821 6.58584 13.5311 6.60948 13.5718 6.63834ZM17.4115 6.62931C17.514 6.68256 17.5175 6.7443 17.4236 6.84501C17.2959 6.98201 16.9327 6.91965 16.9327 6.76076C16.9327 6.71998 16.9561 6.66396 16.9846 6.63624C17.0484 6.57437 17.2979 6.5703 17.4115 6.62931ZM4.08173 6.69079C4.28401 6.7036 4.7029 6.71448 5.01262 6.71486C5.32235 6.71528 5.59897 6.72956 5.62739 6.74661C5.68196 6.77933 5.09531 7.00742 4.49279 7.18772C4.11734 7.30011 3.50413 7.4033 3.41313 7.36941C3.33616 7.34072 3.21635 6.98575 3.21635 6.78626V6.62368L3.46514 6.64552C3.602 6.65757 3.87945 6.67794 4.08173 6.69079ZM20.7837 6.78836C20.7837 6.98613 20.6635 7.34085 20.5869 7.36941C20.4959 7.4033 19.8827 7.30011 19.5072 7.18772C18.8945 7.00436 18.318 6.77945 18.3732 6.74535C18.4019 6.72763 18.7175 6.71062 19.0745 6.70755C19.6259 6.70281 19.9096 6.69 20.6863 6.63477C20.7715 6.62872 20.7837 6.64783 20.7837 6.78836ZM7.93269 6.87697V7.03548L7.70553 7.01876C7.43726 6.99902 7.19712 6.96521 7.19712 6.9472C7.19712 6.94014 7.21676 6.87958 7.24073 6.81259C7.2843 6.691 7.28478 6.69084 7.60852 6.70465L7.93269 6.71847V6.87697ZM16.7801 6.86933L16.8098 7.00583H16.4358H16.0618L16.0754 6.86933L16.0889 6.73283L16.3918 6.71184C16.5584 6.70029 16.7073 6.70029 16.7226 6.71184C16.7379 6.72339 16.7638 6.79428 16.7801 6.86933ZM6.26393 6.79021C6.24173 6.80944 5.91202 7.02972 5.53125 7.27978C5.15048 7.5298 4.68906 7.83505 4.5059 7.95807C4.3227 8.08112 4.14049 8.18179 4.1009 8.18179C4.01549 8.18179 3.51923 7.69398 3.51923 7.61002C3.51923 7.57567 3.56432 7.55181 3.62922 7.55181C3.98507 7.55181 4.953 7.27034 5.77217 6.92863C6.22607 6.73934 6.36925 6.69903 6.26393 6.79021ZM8.69133 6.86933C8.67493 6.95597 8.64845 7.03884 8.63244 7.0535C8.61643 7.06819 8.49138 7.07059 8.35457 7.05883L8.10577 7.03741V6.87462V6.71184H8.41346H8.72119L8.69133 6.86933ZM9.28083 6.90083L9.29628 7.08982H9.06881C8.82079 7.08982 8.81037 7.07512 8.90404 6.85749C8.95839 6.7312 8.98656 6.71184 9.11602 6.71184C9.26184 6.71184 9.26569 6.71625 9.28083 6.90083ZM9.9461 6.77269C10.215 6.88176 10.1087 7.08982 9.7841 7.08982C9.62054 7.08982 9.44712 6.99029 9.44712 6.89642C9.44712 6.86198 9.51042 6.80709 9.58774 6.77446C9.76506 6.69966 9.76597 6.69966 9.9461 6.77269ZM14.4028 6.77269C14.4853 6.80616 14.5529 6.86177 14.5529 6.89629C14.5529 7.05102 14.1847 7.14875 13.9875 7.04636C13.8668 6.98361 13.8842 6.85085 14.0228 6.77786C14.1735 6.69852 14.2184 6.69789 14.4028 6.77269ZM15.096 6.85749C15.1896 7.07512 15.1792 7.08982 14.9312 7.08982H14.7037L14.7192 6.90083C14.7343 6.71625 14.7382 6.71184 14.884 6.71184C15.0134 6.71184 15.0416 6.7312 15.096 6.85749ZM15.8858 6.8863L15.8989 7.0398L15.6478 7.05686C15.5097 7.06626 15.3836 7.06332 15.3676 7.05039C15.3515 7.03741 15.3249 6.95505 15.3082 6.86731L15.278 6.70776L15.5753 6.72032L15.8726 6.73283L15.8858 6.8863ZM19.5096 7.38062C19.7558 7.44912 20.075 7.51809 20.219 7.53392C20.3878 7.55244 20.4808 7.5818 20.4808 7.61657C20.4808 7.69242 19.9759 8.18179 19.8976 8.18179C19.8621 8.18179 19.5748 8.01023 19.2591 7.80049C18.9434 7.59079 18.4661 7.27579 18.1983 7.10058C17.9306 6.92531 17.7115 6.76765 17.7115 6.75022C17.7115 6.73279 18.0154 6.83947 18.3868 6.98731C18.7582 7.13514 19.2635 7.31212 19.5096 7.38062ZM6.2747 7.06408C6.24675 7.13472 5.22542 8.50644 5.1179 8.61774C5.04356 8.69472 5.0321 8.69225 4.66582 8.52018C4.45913 8.42303 4.30318 8.3308 4.31928 8.31518C4.35558 8.27999 6.26094 7.01124 6.28227 7.00809C6.29076 7.00683 6.28734 7.03203 6.2747 7.06408ZM18.6774 7.64097C19.2052 7.99028 19.6548 8.29204 19.6767 8.31153C19.7235 8.3534 18.9909 8.70548 18.9313 8.66969C18.8553 8.62412 17.6498 7.00583 17.6918 7.00583C17.7061 7.00583 18.1496 7.29163 18.6774 7.64097ZM7.4351 7.17651C7.74447 7.20226 8.47464 7.24526 9.05769 7.27206L10.1178 7.32082L10.1295 8.20019C10.136 8.6838 10.1306 9.06918 10.1175 9.05654C10.0504 8.99132 9.91685 8.51514 9.85281 8.11229C9.78544 7.68869 9.73814 7.57 9.65637 7.61909C9.63828 7.62993 9.62759 7.96726 9.63265 8.36869C9.63772 8.77011 9.6269 9.11307 9.60864 9.13088C9.50081 9.23588 9.37429 8.78527 9.33224 8.14643C9.31177 7.83497 9.28672 7.70578 9.24371 7.68978C9.21074 7.67747 9.17339 7.67747 9.16072 7.68978C9.14808 7.70208 9.1396 8.02434 9.14194 8.4059C9.14445 8.81593 9.12891 9.10997 9.10399 9.12496C9.03126 9.1686 8.87843 8.5728 8.8082 7.9718C8.78475 7.771 8.75918 7.69881 8.71149 7.69881C8.65732 7.69881 8.64231 7.82006 8.62041 8.43379C8.59168 9.2389 8.59653 9.18976 8.54543 9.18976C8.44158 9.18976 8.32328 8.56012 8.32246 8.0033C8.32216 7.79616 8.31069 7.76181 8.24181 7.76181C8.16907 7.76181 8.15908 7.81241 8.13623 8.29729C8.1091 8.87213 8.05069 9.14777 7.95597 9.14777C7.87887 9.14777 7.8304 8.66381 7.85191 8.10859C7.86692 7.72165 7.86294 7.69881 7.78125 7.69881C7.70406 7.69881 7.69194 7.73518 7.66884 8.03618C7.63059 8.53462 7.48403 9.1271 7.40996 9.08267C7.38811 9.06956 7.37019 8.7481 7.37019 8.36831C7.37019 7.71439 7.36578 7.67781 7.28677 7.67781C7.19772 7.67781 7.1921 7.70481 7.13039 8.43059C7.11577 8.60207 7.07406 8.81472 7.03762 8.90308C6.89955 9.23802 6.84547 9.05495 6.85113 8.2718C6.85343 7.95664 6.85429 7.6752 6.85313 7.64631C6.84936 7.55463 6.72362 7.58982 6.70311 7.68831C6.69225 7.7403 6.67235 7.94773 6.6588 8.14933C6.63323 8.53143 6.54115 8.872 6.43432 8.97977C6.32208 9.093 6.28106 8.95251 6.3056 8.53878C6.32572 8.19931 6.51216 7.2222 6.57594 7.12204C6.58987 7.10016 6.66231 7.09297 6.73695 7.10604C6.81154 7.11906 7.12572 7.15081 7.4351 7.17651ZM17.4555 7.21582C17.6318 7.79704 17.7559 8.67629 17.6951 8.91177C17.5969 9.29149 17.3254 8.61917 17.3232 7.9907C17.3221 7.68318 17.2665 7.55861 17.1663 7.63934C17.1258 7.67193 17.1184 7.81741 17.1369 8.21913C17.1613 8.75298 17.135 9.06377 17.0652 9.06377C16.9908 9.06377 16.8911 8.72152 16.867 8.3833C16.8221 7.7508 16.8063 7.67781 16.7147 7.67781C16.6367 7.67781 16.6311 7.72052 16.62 8.40229C16.6098 9.02807 16.6004 9.11349 16.5509 9.02929C16.4556 8.867 16.3672 8.47616 16.3354 8.0768C16.3083 7.73652 16.2966 7.69881 16.2188 7.69881C16.1371 7.69881 16.1331 7.72165 16.1481 8.10859C16.1688 8.64433 16.1207 9.14777 16.0488 9.14777C15.9623 9.14777 15.8866 8.82778 15.8654 8.37196C15.8415 7.85941 15.8228 7.76181 15.7485 7.76181C15.7053 7.76181 15.6835 7.89045 15.6612 8.27629C15.6321 8.78007 15.5892 9.02273 15.5072 9.14655C15.4233 9.27309 15.3963 9.12328 15.3835 8.4618C15.369 7.71342 15.3626 7.66895 15.2738 7.70204C15.2332 7.71712 15.2024 7.82661 15.1824 8.02682C15.1272 8.5783 14.9711 9.17002 14.8932 9.12324C14.8682 9.10829 14.8546 8.81799 14.8597 8.40796C14.8643 8.02841 14.8565 7.70649 14.8422 7.69263C14.8279 7.67877 14.7893 7.67747 14.7563 7.68978C14.7133 7.70578 14.6882 7.83497 14.6678 8.14643C14.6257 8.78527 14.4992 9.23588 14.3914 9.13088C14.3731 9.11307 14.3623 8.77011 14.3673 8.36869C14.3724 7.96726 14.3617 7.62993 14.3436 7.61909C14.2619 7.57 14.2146 7.68869 14.1472 8.11229C14.0832 8.51514 13.9496 8.99132 13.8825 9.05654C13.8694 9.06918 13.864 8.6838 13.8705 8.20019L13.8822 7.32082L14.6178 7.29133C15.3461 7.26215 16.4098 7.18751 16.9111 7.1304C17.3321 7.08239 17.4191 7.09604 17.4555 7.21582ZM11.7596 7.43518C11.7966 7.4865 11.8269 7.60935 11.8269 7.70817V7.8878H11.439C11.0154 7.8878 10.9615 7.85697 10.9615 7.61481C10.9615 7.38197 11.0219 7.34182 11.3716 7.34182C11.6538 7.34182 11.7003 7.35299 11.7596 7.43518ZM12.9937 7.42304C13.0545 7.53329 13.0503 7.77554 12.9865 7.8374C12.954 7.86899 12.7923 7.8878 12.5538 7.8878H12.1731V7.70817C12.1731 7.60935 12.2034 7.4865 12.2404 7.43518C12.2997 7.35299 12.3462 7.34182 12.6284 7.34182C12.901 7.34182 12.9556 7.35395 12.9937 7.42304ZM6.15943 8.05227C6.0115 8.72572 5.94014 8.89577 5.80558 8.89577C5.6945 8.89577 5.3725 8.80963 5.32044 8.76595C5.29967 8.74857 5.50174 8.43916 5.76945 8.07839C6.03711 7.71762 6.26388 7.42993 6.27332 7.43909C6.28275 7.44828 6.23148 7.72422 6.15943 8.05227ZM18.2508 8.09943C18.5073 8.44865 18.7002 8.74924 18.6795 8.76738C18.637 8.80459 18.2724 8.89577 18.1661 8.89577C18.0703 8.89577 17.9865 8.68179 17.8384 8.05958C17.7035 7.49272 17.6912 7.40864 17.7479 7.4427C17.7679 7.45471 17.9942 7.75026 18.2508 8.09943ZM11.0253 7.59562C10.9682 7.68528 11.0788 7.72413 11.3554 7.71149C11.5668 7.70179 11.6322 7.68394 11.6322 7.63581C11.6322 7.58734 11.5657 7.56995 11.3439 7.56046C11.163 7.55273 11.0443 7.56584 11.0253 7.59562ZM12.3666 7.59562C12.3095 7.68528 12.4202 7.72413 12.6967 7.71149C12.9081 7.70179 12.9736 7.68394 12.9736 7.63581C12.9736 7.58734 12.907 7.56995 12.6852 7.56046C12.5044 7.55273 12.3856 7.56584 12.3666 7.59562ZM10.8708 8.01132C10.8686 8.04735 10.8417 8.17129 10.8111 8.28679L10.7555 8.49678L10.7517 8.13979C10.7483 7.81729 10.7541 7.7907 10.8115 7.86432C10.8464 7.90918 10.8731 7.97533 10.8708 8.01132ZM13.25 8.15029L13.2452 8.49678L13.1828 8.2455C13.1376 8.06394 13.1327 7.96781 13.165 7.89901C13.1896 7.84664 13.2198 7.8038 13.2323 7.8038C13.2446 7.8038 13.2526 7.95975 13.25 8.15029ZM12.509 8.11737C12.5153 8.12262 12.4713 8.23454 12.4113 8.36617L12.3023 8.60543L11.9914 8.59313L11.6805 8.58078L11.5847 8.34979L11.4889 8.11879L11.7336 8.0978C11.9511 8.07915 12.4792 8.09246 12.509 8.11737ZM11.3673 8.32942C11.4274 8.4568 11.4848 8.63164 11.495 8.71791C11.5051 8.80417 11.5268 8.90585 11.5432 8.94382C11.5683 9.00195 11.531 9.01761 11.3079 9.04273C11.1621 9.05919 11.0293 9.05961 11.013 9.04369C10.9728 9.00472 10.9759 8.35806 11.017 8.21329C11.0412 8.12808 11.077 8.0978 11.1539 8.0978C11.2382 8.0978 11.279 8.1421 11.3673 8.32942ZM12.9826 8.21329C13.0224 8.35533 13.0273 9.0043 12.9889 9.04176C12.9736 9.05671 12.8411 9.05575 12.6945 9.03966C12.472 9.01522 12.4328 8.99917 12.4573 8.9426C12.4734 8.90531 12.4949 8.80417 12.505 8.71791C12.5152 8.63164 12.5726 8.4568 12.6327 8.32942C12.721 8.1421 12.7618 8.0978 12.8461 8.0978C12.9231 8.0978 12.9587 8.12795 12.9826 8.21329ZM12.3029 8.81177C12.3029 8.83576 12.1731 8.85377 12 8.85377C11.8269 8.85377 11.6971 8.83576 11.6971 8.81177C11.6971 8.78779 11.8269 8.76978 12 8.76978C12.1731 8.76978 12.3029 8.78779 12.3029 8.81177ZM10.7758 9.07376C10.7654 9.12601 10.7566 9.09317 10.7561 9.00077C10.7556 8.90837 10.7641 8.86562 10.7749 8.90577C10.7857 8.94592 10.7861 9.02152 10.7758 9.07376ZM13.2421 9.07376C13.2318 9.12601 13.2229 9.09317 13.2224 9.00077C13.222 8.90837 13.2304 8.86562 13.2413 8.90577C13.2521 8.94592 13.2525 9.02152 13.2421 9.07376ZM9.886 9.15856C9.82667 9.21614 9.78262 9.12055 9.81824 9.01156L9.84878 8.91816L9.88725 9.01908C9.9101 9.07906 9.90962 9.13563 9.886 9.15856ZM14.1873 9.13634C14.1467 9.23907 14.0752 9.1423 14.1063 9.02677C14.1295 8.94058 14.138 8.93706 14.1734 8.99854C14.1957 9.03722 14.202 9.09921 14.1873 9.13634ZM8.83282 9.18363C8.76995 9.20694 8.75 9.16679 8.78298 9.08334C8.81171 9.01072 8.81469 9.01093 8.84312 9.08783C8.85956 9.13235 8.85493 9.17544 8.83282 9.18363ZM12.1731 9.23029C12.1731 9.4641 12.0948 9.54268 11.9243 9.48014C11.8411 9.44965 11.8269 9.4137 11.8269 9.23311V9.02177H12H12.1731V9.23029ZM15.2445 9.15827C15.2449 9.17561 15.2178 9.18976 15.1844 9.18976C15.144 9.18976 15.1314 9.16028 15.1471 9.1022C15.165 9.03567 15.1794 9.02811 15.2072 9.0707C15.2274 9.10152 15.2442 9.14092 15.2445 9.15827ZM7.71635 9.10577C7.71635 9.12887 7.69688 9.14777 7.67308 9.14777C7.64928 9.14777 7.62981 9.12887 7.62981 9.10577C7.62981 9.08267 7.64928 9.06377 7.67308 9.06377C7.69688 9.06377 7.71635 9.08267 7.71635 9.10577ZM16.3702 9.10577C16.3702 9.12887 16.3507 9.14777 16.3269 9.14777C16.3031 9.14777 16.2837 9.12887 16.2837 9.10577C16.2837 9.08267 16.3031 9.06377 16.3269 9.06377C16.3507 9.06377 16.3702 9.08267 16.3702 9.10577ZM8.27885 9.14777C8.27885 9.17086 8.25821 9.18976 8.23302 9.18976C8.20784 9.18976 8.19923 9.17086 8.21394 9.14777C8.22865 9.12467 8.24925 9.10577 8.25976 9.10577C8.27028 9.10577 8.27885 9.12467 8.27885 9.14777ZM15.7861 9.14777C15.8008 9.17086 15.7922 9.18976 15.767 9.18976C15.7418 9.18976 15.7212 9.17086 15.7212 9.14777C15.7212 9.12467 15.7297 9.10577 15.7402 9.10577C15.7508 9.10577 15.7713 9.12467 15.7861 9.14777ZM11.6106 9.47741C11.6106 9.63562 11.598 9.90967 11.5826 10.0864L11.5546 10.4077H11.2615H10.9684L10.9378 10.1304C10.9116 9.89278 10.9393 9.3234 10.9789 9.28493C10.9902 9.27393 11.4056 9.20917 11.5565 9.19489C11.595 9.19123 11.6106 9.27254 11.6106 9.47741ZM12.8273 9.2518C13.027 9.27725 13.0272 9.27742 13.0545 9.47036C13.0892 9.7163 13.0891 9.96577 13.0542 10.2129L13.0267 10.4077H12.7361H12.4454L12.4174 10.0864C12.402 9.90967 12.3894 9.63411 12.3894 9.4741V9.18309L12.5084 9.20471C12.5738 9.21664 12.7174 9.23781 12.8273 9.2518ZM10.7456 9.85124C10.746 10.2993 10.8188 11.132 10.8749 11.3294C10.9339 11.5375 10.8963 11.5358 10.7814 11.3253C10.6891 11.156 10.6807 11.0823 10.6663 10.3132C10.6555 9.73319 10.665 9.48376 10.698 9.48376C10.7284 9.48376 10.7453 9.61416 10.7456 9.85124ZM13.3337 10.3132C13.3193 11.0823 13.3109 11.156 13.2186 11.3253C13.1038 11.5356 13.0671 11.5372 13.123 11.3294C13.1824 11.1084 13.206 10.8665 13.2385 10.1452C13.2817 9.18783 13.3524 9.31261 13.3337 10.3132ZM12.1806 9.80379C12.1552 10.0202 11.9339 10.0505 11.8357 9.85108C11.7597 9.69677 11.7845 9.67174 12.0066 9.67834C12.1868 9.68367 12.1941 9.68896 12.1806 9.80379ZM12.2358 10.2551C12.2461 10.3044 12.2813 10.5999 12.314 10.9117C12.3729 11.4713 12.3724 11.4806 12.2793 11.6263C12.2273 11.7075 12.153 11.7996 12.1141 11.8309C12.0751 11.8623 12.0432 11.9187 12.0431 11.9563C12.0428 12.0325 11.8956 11.8794 11.7252 11.6257C11.6265 11.4789 11.6265 11.4778 11.686 10.9117C11.7708 10.1038 11.7449 10.1654 12 10.1654C12.1871 10.1654 12.2198 10.1779 12.2358 10.2551ZM11.5027 10.9432C11.4613 11.4112 11.459 11.4157 11.2644 11.4157C11.143 11.4157 11.0907 11.3956 11.0736 11.3422C11.0525 11.2765 10.9646 10.7284 10.9624 10.6492C10.9619 10.6319 11.0897 10.6177 11.2465 10.6177H11.5314L11.5027 10.9432ZM13.017 10.8172C13.0023 10.927 12.9699 11.1065 12.9451 11.2162C12.9009 11.4119 12.8968 11.4157 12.7342 11.4157C12.5412 11.4157 12.5386 11.4107 12.4973 10.9432L12.4686 10.6177H12.7562H13.0438L13.017 10.8172ZM10.6596 11.5014C10.7086 11.5947 10.792 11.6871 10.8448 11.7065C10.9108 11.7309 10.9576 11.8024 10.994 11.9346C11.0719 12.2174 11.254 12.3977 11.4643 12.4002C11.5567 12.4013 11.6789 12.386 11.736 12.3661C11.8351 12.3317 11.8384 12.3363 11.8109 12.47C11.795 12.5471 11.7663 12.6253 11.747 12.6441C11.7277 12.6628 11.5991 12.6122 11.4613 12.5317C11.1473 12.3482 10.8888 12.3052 10.6492 12.3965L10.4728 12.4638L10.5008 12.0803C10.5162 11.8694 10.5288 11.6146 10.5288 11.5142C10.5288 11.4139 10.5382 11.3317 10.5496 11.3317C10.561 11.3317 10.6105 11.4081 10.6596 11.5014ZM13.4913 11.9073L13.522 12.4618L13.3482 12.3955C13.1113 12.3052 12.8514 12.3489 12.5387 12.5317C12.4009 12.6122 12.2723 12.6628 12.253 12.6441C12.2337 12.6253 12.205 12.5471 12.1891 12.47C12.1616 12.3363 12.1649 12.3317 12.264 12.3661C12.3211 12.386 12.4433 12.4013 12.5357 12.4002C12.746 12.3977 12.9281 12.2174 13.006 11.9346C13.0424 11.8024 13.0892 11.7309 13.1552 11.7065C13.208 11.6871 13.2924 11.5929 13.3426 11.4973C13.3928 11.4018 13.4399 11.3301 13.4472 11.3381C13.4546 11.3461 13.4744 11.6023 13.4913 11.9073ZM11.7015 11.9095C11.7467 11.9616 11.7837 12.0217 11.7837 12.043C11.7837 12.1267 11.6403 12.2137 11.5023 12.2137C11.3253 12.2137 11.181 12.0437 11.1466 11.7948C11.1246 11.6356 11.1274 11.6314 11.27 11.6164C11.418 11.6008 11.4574 11.6276 11.7015 11.9095ZM12.8538 11.7917C12.8194 12.0411 12.6752 12.2137 12.5014 12.2137C12.4156 12.2137 12.3293 12.1812 12.2829 12.1315C12.2089 12.0521 12.2118 12.0419 12.3664 11.8375C12.513 11.6436 12.5414 11.6257 12.7017 11.6257H12.8768L12.8538 11.7917ZM12.0433 12.1507C12.0433 12.1853 12.0238 12.2137 12 12.2137C11.9762 12.2137 11.9567 12.1853 11.9567 12.1507C11.9567 12.116 11.9762 12.0877 12 12.0877C12.0238 12.0877 12.0433 12.116 12.0433 12.1507ZM11.322 12.6703C11.437 12.731 11.6025 12.8178 11.6898 12.8632C11.9614 13.0045 12.1786 12.9657 12.6274 12.6958C12.9064 12.5281 13.099 12.4918 13.2761 12.5734C13.4882 12.671 13.5245 12.8282 13.4424 13.2946C13.4068 13.497 13.3646 13.6756 13.3487 13.6914C13.3027 13.737 12.7135 13.4969 12.5323 13.3587C12.321 13.1974 12.115 13.0957 12 13.0957C11.8857 13.0957 11.6793 13.1972 11.4715 13.3557C11.3832 13.4231 11.1982 13.5222 11.0605 13.5759C10.5901 13.7592 10.6323 13.7778 10.5682 13.3595C10.4983 12.9033 10.505 12.771 10.6033 12.6649C10.7729 12.4818 10.9675 12.4832 11.322 12.6703ZM12.0558 12.6757C12.0723 12.7369 12.0571 12.7597 12 12.7597C11.9429 12.7597 11.9277 12.7369 11.9442 12.6757C11.9566 12.6295 11.9817 12.5917 12 12.5917C12.0183 12.5917 12.0434 12.6295 12.0558 12.6757ZM10.7648 12.7868C10.6403 12.9171 10.6303 13.0368 10.7319 13.1808C10.8294 13.3191 10.8751 13.3463 11.0121 13.347C11.1875 13.348 11.2612 13.3075 11.3344 13.17C11.4642 12.9266 11.3144 12.6757 11.0393 12.6757C10.9127 12.6757 10.8445 12.7033 10.7648 12.7868ZM12.7486 12.7387C12.6211 12.8254 12.5845 13.0179 12.6663 13.1715C12.7388 13.3076 12.8129 13.348 12.9879 13.347C13.1249 13.3463 13.1706 13.3191 13.2681 13.1808C13.3697 13.0368 13.3597 12.9171 13.2353 12.7868C13.1131 12.6589 12.8974 12.6375 12.7486 12.7387ZM11.1562 12.9861C11.1562 13.1372 11.0422 13.2201 10.9435 13.1406C10.8084 13.0317 10.8971 12.8286 11.0692 12.8526C11.1335 12.8615 11.1562 12.8965 11.1562 12.9861ZM13.0565 12.8692C13.1449 12.9021 13.1449 13.0694 13.0565 13.1406C12.9322 13.2406 12.7737 13.0686 12.8387 12.9042C12.8641 12.84 12.9439 12.8272 13.0565 12.8692ZM12.0433 13.3056C12.0433 13.3287 12.0238 13.3476 12 13.3476C11.9762 13.3476 11.9567 13.3287 11.9567 13.3056C11.9567 13.2825 11.9762 13.2636 12 13.2636C12.0238 13.2636 12.0433 13.2825 12.0433 13.3056ZM11.8531 13.5374C12.0076 13.7664 11.823 14.1125 11.4591 14.276C11.1445 14.4174 11.1276 14.393 11.2727 14.0067C11.364 13.7637 11.6296 13.4316 11.7327 13.4316C11.7596 13.4316 11.8138 13.4793 11.8531 13.5374ZM12.4743 13.5929C12.6123 13.7337 12.8221 14.1647 12.8221 14.3074C12.8221 14.3751 12.7415 14.3661 12.5409 14.276C12.177 14.1125 11.9924 13.7664 12.1469 13.5374C12.2427 13.3956 12.2885 13.4033 12.4743 13.5929ZM11.1131 13.8621C11.0957 13.9141 11.0516 14.0704 11.0151 14.2095C10.9707 14.3787 10.9138 14.4881 10.8432 14.5398C10.6908 14.6514 10.6526 14.5834 10.6674 14.2266L10.6803 13.9167L10.875 13.8444C11.1314 13.7493 11.1504 13.7507 11.1131 13.8621ZM13.1638 13.8553L13.3413 13.9069V14.2338C13.3413 14.4136 13.322 14.5722 13.2985 14.5864C13.2031 14.6436 13.0507 14.4603 12.9849 14.2095C12.9484 14.0704 12.9035 13.9109 12.885 13.855C12.8579 13.773 12.8644 13.7583 12.9188 13.7786C12.9559 13.7924 13.0661 13.8269 13.1638 13.8553ZM12.0433 14.1456C12.0433 14.1687 12.0238 14.1876 12 14.1876C11.9762 14.1876 11.9567 14.1687 11.9567 14.1456C11.9567 14.1225 11.9762 14.1036 12 14.1036C12.0238 14.1036 12.0433 14.1225 12.0433 14.1456ZM12.0903 14.632C12.1044 14.7687 12.13 14.9231 12.1474 14.9751C12.1767 15.0629 12.1661 15.0696 11.9983 15.0696C11.8438 15.0696 11.822 15.059 11.8475 14.9961C11.8639 14.9557 11.8871 14.8187 11.899 14.6916C11.9267 14.3964 11.9444 14.3447 12.0109 14.366C12.0418 14.3759 12.0758 14.4898 12.0903 14.632ZM11.7361 14.5551C11.73 14.7189 11.6765 14.8874 11.6463 14.8382C11.599 14.7612 11.5606 14.526 11.5883 14.4826C11.6456 14.3927 11.7404 14.4392 11.7361 14.5551ZM12.4046 14.5993C12.4011 14.6739 12.3838 14.7677 12.3662 14.8078C12.3388 14.8701 12.3295 14.8655 12.3012 14.7756C12.2831 14.7179 12.2663 14.6173 12.2639 14.552C12.2606 14.4602 12.2767 14.4369 12.3353 14.4486C12.3904 14.4595 12.4093 14.5007 12.4046 14.5993ZM11.3852 14.6331C11.3952 14.6987 11.3498 14.7309 11.1579 14.7942C10.9083 14.8765 10.8461 14.8673 10.8906 14.7546C10.9187 14.6836 11.2569 14.5169 11.3293 14.5384C11.3531 14.5454 11.3783 14.5881 11.3852 14.6331ZM12.9115 14.6128C13.0588 14.6743 13.125 14.7264 13.125 14.7808C13.125 14.8781 13.0843 14.8789 12.8171 14.7867C12.6202 14.7189 12.5524 14.6315 12.6346 14.5516C12.6742 14.5132 12.6714 14.5126 12.9115 14.6128ZM11.4957 14.9942C11.5094 15.0452 11.5165 15.09 11.5115 15.0938C11.5065 15.0976 11.3598 15.1102 11.1856 15.1218C10.8353 15.145 10.829 15.1116 11.1598 14.9861C11.4344 14.8821 11.4656 14.8829 11.4957 14.9942ZM12.8413 14.9883C12.9726 15.036 13.0897 15.0901 13.1015 15.1086C13.1183 15.1351 12.524 15.1207 12.4885 15.0938C12.4641 15.0753 12.5341 14.9016 12.5659 14.9016C12.586 14.9016 12.71 14.9406 12.8413 14.9883ZM12.859 15.3066C13.0405 15.325 13.125 15.3517 13.125 15.3905C13.125 15.4371 12.9181 15.4476 11.9964 15.4476C11.1129 15.4476 10.8717 15.4362 10.8856 15.3951C10.8954 15.3662 10.9798 15.3311 11.0731 15.3171C11.3108 15.2813 12.5387 15.2741 12.859 15.3066ZM12.9952 15.8886C12.9952 16.0556 12.9776 16.1171 12.9242 16.137C12.7981 16.184 12.6923 16.1221 12.692 16.0013C12.6919 15.9393 12.6644 15.8376 12.631 15.7754C12.5705 15.663 12.5712 15.6621 12.7286 15.6489C12.9768 15.6281 12.9952 15.6447 12.9952 15.8886ZM11.3737 15.7815C11.3374 15.8496 11.3077 15.9516 11.3077 16.008C11.3077 16.1204 11.2108 16.1774 11.0852 16.1387C11.0199 16.1186 11.0048 16.0713 11.0048 15.8858V15.6576H11.2223H11.4397L11.3737 15.7815ZM12.4055 15.7957C12.5659 16.0047 12.4834 16.7352 12.2801 16.907C12.0364 17.1129 11.6386 16.9791 11.5879 16.6742C11.5737 16.5886 11.542 16.4296 11.5176 16.3209C11.4651 16.0879 11.4966 15.9127 11.6181 15.7628C11.7001 15.6617 11.7274 15.6549 12.0109 15.6663C12.287 15.6774 12.324 15.6896 12.4055 15.7957ZM11.352 16.4373C11.3752 16.4965 11.3942 16.596 11.3942 16.6584C11.3942 16.7208 11.4347 16.8451 11.4842 16.9347C11.5736 17.0966 11.5736 17.0981 11.4891 17.1801C11.4424 17.2254 11.3094 17.2796 11.1937 17.3003C11.0779 17.3211 10.9345 17.3719 10.875 17.4132C10.7018 17.5334 10.5343 17.906 10.4858 18.2788C10.4621 18.4616 10.4318 18.6216 10.4186 18.6345C10.4054 18.6473 10.4005 18.1891 10.4076 17.6161L10.4207 16.5745L10.562 16.452C10.6896 16.3414 10.7327 16.3296 11.0066 16.3296C11.2923 16.3296 11.3123 16.3358 11.352 16.4373ZM13.438 16.452L13.5793 16.5745L13.5924 17.6161C13.5995 18.1891 13.5946 18.6473 13.5814 18.6345C13.5682 18.6216 13.5379 18.4616 13.5142 18.2788C13.4657 17.906 13.2982 17.5334 13.125 17.4132C13.0655 17.3719 12.9221 17.3211 12.8063 17.3003C12.6906 17.2796 12.5576 17.2254 12.5109 17.1801C12.4264 17.0981 12.4264 17.0966 12.5158 16.9347C12.5653 16.8451 12.6058 16.7208 12.6058 16.6584C12.6058 16.596 12.6248 16.4965 12.648 16.4373C12.6877 16.3358 12.7077 16.3296 12.9934 16.3296C13.2673 16.3296 13.3104 16.3414 13.438 16.452ZM12.3241 17.2681C12.4016 17.3828 12.5643 17.4635 12.7181 17.4635C13.031 17.4635 13.278 17.8096 13.3268 18.3161C13.358 18.64 13.3075 18.6825 13.1905 18.4308C13.1479 18.3391 12.9813 18.1407 12.8203 17.9898C12.5727 17.7577 12.5042 17.7155 12.3751 17.7155C12.1931 17.7155 12.0433 17.8697 12.0433 18.0572C12.0433 18.1234 12.0238 18.1775 12 18.1775C11.9762 18.1775 11.9567 18.1234 11.9567 18.0572C11.9567 17.8699 11.8069 17.7155 11.6253 17.7155C11.4983 17.7155 11.4285 17.7572 11.2006 17.9697C11.0506 18.1094 10.882 18.3079 10.8258 18.4106C10.7696 18.5134 10.7063 18.5975 10.6849 18.5975C10.6632 18.5975 10.658 18.4735 10.6732 18.3161C10.7209 17.8206 10.975 17.4635 11.2799 17.4635C11.4356 17.4635 11.5981 17.3833 11.6759 17.2681C11.7333 17.1829 11.7775 17.1695 12 17.1695C12.2225 17.1695 12.2667 17.1829 12.3241 17.2681ZM11.7415 17.9912C11.7647 18.0505 11.7837 18.1988 11.7837 18.3207C11.7837 18.5593 11.7253 18.6451 11.524 18.7023C11.4645 18.7193 11.344 18.7716 11.2561 18.8187C11.1048 18.8997 11.0904 18.9005 10.9856 18.8339C10.8564 18.7517 10.8552 18.7424 10.9525 18.5765C10.9943 18.5053 11.0625 18.4505 11.1094 18.4505C11.1684 18.4505 11.2099 18.3993 11.2532 18.2731C11.3149 18.0936 11.5216 17.8835 11.6366 17.8835C11.6711 17.8835 11.7182 17.932 11.7415 17.9912ZM12.575 18.0003C12.6384 18.0645 12.717 18.192 12.7497 18.2838C12.7909 18.3993 12.8344 18.4505 12.8914 18.4505C13.0051 18.4505 13.1492 18.7076 13.0805 18.788C12.9922 18.8912 12.8694 18.9006 12.7241 18.8153C12.6471 18.7701 12.5355 18.7192 12.476 18.7023C12.2748 18.6451 12.2163 18.5593 12.2163 18.3207C12.2163 17.8924 12.3504 17.7726 12.575 18.0003ZM12.0433 18.5692C12.0433 18.6408 12.1988 18.7784 12.3806 18.8677C12.5214 18.9368 12.5231 18.941 12.5104 19.1981L12.4976 19.4585H12H11.5024L11.4896 19.1981C11.4769 18.941 11.4786 18.9368 11.6194 18.8677C11.8012 18.7784 11.9567 18.6408 11.9567 18.5692C11.9567 18.5386 11.9762 18.5135 12 18.5135C12.0238 18.5135 12.0433 18.5386 12.0433 18.5692ZM10.7574 18.8948C10.8463 18.966 10.9078 19.0419 10.8941 19.0635C10.8474 19.1368 10.5341 19.2688 10.4665 19.2436C10.3752 19.2096 10.378 18.9417 10.4706 18.8423C10.5638 18.7424 10.5677 18.7431 10.7574 18.8948ZM13.5218 18.835C13.6228 18.9237 13.6309 19.2073 13.5335 19.2436C13.4659 19.2688 13.1526 19.1368 13.1059 19.0635C13.0847 19.0302 13.3669 18.7655 13.4235 18.7655C13.4341 18.7655 13.4783 18.7968 13.5218 18.835ZM11.3212 19.6978C11.3361 20.0488 11.3435 20.3407 11.3378 20.3462C11.3321 20.3518 11.211 20.3012 11.0688 20.2338C10.9265 20.1664 10.776 20.1109 10.7344 20.1104C10.6686 20.1096 10.6587 20.0651 10.6587 19.774V19.4386L10.8425 19.3267C10.9437 19.2651 11.0751 19.1809 11.1346 19.1395C11.1941 19.098 11.2544 19.0631 11.2685 19.0618C11.2827 19.0605 11.3064 19.3467 11.3212 19.6978ZM12.8563 19.1398C12.9208 19.184 13.0563 19.2692 13.1575 19.3293L13.3413 19.4385V19.774C13.3413 20.0651 13.3314 20.1096 13.2656 20.1104C13.224 20.1109 13.0735 20.1664 12.9312 20.2338C12.789 20.3012 12.6679 20.3518 12.6622 20.3462C12.645 20.3295 12.7044 19.0595 12.7224 19.0595C12.7316 19.0595 12.7918 19.0956 12.8563 19.1398ZM12.5084 19.7C12.4954 19.7378 12.3539 19.7525 12 19.7525C11.6461 19.7525 11.5046 19.7378 11.4916 19.7C11.4778 19.6599 11.5981 19.6475 12 19.6475C12.4019 19.6475 12.5222 19.6599 12.5084 19.7ZM11.9033 21.1012C11.9132 22.0726 11.9053 22.2477 11.8498 22.2924C11.7664 22.3596 11.578 22.315 11.5596 22.2237C11.5519 22.1853 11.5512 21.655 11.5579 21.0453L11.5701 19.9365L11.731 19.9495L11.8918 19.9625L11.9033 21.1012ZM12.4327 21.1166V22.2918L12.324 22.3183C12.0935 22.3744 12.0865 22.3396 12.0865 21.1193C12.0865 20.5023 12.0995 19.9848 12.1154 19.9695C12.1312 19.9541 12.2091 19.9415 12.2885 19.9415H12.4327V21.1166ZM11.1334 20.4698L11.351 20.5848L11.3508 21.3656L11.3507 22.1464H10.903H10.4552L10.4283 21.333C10.3999 20.4767 10.4143 20.3843 10.5854 20.3229C10.702 20.281 10.8522 20.3213 11.1334 20.4698ZM13.5378 20.4211C13.5876 20.4949 13.5939 20.6627 13.5718 21.329L13.5448 22.1464H13.097H12.6493L12.6492 21.3652L12.649 20.584L12.9195 20.455C13.3312 20.2586 13.4246 20.2535 13.5378 20.4211ZM11.2673 22.3369C11.3327 22.3709 11.351 22.4257 11.351 22.5888V22.7974H10.9159H10.4808L10.494 22.5989C10.5048 22.436 10.5266 22.3909 10.6154 22.3475C10.7465 22.2834 11.1516 22.2768 11.2673 22.3369ZM13.3846 22.3475C13.4734 22.3909 13.4952 22.436 13.506 22.5989L13.5192 22.7974H13.0841H12.649V22.6266C12.649 22.3393 12.6986 22.2933 13.0075 22.294C13.1554 22.2944 13.3251 22.3184 13.3846 22.3475ZM11.9135 22.6033C11.9135 22.7366 11.8109 22.8131 11.676 22.7803C11.5903 22.7594 11.5673 22.7273 11.5673 22.6286C11.5673 22.5105 11.5772 22.5034 11.7404 22.5034C11.8938 22.5034 11.9135 22.5147 11.9135 22.6033ZM12.4327 22.6286C12.4327 22.7273 12.4097 22.7594 12.324 22.7803C12.1891 22.8131 12.0865 22.7366 12.0865 22.6033C12.0865 22.5147 12.1062 22.5034 12.2596 22.5034C12.4228 22.5034 12.4327 22.5105 12.4327 22.6286Z" fill="black"/>
<path d="M11.352 16.4373C11.3752 16.4965 11.3942 16.596 11.3942 16.6584C11.3942 16.7208 11.4347 16.8451 11.4842 16.9347C11.5736 17.0966 11.5736 17.0981 11.4891 17.1801C11.4424 17.2254 11.3094 17.2796 11.1937 17.3003C11.0779 17.3211 10.9345 17.3719 10.875 17.4132C10.7018 17.5334 10.5343 17.906 10.4858 18.2788C10.4621 18.4616 10.4318 18.6216 10.4186 18.6345C10.4054 18.6473 10.4005 18.1891 10.4076 17.6161L10.4207 16.5745L10.562 16.452C10.6896 16.3414 10.7327 16.3296 11.0066 16.3296C11.2923 16.3296 11.3123 16.3358 11.352 16.4373Z" fill="black"/>
<path d="M11.3737 15.7815C11.3374 15.8496 11.3077 15.9516 11.3077 16.008C11.3077 16.1204 11.2108 16.1774 11.0852 16.1387C11.0199 16.1186 11.0048 16.0713 11.0048 15.8858V15.6576H11.2223H11.4397L11.3737 15.7815Z" fill="black"/>
<path d="M12.9952 15.8886C12.9952 16.0556 12.9776 16.1171 12.9242 16.137C12.7981 16.184 12.6923 16.1221 12.692 16.0013C12.6919 15.9393 12.6644 15.8376 12.631 15.7754C12.5705 15.663 12.5712 15.6621 12.7286 15.6489C12.9768 15.6281 12.9952 15.6447 12.9952 15.8886Z" fill="black"/>
<path d="M13.438 16.452L13.5793 16.5745L13.5924 17.6161C13.5995 18.1891 13.5946 18.6473 13.5814 18.6345C13.5682 18.6216 13.5379 18.4616 13.5142 18.2788C13.4657 17.906 13.2982 17.5334 13.125 17.4132C13.0655 17.3719 12.9221 17.3211 12.8063 17.3003C12.6906 17.2796 12.5576 17.2254 12.5109 17.1801C12.4264 17.0981 12.4264 17.0966 12.5158 16.9347C12.5653 16.8451 12.6058 16.7208 12.6058 16.6584C12.6058 16.596 12.6248 16.4965 12.648 16.4373C12.6877 16.3358 12.7077 16.3296 12.9934 16.3296C13.2673 16.3296 13.3104 16.3414 13.438 16.452Z" fill="black"/>
<path d="M12.8563 19.1398C12.9208 19.184 13.0563 19.2692 13.1575 19.3293L13.3413 19.4385V19.774C13.3413 20.0651 13.3314 20.1096 13.2656 20.1104C13.224 20.1109 13.0735 20.1664 12.9312 20.2338C12.789 20.3012 12.6679 20.3518 12.6622 20.3462C12.645 20.3295 12.7044 19.0595 12.7224 19.0595C12.7316 19.0595 12.7918 19.0956 12.8563 19.1398Z" fill="black"/>
<path d="M13.5218 18.835C13.6228 18.9237 13.6309 19.2073 13.5335 19.2436C13.4659 19.2688 13.1526 19.1368 13.1059 19.0635C13.0847 19.0302 13.3669 18.7655 13.4235 18.7655C13.4341 18.7655 13.4783 18.7968 13.5218 18.835Z" fill="black"/>
<path d="M11.3212 19.6978C11.3361 20.0488 11.3435 20.3407 11.3378 20.3462C11.3321 20.3518 11.211 20.3012 11.0688 20.2338C10.9265 20.1664 10.776 20.1109 10.7344 20.1104C10.6686 20.1096 10.6587 20.0651 10.6587 19.774V19.4386L10.8425 19.3267C10.9437 19.2651 11.0751 19.1809 11.1346 19.1395C11.1941 19.098 11.2544 19.0631 11.2685 19.0618C11.2827 19.0605 11.3064 19.3467 11.3212 19.6978Z" fill="black"/>
<path d="M11.1334 20.4698L11.351 20.5848L11.3508 21.3656L11.3507 22.1464H10.903H10.4552L10.4283 21.333C10.3999 20.4767 10.4143 20.3843 10.5854 20.3229C10.702 20.281 10.8522 20.3213 11.1334 20.4698Z" fill="black"/>
<path d="M13.5378 20.4211C13.5876 20.4949 13.5939 20.6627 13.5718 21.329L13.5448 22.1464H13.097H12.6493L12.6492 21.3652L12.649 20.584L12.9195 20.455C13.3312 20.2586 13.4246 20.2535 13.5378 20.4211Z" fill="black"/>
<path d="M13.3846 22.3475C13.4734 22.3909 13.4952 22.436 13.506 22.5989L13.5192 22.7974H13.0841H12.649V22.6266C12.649 22.3393 12.6986 22.2933 13.0075 22.294C13.1554 22.2944 13.3251 22.3184 13.3846 22.3475Z" fill="black"/>
<path d="M11.2673 22.3369C11.3327 22.3709 11.351 22.4257 11.351 22.5888V22.7974H10.9159H10.4808L10.494 22.5989C10.5048 22.436 10.5266 22.3909 10.6154 22.3475C10.7465 22.2834 11.1516 22.2768 11.2673 22.3369Z" fill="black"/>
<path d="M10.7574 18.8948C10.8463 18.966 10.9078 19.0419 10.8941 19.0635C10.8474 19.1368 10.5341 19.2688 10.4665 19.2436C10.3752 19.2096 10.378 18.9417 10.4706 18.8423C10.5638 18.7424 10.5677 18.7431 10.7574 18.8948Z" fill="black"/>
<path fill-rule="evenodd" clip-rule="evenodd" d="M12.2619 1.49349C12.3764 1.83254 12.4123 1.88197 12.5436 1.88197C12.6639 1.88197 12.6851 1.85258 12.7503 1.59638C12.7931 1.42788 12.8176 1.39706 12.9174 1.38589C12.9816 1.3787 13.0767 1.39487 13.1286 1.42188C13.2163 1.46736 13.2211 1.49189 13.1955 1.75883C13.169 2.03565 13.1729 2.0522 13.2967 2.18907L13.4255 2.3314L13.0002 2.35656C12.7663 2.37038 12.4845 2.40381 12.374 2.43081L12.1731 2.47991V2.81561V3.1513L12.3353 3.1151C12.4246 3.09524 12.6339 3.07949 12.8005 3.08016C13.0529 3.08117 13.1421 3.102 13.3359 3.20515L13.5684 3.32892L13.5417 3.60292C13.5271 3.75361 13.5149 3.94546 13.5147 4.0292L13.5144 4.18149L13.2693 4.20123C13.0549 4.21849 13.0061 4.24012 12.8799 4.3738C12.8005 4.45789 12.7356 4.56633 12.7356 4.61479C12.7356 4.66561 12.7127 4.69627 12.6815 4.68724C12.5842 4.65906 12.3915 4.22068 12.3078 3.83689C12.2478 3.56188 12.2 3.44063 12.1297 3.38541C12.0769 3.34391 12.0185 3.30993 12 3.30993C11.9815 3.30993 11.9231 3.34391 11.8703 3.38541C11.8 3.44063 11.7522 3.56188 11.6922 3.83689C11.6085 4.22068 11.4158 4.65906 11.3185 4.68724C11.2873 4.69627 11.2644 4.66561 11.2644 4.61479C11.2644 4.56633 11.1995 4.45789 11.1201 4.3738C10.9939 4.24012 10.9451 4.21849 10.7307 4.20123L10.4856 4.18149L10.4853 4.0292C10.4851 3.94546 10.4727 3.75096 10.4577 3.59704L10.4305 3.31716L10.6635 3.20221C10.9155 3.07802 11.282 3.04505 11.643 3.11414L11.8269 3.14933V2.81464V2.47991L11.626 2.43081C11.5155 2.40381 11.2337 2.37038 10.9998 2.35656L10.5745 2.3314L10.7053 2.18676C10.8318 2.04699 10.8352 2.0325 10.8072 1.75623C10.7802 1.49109 10.785 1.46677 10.872 1.42154C10.9236 1.39475 11.0184 1.3787 11.0826 1.38589C11.1824 1.39706 11.2069 1.42788 11.2497 1.59638C11.3149 1.85258 11.3361 1.88197 11.4564 1.88197C11.5879 1.88197 11.6243 1.83221 11.741 1.49349C11.8386 1.21016 11.8387 1.20999 12.0023 1.20999H12.166L12.2619 1.49349ZM10.7178 3.56424C10.732 3.47759 10.7893 3.37528 10.8543 3.32043C11.026 3.17562 11.2695 3.19078 11.412 3.35517C11.6545 3.63479 11.4875 3.98191 11.1105 3.98191C10.9561 3.98191 10.907 3.96003 10.8097 3.84773C10.7151 3.7387 10.6979 3.68561 10.7178 3.56424ZM12.5822 3.87881C12.432 3.73303 12.4355 3.48662 12.59 3.33664C12.8243 3.10926 13.2295 3.24248 13.2822 3.56424C13.3021 3.68561 13.2849 3.7387 13.1903 3.84773C13.0916 3.96167 13.045 3.98191 12.8812 3.98191C12.7341 3.98191 12.6631 3.95743 12.5822 3.87881Z" fill="black"/>
<path d="M7.93269 6.87697V7.03548L7.70553 7.01876C7.43726 6.99902 7.19712 6.96521 7.19712 6.9472C7.19712 6.94014 7.21676 6.87958 7.24073 6.81259C7.2843 6.691 7.28478 6.69084 7.60852 6.70465L7.93269 6.71847V6.87697Z" fill="black"/>
<path d="M6.98362 6.62931C7.08613 6.68256 7.08959 6.7443 6.9957 6.84501C6.86364 6.98668 6.50481 6.90146 6.50481 6.72843C6.50481 6.60465 6.81327 6.54082 6.98362 6.62931Z" fill="black"/>
<path d="M8.69133 6.86933C8.67493 6.95597 8.64845 7.03884 8.63244 7.0535C8.61643 7.06819 8.49138 7.07059 8.35457 7.05883L8.10577 7.03741V6.87462V6.71184H8.41346H8.72119L8.69133 6.86933Z" fill="black"/>
<path d="M9.28083 6.90083L9.29628 7.08982H9.06881C8.82079 7.08982 8.81037 7.07512 8.90404 6.85749C8.95839 6.7312 8.98656 6.71184 9.11602 6.71184C9.26184 6.71184 9.26569 6.71625 9.28083 6.90083Z" fill="black"/>
<path d="M9.9461 6.77269C10.215 6.88176 10.1087 7.08982 9.7841 7.08982C9.62054 7.08982 9.44712 6.99029 9.44712 6.89642C9.44712 6.86198 9.51042 6.80709 9.58774 6.77446C9.76506 6.69966 9.76597 6.69966 9.9461 6.77269Z" fill="black"/>
<path d="M10.5721 7.93274V9.2796L10.4748 9.2662L10.3774 9.25276L10.3659 7.9718C10.3554 6.80482 10.361 6.68617 10.4282 6.63834C10.4689 6.60948 10.5179 6.58584 10.5371 6.58584C10.5564 6.58584 10.5721 7.19192 10.5721 7.93274Z" fill="black"/>
<path d="M13.1035 6.23191C13.2545 6.46102 13.2548 6.46249 13.2542 6.95413C13.2537 7.28776 13.2399 7.42649 13.2115 7.38382C13.1885 7.34917 13.1693 7.2002 13.1689 7.05278C13.168 6.66484 12.9793 6.40831 12.6707 6.37538C12.4846 6.35556 12.476 6.36799 12.4744 6.65934C12.473 6.92641 12.4693 6.93674 12.4111 6.83783C12.377 6.78008 12.3485 6.6834 12.3477 6.62301C12.3468 6.56261 12.3058 6.46337 12.2565 6.40251C12.0661 6.16753 11.6566 6.31696 11.6523 6.62301C11.6515 6.6834 11.623 6.78008 11.5889 6.83783C11.5306 6.93682 11.527 6.92687 11.5256 6.66282C11.5239 6.35728 11.4968 6.32461 11.2916 6.38084C10.9756 6.46749 10.8321 6.68391 10.8311 7.07517C10.8307 7.21028 10.8115 7.34917 10.7885 7.38382C10.7601 7.42644 10.7463 7.28684 10.7458 6.95165C10.7453 6.53733 10.7583 6.43784 10.8255 6.34267C10.8697 6.28005 10.9376 6.17786 10.9765 6.11558L11.047 6.00231H11.9996H12.9522L13.1035 6.23191Z" fill="black"/>
<path d="M11.351 6.83913C11.351 7.00515 11.3323 7.09801 11.2969 7.10864C11.2671 7.11754 11.1866 7.13682 11.1179 7.15156L10.993 7.17827L11.0155 6.98445C11.0296 6.86303 11.0751 6.75236 11.1371 6.68823C11.3011 6.51881 11.351 6.55396 11.351 6.83913Z" fill="black"/>
<path d="M12.1283 6.54107C12.1529 6.58576 12.1739 6.6661 12.1749 6.71956C12.1759 6.77307 12.2122 6.88147 12.2555 6.96047L12.3343 7.1041L12.1672 7.25845L12 7.4128L11.8328 7.25845L11.6657 7.1041L11.7445 6.96047C11.7878 6.88147 11.8241 6.77307 11.8251 6.71956C11.8278 6.57517 11.9055 6.45984 12 6.45984C12.0459 6.45984 12.1036 6.49638 12.1283 6.54107Z" fill="black"/>
<path d="M12.8629 6.68823C12.9249 6.75236 12.9704 6.86303 12.9845 6.98445L13.007 7.17827L12.8821 7.15156C12.6409 7.0999 12.644 7.10415 12.6538 6.83829C12.6643 6.55812 12.7071 6.52733 12.8629 6.68823Z" fill="black"/>
<path fill-rule="evenodd" clip-rule="evenodd" d="M12.9937 7.42304C13.0545 7.53329 13.0503 7.77554 12.9865 7.8374C12.954 7.86899 12.7923 7.8878 12.5538 7.8878H12.1731V7.70817C12.1731 7.60935 12.2034 7.4865 12.2404 7.43518C12.2997 7.35299 12.3462 7.34182 12.6284 7.34182C12.901 7.34182 12.9556 7.35395 12.9937 7.42304ZM12.6967 7.71149C12.4202 7.72413 12.3095 7.68528 12.3666 7.59562C12.3856 7.56584 12.5044 7.55273 12.6852 7.56046C12.907 7.56995 12.9736 7.58734 12.9736 7.63581C12.9736 7.68394 12.9081 7.70179 12.6967 7.71149Z" fill="black"/>
<path fill-rule="evenodd" clip-rule="evenodd" d="M11.7596 7.43518C11.7966 7.4865 11.8269 7.60935 11.8269 7.70817V7.8878H11.439C11.0154 7.8878 10.9615 7.85697 10.9615 7.61481C10.9615 7.38197 11.0219 7.34182 11.3716 7.34182C11.6538 7.34182 11.7003 7.35299 11.7596 7.43518ZM11.3554 7.71149C11.0788 7.72413 10.9682 7.68528 11.0253 7.59562C11.0443 7.56584 11.163 7.55273 11.3439 7.56046C11.5657 7.56995 11.6322 7.58734 11.6322 7.63581C11.6322 7.68394 11.5668 7.70179 11.3554 7.71149Z" fill="black"/>
<path d="M10.8708 8.01132C10.8686 8.04735 10.8417 8.17129 10.8111 8.28679L10.7555 8.49678L10.7517 8.13979C10.7483 7.81729 10.7541 7.7907 10.8115 7.86432C10.8464 7.90918 10.8731 7.97533 10.8708 8.01132Z" fill="black"/>
<path d="M13.5718 6.63834C13.639 6.68617 13.6446 6.80482 13.6341 7.9718L13.6226 9.25276L13.5252 9.2662L13.4279 9.2796V7.93274C13.4279 7.19192 13.4436 6.58584 13.4629 6.58584C13.4821 6.58584 13.5311 6.60948 13.5718 6.63834Z" fill="black"/>
<path d="M14.4028 6.77269C14.4853 6.80616 14.5529 6.86177 14.5529 6.89629C14.5529 7.05102 14.1847 7.14875 13.9875 7.04636C13.8668 6.98361 13.8842 6.85085 14.0228 6.77786C14.1735 6.69852 14.2184 6.69789 14.4028 6.77269Z" fill="black"/>
<path d="M15.096 6.85749C15.1896 7.07512 15.1792 7.08982 14.9312 7.08982H14.7037L14.7192 6.90083C14.7343 6.71625 14.7382 6.71184 14.884 6.71184C15.0134 6.71184 15.0416 6.7312 15.096 6.85749Z" fill="black"/>
<path d="M15.8858 6.8863L15.8989 7.0398L15.6478 7.05686C15.5097 7.06626 15.3836 7.06332 15.3676 7.05039C15.3515 7.03741 15.3249 6.95505 15.3082 6.86731L15.278 6.70776L15.5753 6.72032L15.8726 6.73283L15.8858 6.8863Z" fill="black"/>
<path d="M16.7801 6.86933L16.8098 7.00583H16.4358H16.0618L16.0754 6.86933L16.0889 6.73283L16.3918 6.71184C16.5584 6.70029 16.7073 6.70029 16.7226 6.71184C16.7379 6.72339 16.7638 6.79428 16.7801 6.86933Z" fill="black"/>
<path d="M17.4115 6.62931C17.514 6.68256 17.5175 6.7443 17.4236 6.84501C17.2959 6.98201 16.9327 6.91965 16.9327 6.76076C16.9327 6.71998 16.9561 6.66396 16.9846 6.63624C17.0484 6.57437 17.2979 6.5703 17.4115 6.62931Z" fill="black"/>
<path d="M12.9826 8.21329C13.0224 8.35533 13.0273 9.0043 12.9889 9.04176C12.9736 9.05671 12.8411 9.05575 12.6945 9.03966C12.472 9.01522 12.4328 8.99917 12.4573 8.9426C12.4734 8.90531 12.4949 8.80417 12.505 8.71791C12.5152 8.63164 12.5726 8.4568 12.6327 8.32942C12.721 8.1421 12.7618 8.0978 12.8461 8.0978C12.9231 8.0978 12.9587 8.12795 12.9826 8.21329Z" fill="black"/>
<path d="M12.509 8.11737C12.5153 8.12262 12.4713 8.23454 12.4113 8.36617L12.3023 8.60543L11.9914 8.59313L11.6805 8.58078L11.5847 8.34979L11.4889 8.11879L11.7336 8.0978C11.9511 8.07915 12.4792 8.09246 12.509 8.11737Z" fill="black"/>
<path d="M11.3673 8.32942C11.4274 8.4568 11.4848 8.63164 11.495 8.71791C11.5051 8.80417 11.5268 8.90585 11.5432 8.94382C11.5683 9.00195 11.531 9.01761 11.3079 9.04273C11.1621 9.05919 11.0293 9.05961 11.013 9.04369C10.9728 9.00472 10.9759 8.35806 11.017 8.21329C11.0412 8.12808 11.077 8.0978 11.1539 8.0978C11.2382 8.0978 11.279 8.1421 11.3673 8.32942Z" fill="black"/>
<path d="M11.6106 9.47741C11.6106 9.63562 11.598 9.90967 11.5826 10.0864L11.5546 10.4077H11.2615H10.9684L10.9378 10.1304C10.9116 9.89278 10.9393 9.3234 10.9789 9.28493C10.9902 9.27393 11.4056 9.20917 11.5565 9.19489C11.595 9.19123 11.6106 9.27254 11.6106 9.47741Z" fill="black"/>
<path d="M11.5027 10.9432C11.4613 11.4112 11.459 11.4157 11.2644 11.4157C11.143 11.4157 11.0907 11.3956 11.0736 11.3422C11.0525 11.2765 10.9646 10.7284 10.9624 10.6492C10.9619 10.6319 11.0897 10.6177 11.2465 10.6177H11.5314L11.5027 10.9432Z" fill="black"/>
<path d="M12.2358 10.2551C12.2461 10.3044 12.2813 10.5999 12.314 10.9117C12.3729 11.4713 12.3724 11.4806 12.2793 11.6263C12.2273 11.7075 12.153 11.7996 12.1141 11.8309C12.0751 11.8623 12.0432 11.9187 12.0431 11.9563C12.0428 12.0325 11.8956 11.8794 11.7252 11.6257C11.6265 11.4789 11.6265 11.4778 11.686 10.9117C11.7708 10.1038 11.7449 10.1654 12 10.1654C12.1871 10.1654 12.2198 10.1779 12.2358 10.2551Z" fill="black"/>
<path d="M12.8273 9.2518C13.027 9.27725 13.0272 9.27742 13.0545 9.47036C13.0892 9.7163 13.0891 9.96577 13.0542 10.2129L13.0267 10.4077H12.7361H12.4454L12.4174 10.0864C12.402 9.90967 12.3894 9.63411 12.3894 9.4741V9.18309L12.5084 9.20471C12.5738 9.21664 12.7174 9.23781 12.8273 9.2518Z" fill="black"/>
<path d="M12.1731 9.23029C12.1731 9.4641 12.0948 9.54268 11.9243 9.48014C11.8411 9.44965 11.8269 9.4137 11.8269 9.23311V9.02177H12H12.1731V9.23029Z" fill="black"/>
<path d="M12.1806 9.80379C12.1552 10.0202 11.9339 10.0505 11.8357 9.85108C11.7597 9.69677 11.7845 9.67174 12.0066 9.67834C12.1868 9.68367 12.1941 9.68896 12.1806 9.80379Z" fill="black"/>
<path d="M11.7015 11.9095C11.7467 11.9616 11.7837 12.0217 11.7837 12.043C11.7837 12.1267 11.6403 12.2137 11.5023 12.2137C11.3253 12.2137 11.181 12.0437 11.1466 11.7948C11.1246 11.6356 11.1274 11.6314 11.27 11.6164C11.418 11.6008 11.4574 11.6276 11.7015 11.9095Z" fill="black"/>
<path d="M12.8538 11.7917C12.8194 12.0411 12.6752 12.2137 12.5014 12.2137C12.4156 12.2137 12.3293 12.1812 12.2829 12.1315C12.2089 12.0521 12.2118 12.0419 12.3664 11.8375C12.513 11.6436 12.5414 11.6257 12.7017 11.6257H12.8768L12.8538 11.7917Z" fill="black"/>
<path d="M13.017 10.8172C13.0023 10.927 12.9699 11.1065 12.9451 11.2162C12.9009 11.4119 12.8968 11.4157 12.7342 11.4157C12.5412 11.4157 12.5386 11.4107 12.4973 10.9432L12.4686 10.6177H12.7562H13.0438L13.017 10.8172Z" fill="black"/>
<path d="M13.3337 10.3132C13.3193 11.0823 13.3109 11.156 13.2186 11.3253C13.1038 11.5356 13.0671 11.5372 13.123 11.3294C13.1824 11.1084 13.206 10.8665 13.2385 10.1452C13.2817 9.18783 13.3524 9.31261 13.3337 10.3132Z" fill="black"/>
<path d="M10.7456 9.85124C10.746 10.2993 10.8188 11.132 10.8749 11.3294C10.9339 11.5375 10.8963 11.5358 10.7814 11.3253C10.6891 11.156 10.6807 11.0823 10.6663 10.3132C10.6555 9.73319 10.665 9.48376 10.698 9.48376C10.7284 9.48376 10.7453 9.61416 10.7456 9.85124Z" fill="black"/>
<path d="M13.25 8.15029L13.2452 8.49678L13.1828 8.2455C13.1376 8.06394 13.1327 7.96781 13.165 7.89901C13.1896 7.84664 13.2198 7.8038 13.2323 7.8038C13.2446 7.8038 13.2526 7.95975 13.25 8.15029Z" fill="black"/>
<path d="M9.886 9.15856C9.82667 9.21614 9.78262 9.12055 9.81824 9.01156L9.84878 8.91816L9.88725 9.01908C9.9101 9.07906 9.90962 9.13563 9.886 9.15856Z" fill="black"/>
<path d="M8.83282 9.18363C8.76995 9.20694 8.75 9.16679 8.78298 9.08334C8.81171 9.01072 8.81469 9.01093 8.84312 9.08783C8.85956 9.13235 8.85493 9.17544 8.83282 9.18363Z" fill="black"/>
<path d="M8.27885 9.14777C8.27885 9.17086 8.25821 9.18976 8.23302 9.18976C8.20784 9.18976 8.19923 9.17086 8.21394 9.14777C8.22865 9.12467 8.24925 9.10577 8.25976 9.10577C8.27028 9.10577 8.27885 9.12467 8.27885 9.14777Z" fill="black"/>
<path d="M7.71635 9.10577C7.71635 9.12887 7.69688 9.14777 7.67308 9.14777C7.64928 9.14777 7.62981 9.12887 7.62981 9.10577C7.62981 9.08267 7.64928 9.06377 7.67308 9.06377C7.69688 9.06377 7.71635 9.08267 7.71635 9.10577Z" fill="black"/>
<path d="M12.3029 8.81177C12.3029 8.83576 12.1731 8.85377 12 8.85377C11.8269 8.85377 11.6971 8.83576 11.6971 8.81177C11.6971 8.78779 11.8269 8.76978 12 8.76978C12.1731 8.76978 12.3029 8.78779 12.3029 8.81177Z" fill="black"/>
<path d="M14.1873 9.13634C14.1467 9.23907 14.0752 9.1423 14.1063 9.02677C14.1295 8.94058 14.138 8.93706 14.1734 8.99854C14.1957 9.03722 14.202 9.09921 14.1873 9.13634Z" fill="black"/>
<path d="M15.2445 9.15827C15.2449 9.17561 15.2178 9.18976 15.1844 9.18976C15.144 9.18976 15.1314 9.16028 15.1471 9.1022C15.165 9.03567 15.1794 9.02811 15.2072 9.0707C15.2274 9.10152 15.2442 9.14092 15.2445 9.15827Z" fill="black"/>
<path d="M15.7861 9.14777C15.8008 9.17086 15.7922 9.18976 15.767 9.18976C15.7418 9.18976 15.7212 9.17086 15.7212 9.14777C15.7212 9.12467 15.7297 9.10577 15.7402 9.10577C15.7508 9.10577 15.7713 9.12467 15.7861 9.14777Z" fill="black"/>
<path d="M16.3702 9.10577C16.3702 9.12887 16.3507 9.14777 16.3269 9.14777C16.3031 9.14777 16.2837 9.12887 16.2837 9.10577C16.2837 9.08267 16.3031 9.06377 16.3269 9.06377C16.3507 9.06377 16.3702 9.08267 16.3702 9.10577Z" fill="black"/>
<path d="M10.6596 11.5014C10.7086 11.5947 10.792 11.6871 10.8448 11.7065C10.9108 11.7309 10.9576 11.8024 10.994 11.9346C11.0719 12.2174 11.254 12.3977 11.4643 12.4002C11.5567 12.4013 11.6789 12.386 11.736 12.3661C11.8351 12.3317 11.8384 12.3363 11.8109 12.47C11.795 12.5471 11.7663 12.6253 11.747 12.6441C11.7277 12.6628 11.5991 12.6122 11.4613 12.5317C11.1473 12.3482 10.8888 12.3052 10.6492 12.3965L10.4728 12.4638L10.5008 12.0803C10.5162 11.8694 10.5288 11.6146 10.5288 11.5142C10.5288 11.4139 10.5382 11.3317 10.5496 11.3317C10.561 11.3317 10.6105 11.4081 10.6596 11.5014Z" fill="black"/>
<path d="M13.4913 11.9073L13.522 12.4618L13.3482 12.3955C13.1113 12.3052 12.8514 12.3489 12.5387 12.5317C12.4009 12.6122 12.2723 12.6628 12.253 12.6441C12.2337 12.6253 12.205 12.5471 12.1891 12.47C12.1616 12.3363 12.1649 12.3317 12.264 12.3661C12.3211 12.386 12.4433 12.4013 12.5357 12.4002C12.746 12.3977 12.9281 12.2174 13.006 11.9346C13.0424 11.8024 13.0892 11.7309 13.1552 11.7065C13.208 11.6871 13.2924 11.5929 13.3426 11.4973C13.3928 11.4018 13.4399 11.3301 13.4472 11.3381C13.4546 11.3461 13.4744 11.6023 13.4913 11.9073Z" fill="black"/>
<path d="M13.1638 13.8553L13.3413 13.9069V14.2338C13.3413 14.4136 13.322 14.5722 13.2985 14.5864C13.2031 14.6436 13.0507 14.4603 12.9849 14.2095C12.9484 14.0704 12.9035 13.9109 12.885 13.855C12.8579 13.773 12.8644 13.7583 12.9188 13.7786C12.9559 13.7924 13.0661 13.8269 13.1638 13.8553Z" fill="black"/>
<path d="M12.4743 13.5929C12.6123 13.7337 12.8221 14.1647 12.8221 14.3074C12.8221 14.3751 12.7415 14.3661 12.5409 14.276C12.177 14.1125 11.9924 13.7664 12.1469 13.5374C12.2427 13.3956 12.2885 13.4033 12.4743 13.5929Z" fill="black"/>
<path d="M11.8531 13.5374C12.0076 13.7664 11.823 14.1125 11.4591 14.276C11.1445 14.4174 11.1276 14.393 11.2727 14.0067C11.364 13.7637 11.6296 13.4316 11.7327 13.4316C11.7596 13.4316 11.8138 13.4793 11.8531 13.5374Z" fill="black"/>
<path d="M11.1131 13.8621C11.0957 13.9141 11.0516 14.0704 11.0151 14.2095C10.9707 14.3787 10.9138 14.4881 10.8432 14.5398C10.6908 14.6514 10.6526 14.5834 10.6674 14.2266L10.6803 13.9167L10.875 13.8444C11.1314 13.7493 11.1504 13.7507 11.1131 13.8621Z" fill="black"/>
<path d="M11.3852 14.6331C11.3952 14.6987 11.3498 14.7309 11.1579 14.7942C10.9083 14.8765 10.8461 14.8673 10.8906 14.7546C10.9187 14.6836 11.2569 14.5169 11.3293 14.5384C11.3531 14.5454 11.3783 14.5881 11.3852 14.6331Z" fill="black"/>
<path d="M11.4957 14.9942C11.5094 15.0452 11.5165 15.09 11.5115 15.0938C11.5065 15.0976 11.3598 15.1102 11.1856 15.1218C10.8353 15.145 10.829 15.1116 11.1598 14.9861C11.4344 14.8821 11.4656 14.8829 11.4957 14.9942Z" fill="black"/>
<path d="M12.859 15.3066C13.0405 15.325 13.125 15.3517 13.125 15.3905C13.125 15.4371 12.9181 15.4476 11.9964 15.4476C11.1129 15.4476 10.8717 15.4362 10.8856 15.3951C10.8954 15.3662 10.9798 15.3311 11.0731 15.3171C11.3108 15.2813 12.5387 15.2741 12.859 15.3066Z" fill="black"/>
<path d="M12.0903 14.632C12.1044 14.7687 12.13 14.9231 12.1474 14.9751C12.1767 15.0629 12.1661 15.0696 11.9983 15.0696C11.8438 15.0696 11.822 15.059 11.8475 14.9961C11.8639 14.9557 11.8871 14.8187 11.899 14.6916C11.9267 14.3964 11.9444 14.3447 12.0109 14.366C12.0418 14.3759 12.0758 14.4898 12.0903 14.632Z" fill="black"/>
<path d="M11.7361 14.5551C11.73 14.7189 11.6765 14.8874 11.6463 14.8382C11.599 14.7612 11.5606 14.526 11.5883 14.4826C11.6456 14.3927 11.7404 14.4392 11.7361 14.5551Z" fill="black"/>
<path d="M12.4046 14.5993C12.4011 14.6739 12.3838 14.7677 12.3662 14.8078C12.3388 14.8701 12.3295 14.8655 12.3012 14.7756C12.2831 14.7179 12.2663 14.6173 12.2639 14.552C12.2606 14.4602 12.2767 14.4369 12.3353 14.4486C12.3904 14.4595 12.4093 14.5007 12.4046 14.5993Z" fill="black"/>
<path d="M12.9115 14.6128C13.0588 14.6743 13.125 14.7264 13.125 14.7808C13.125 14.8781 13.0843 14.8789 12.8171 14.7867C12.6202 14.7189 12.5524 14.6315 12.6346 14.5516C12.6742 14.5132 12.6714 14.5126 12.9115 14.6128Z" fill="black"/>
<path d="M12.8413 14.9883C12.9726 15.036 13.0897 15.0901 13.1015 15.1086C13.1183 15.1351 12.524 15.1207 12.4885 15.0938C12.4641 15.0753 12.5341 14.9016 12.5659 14.9016C12.586 14.9016 12.71 14.9406 12.8413 14.9883Z" fill="black"/>
<path d="M12.0433 12.1507C12.0433 12.1853 12.0238 12.2137 12 12.2137C11.9762 12.2137 11.9567 12.1853 11.9567 12.1507C11.9567 12.116 11.9762 12.0877 12 12.0877C12.0238 12.0877 12.0433 12.116 12.0433 12.1507Z" fill="black"/>
<path d="M12.0558 12.6757C12.0723 12.7369 12.0571 12.7597 12 12.7597C11.9429 12.7597 11.9277 12.7369 11.9442 12.6757C11.9566 12.6295 11.9817 12.5917 12 12.5917C12.0183 12.5917 12.0434 12.6295 12.0558 12.6757Z" fill="black"/>
<path d="M12.0433 13.3056C12.0433 13.3287 12.0238 13.3476 12 13.3476C11.9762 13.3476 11.9567 13.3287 11.9567 13.3056C11.9567 13.2825 11.9762 13.2636 12 13.2636C12.0238 13.2636 12.0433 13.2825 12.0433 13.3056Z" fill="black"/>
<path d="M12.0433 14.1456C12.0433 14.1687 12.0238 14.1876 12 14.1876C11.9762 14.1876 11.9567 14.1687 11.9567 14.1456C11.9567 14.1225 11.9762 14.1036 12 14.1036C12.0238 14.1036 12.0433 14.1225 12.0433 14.1456Z" fill="black"/>
<path d="M10.7758 9.07376C10.7654 9.12601 10.7566 9.09317 10.7561 9.00077C10.7556 8.90837 10.7641 8.86562 10.7749 8.90577C10.7857 8.94592 10.7861 9.02152 10.7758 9.07376Z" fill="black"/>
<path d="M13.2421 9.07376C13.2318 9.12601 13.2229 9.09317 13.2224 9.00077C13.222 8.90837 13.2304 8.86562 13.2413 8.90577C13.2521 8.94592 13.2525 9.02152 13.2421 9.07376Z" fill="black"/>
<path d="M4.08173 6.69079C4.28401 6.7036 4.7029 6.71448 5.01262 6.71486C5.32235 6.71528 5.59897 6.72956 5.62739 6.74661C5.68196 6.77933 5.09531 7.00742 4.49279 7.18772C4.11734 7.30011 3.50413 7.4033 3.41313 7.36941C3.33616 7.34072 3.21635 6.98575 3.21635 6.78626V6.62368L3.46514 6.64552C3.602 6.65757 3.87945 6.67794 4.08173 6.69079Z" fill="black"/>
<path d="M6.26393 6.79021C6.24173 6.80944 5.91202 7.02972 5.53125 7.27978C5.15048 7.5298 4.68906 7.83505 4.5059 7.95807C4.3227 8.08112 4.14049 8.18179 4.1009 8.18179C4.01549 8.18179 3.51923 7.69398 3.51923 7.61002C3.51923 7.57567 3.56432 7.55181 3.62922 7.55181C3.98507 7.55181 4.953 7.27034 5.77217 6.92863C6.22607 6.73934 6.36925 6.69903 6.26393 6.79021Z" fill="black"/>
<path d="M6.2747 7.06408C6.24675 7.13472 5.22542 8.50644 5.1179 8.61774C5.04356 8.69472 5.0321 8.69225 4.66582 8.52018C4.45913 8.42303 4.30318 8.3308 4.31928 8.31518C4.35558 8.27999 6.26094 7.01124 6.28227 7.00809C6.29076 7.00683 6.28734 7.03203 6.2747 7.06408Z" fill="black"/>
<path d="M6.15943 8.05227C6.0115 8.72572 5.94014 8.89577 5.80558 8.89577C5.6945 8.89577 5.3725 8.80963 5.32044 8.76595C5.29967 8.74857 5.50174 8.43916 5.76945 8.07839C6.03711 7.71762 6.26388 7.42993 6.27332 7.43909C6.28275 7.44828 6.23148 7.72422 6.15943 8.05227Z" fill="black"/>
<path d="M7.4351 7.17651C7.74447 7.20226 8.47464 7.24526 9.05769 7.27206L10.1178 7.32082L10.1295 8.20019C10.136 8.6838 10.1306 9.06918 10.1175 9.05654C10.0504 8.99132 9.91685 8.51514 9.85281 8.11229C9.78544 7.68869 9.73814 7.57 9.65637 7.61909C9.63828 7.62993 9.62759 7.96726 9.63265 8.36869C9.63772 8.77011 9.6269 9.11307 9.60864 9.13088C9.50081 9.23588 9.37429 8.78527 9.33224 8.14643C9.31177 7.83497 9.28672 7.70578 9.24371 7.68978C9.21074 7.67747 9.17339 7.67747 9.16072 7.68978C9.14808 7.70208 9.1396 8.02434 9.14194 8.4059C9.14445 8.81593 9.12891 9.10997 9.10399 9.12496C9.03126 9.1686 8.87843 8.5728 8.8082 7.9718C8.78475 7.771 8.75918 7.69881 8.71149 7.69881C8.65732 7.69881 8.64231 7.82006 8.62041 8.43379C8.59168 9.2389 8.59653 9.18976 8.54543 9.18976C8.44158 9.18976 8.32328 8.56012 8.32246 8.0033C8.32216 7.79616 8.31069 7.76181 8.24181 7.76181C8.16907 7.76181 8.15908 7.81241 8.13623 8.29729C8.1091 8.87213 8.05069 9.14777 7.95597 9.14777C7.87887 9.14777 7.8304 8.66381 7.85191 8.10859C7.86692 7.72165 7.86294 7.69881 7.78125 7.69881C7.70406 7.69881 7.69194 7.73518 7.66884 8.03618C7.63059 8.53462 7.48403 9.1271 7.40996 9.08267C7.38811 9.06956 7.37019 8.7481 7.37019 8.36831C7.37019 7.71439 7.36578 7.67781 7.28677 7.67781C7.19772 7.67781 7.1921 7.70481 7.13039 8.43059C7.11577 8.60207 7.07406 8.81472 7.03762 8.90308C6.89955 9.23802 6.84547 9.05495 6.85113 8.2718C6.85343 7.95664 6.85429 7.6752 6.85313 7.64631C6.84936 7.55463 6.72362 7.58982 6.70311 7.68831C6.69225 7.7403 6.67235 7.94773 6.6588 8.14933C6.63323 8.53143 6.54115 8.872 6.43432 8.97977C6.32208 9.093 6.28106 8.95251 6.3056 8.53878C6.32572 8.19931 6.51216 7.2222 6.57594 7.12204C6.58987 7.10016 6.66231 7.09297 6.73695 7.10604C6.81154 7.11906 7.12572 7.15081 7.4351 7.17651Z" fill="black"/>
<path fill-rule="evenodd" clip-rule="evenodd" d="M11.322 12.6703C11.437 12.731 11.6025 12.8178 11.6898 12.8632C11.9614 13.0045 12.1786 12.9657 12.6274 12.6958C12.9064 12.5281 13.099 12.4918 13.2761 12.5734C13.4882 12.671 13.5245 12.8282 13.4424 13.2946C13.4068 13.497 13.3646 13.6756 13.3487 13.6914C13.3027 13.737 12.7135 13.4969 12.5323 13.3587C12.321 13.1974 12.115 13.0957 12 13.0957C11.8857 13.0957 11.6793 13.1972 11.4715 13.3557C11.3832 13.4231 11.1982 13.5222 11.0605 13.5759C10.5901 13.7592 10.6323 13.7778 10.5682 13.3595C10.4983 12.9033 10.505 12.771 10.6033 12.6649C10.7729 12.4818 10.9675 12.4832 11.322 12.6703ZM10.7319 13.1808C10.6303 13.0368 10.6403 12.9171 10.7648 12.7868C10.8445 12.7033 10.9127 12.6757 11.0393 12.6757C11.3144 12.6757 11.4642 12.9266 11.3344 13.17C11.2612 13.3075 11.1875 13.348 11.0121 13.347C10.8751 13.3463 10.8294 13.3191 10.7319 13.1808ZM12.6663 13.1715C12.5845 13.0179 12.6211 12.8254 12.7486 12.7387C12.8974 12.6375 13.1131 12.6589 13.2353 12.7868C13.3597 12.9171 13.3697 13.0368 13.2681 13.1808C13.1706 13.3191 13.1249 13.3463 12.9879 13.347C12.8129 13.348 12.7388 13.3076 12.6663 13.1715Z" fill="black"/>
<path d="M11.1562 12.9861C11.1562 13.1372 11.0422 13.2201 10.9435 13.1406C10.8084 13.0317 10.8971 12.8286 11.0692 12.8526C11.1335 12.8615 11.1562 12.8965 11.1562 12.9861Z" fill="black"/>
<path d="M13.0565 12.8692C13.1449 12.9021 13.1449 13.0694 13.0565 13.1406C12.9322 13.2406 12.7737 13.0686 12.8387 12.9042C12.8641 12.84 12.9439 12.8272 13.0565 12.8692Z" fill="black"/>
<path d="M12.4055 15.7957C12.5659 16.0047 12.4834 16.7352 12.2801 16.907C12.0364 17.1129 11.6386 16.9791 11.5879 16.6742C11.5737 16.5886 11.542 16.4296 11.5176 16.3209C11.4651 16.0879 11.4966 15.9127 11.6181 15.7628C11.7001 15.6617 11.7274 15.6549 12.0109 15.6663C12.287 15.6774 12.324 15.6896 12.4055 15.7957Z" fill="black"/>
<path d="M12.4327 22.6286C12.4327 22.7273 12.4097 22.7594 12.324 22.7803C12.1891 22.8131 12.0865 22.7366 12.0865 22.6033C12.0865 22.5147 12.1062 22.5034 12.2596 22.5034C12.4228 22.5034 12.4327 22.5105 12.4327 22.6286Z" fill="black"/>
<path d="M11.9135 22.6033C11.9135 22.7366 11.8109 22.8131 11.676 22.7803C11.5903 22.7594 11.5673 22.7273 11.5673 22.6286C11.5673 22.5105 11.5772 22.5034 11.7404 22.5034C11.8938 22.5034 11.9135 22.5147 11.9135 22.6033Z" fill="black"/>
<path d="M11.9033 21.1012C11.9132 22.0726 11.9053 22.2477 11.8498 22.2924C11.7664 22.3596 11.578 22.315 11.5596 22.2237C11.5519 22.1853 11.5512 21.655 11.5579 21.0453L11.5701 19.9365L11.731 19.9495L11.8918 19.9625L11.9033 21.1012Z" fill="black"/>
<path d="M12.4327 21.1166V22.2918L12.324 22.3183C12.0935 22.3744 12.0865 22.3396 12.0865 21.1193C12.0865 20.5023 12.0995 19.9848 12.1154 19.9695C12.1312 19.9541 12.2091 19.9415 12.2885 19.9415H12.4327V21.1166Z" fill="black"/>
<path d="M12.0433 18.5692C12.0433 18.6408 12.1988 18.7784 12.3806 18.8677C12.5214 18.9368 12.5231 18.941 12.5104 19.1981L12.4976 19.4585H12H11.5024L11.4896 19.1981C11.4769 18.941 11.4786 18.9368 11.6194 18.8677C11.8012 18.7784 11.9567 18.6408 11.9567 18.5692C11.9567 18.5386 11.9762 18.5135 12 18.5135C12.0238 18.5135 12.0433 18.5386 12.0433 18.5692Z" fill="black"/>
<path d="M12.5084 19.7C12.4954 19.7378 12.3539 19.7525 12 19.7525C11.6461 19.7525 11.5046 19.7378 11.4916 19.7C11.4778 19.6599 11.5981 19.6475 12 19.6475C12.4019 19.6475 12.5222 19.6599 12.5084 19.7Z" fill="black"/>
<path d="M11.7415 17.9912C11.7647 18.0505 11.7837 18.1988 11.7837 18.3207C11.7837 18.5593 11.7253 18.6451 11.524 18.7023C11.4645 18.7193 11.344 18.7716 11.2561 18.8187C11.1048 18.8997 11.0904 18.9005 10.9856 18.8339C10.8564 18.7517 10.8552 18.7424 10.9525 18.5765C10.9943 18.5053 11.0625 18.4505 11.1094 18.4505C11.1684 18.4505 11.2099 18.3993 11.2532 18.2731C11.3149 18.0936 11.5216 17.8835 11.6366 17.8835C11.6711 17.8835 11.7182 17.932 11.7415 17.9912Z" fill="black"/>
<path d="M12.3241 17.2681C12.4016 17.3828 12.5643 17.4635 12.7181 17.4635C13.031 17.4635 13.278 17.8096 13.3268 18.3161C13.358 18.64 13.3075 18.6825 13.1905 18.4308C13.1479 18.3391 12.9813 18.1407 12.8203 17.9898C12.5727 17.7577 12.5042 17.7155 12.3751 17.7155C12.1931 17.7155 12.0433 17.8697 12.0433 18.0572C12.0433 18.1234 12.0238 18.1775 12 18.1775C11.9762 18.1775 11.9567 18.1234 11.9567 18.0572C11.9567 17.8699 11.8069 17.7155 11.6253 17.7155C11.4983 17.7155 11.4285 17.7572 11.2006 17.9697C11.0506 18.1094 10.882 18.3079 10.8258 18.4106C10.7696 18.5134 10.7063 18.5975 10.6849 18.5975C10.6632 18.5975 10.658 18.4735 10.6732 18.3161C10.7209 17.8206 10.975 17.4635 11.2799 17.4635C11.4356 17.4635 11.5981 17.3833 11.6759 17.2681C11.7333 17.1829 11.7775 17.1695 12 17.1695C12.2225 17.1695 12.2667 17.1829 12.3241 17.2681Z" fill="black"/>
<path d="M12.575 18.0003C12.6384 18.0645 12.717 18.192 12.7497 18.2838C12.7909 18.3993 12.8344 18.4505 12.8914 18.4505C13.0051 18.4505 13.1492 18.7076 13.0805 18.788C12.9922 18.8912 12.8694 18.9006 12.7241 18.8153C12.6471 18.7701 12.5355 18.7192 12.476 18.7023C12.2748 18.6451 12.2163 18.5593 12.2163 18.3207C12.2163 17.8924 12.3504 17.7726 12.575 18.0003Z" fill="black"/>
<path d="M17.4555 7.21582C17.6318 7.79704 17.7559 8.67629 17.6951 8.91177C17.5969 9.29149 17.3254 8.61917 17.3232 7.9907C17.3221 7.68318 17.2665 7.55861 17.1663 7.63934C17.1258 7.67193 17.1184 7.81741 17.1369 8.21913C17.1613 8.75298 17.135 9.06377 17.0652 9.06377C16.9908 9.06377 16.8911 8.72152 16.867 8.3833C16.8221 7.7508 16.8063 7.67781 16.7147 7.67781C16.6367 7.67781 16.6311 7.72052 16.62 8.40229C16.6098 9.02807 16.6004 9.11349 16.5509 9.02929C16.4556 8.867 16.3672 8.47616 16.3354 8.0768C16.3083 7.73652 16.2966 7.69881 16.2188 7.69881C16.1371 7.69881 16.1331 7.72165 16.1481 8.10859C16.1688 8.64433 16.1207 9.14777 16.0488 9.14777C15.9623 9.14777 15.8866 8.82778 15.8654 8.37196C15.8415 7.85941 15.8228 7.76181 15.7485 7.76181C15.7053 7.76181 15.6835 7.89045 15.6612 8.27629C15.6321 8.78007 15.5892 9.02273 15.5072 9.14655C15.4233 9.27309 15.3963 9.12328 15.3835 8.4618C15.369 7.71342 15.3626 7.66895 15.2738 7.70204C15.2332 7.71712 15.2024 7.82661 15.1824 8.02682C15.1272 8.5783 14.9711 9.17002 14.8932 9.12324C14.8682 9.10829 14.8546 8.81799 14.8597 8.40796C14.8643 8.02841 14.8565 7.70649 14.8422 7.69263C14.8279 7.67877 14.7893 7.67747 14.7563 7.68978C14.7133 7.70578 14.6882 7.83497 14.6678 8.14643C14.6257 8.78527 14.4992 9.23588 14.3914 9.13088C14.3731 9.11307 14.3623 8.77011 14.3673 8.36869C14.3724 7.96726 14.3617 7.62993 14.3436 7.61909C14.2619 7.57 14.2146 7.68869 14.1472 8.11229C14.0832 8.51514 13.9496 8.99132 13.8825 9.05654C13.8694 9.06918 13.864 8.6838 13.8705 8.20019L13.8822 7.32082L14.6178 7.29133C15.3461 7.26215 16.4098 7.18751 16.9111 7.1304C17.3321 7.08239 17.4191 7.09604 17.4555 7.21582Z" fill="black"/>
<path d="M18.6774 7.64097C19.2052 7.99028 19.6548 8.29204 19.6767 8.31153C19.7235 8.3534 18.9909 8.70548 18.9313 8.66969C18.8553 8.62412 17.6498 7.00583 17.6918 7.00583C17.7061 7.00583 18.1496 7.29163 18.6774 7.64097Z" fill="black"/>
<path d="M18.2508 8.09943C18.5073 8.44865 18.7002 8.74924 18.6795 8.76738C18.637 8.80459 18.2724 8.89577 18.1661 8.89577C18.0703 8.89577 17.9865 8.68179 17.8384 8.05958C17.7035 7.49272 17.6912 7.40864 17.7479 7.4427C17.7679 7.45471 17.9942 7.75026 18.2508 8.09943Z" fill="black"/>
<path d="M19.5096 7.38062C19.7558 7.44912 20.075 7.51809 20.219 7.53392C20.3878 7.55244 20.4808 7.5818 20.4808 7.61657C20.4808 7.69242 19.9759 8.18179 19.8976 8.18179C19.8621 8.18179 19.5748 8.01023 19.2591 7.80049C18.9434 7.59079 18.4661 7.27579 18.1983 7.10058C17.9306 6.92531 17.7115 6.76765 17.7115 6.75022C17.7115 6.73279 18.0154 6.83947 18.3868 6.98731C18.7582 7.13514 19.2635 7.31212 19.5096 7.38062Z" fill="black"/>
<path d="M20.7837 6.78836C20.7837 6.98613 20.6635 7.34085 20.5869 7.36941C20.4959 7.4033 19.8827 7.30011 19.5072 7.18772C18.8945 7.00436 18.318 6.77945 18.3732 6.74535C18.4019 6.72763 18.7175 6.71062 19.0745 6.70755C19.6259 6.70281 19.9096 6.69 20.6863 6.63477C20.7715 6.62872 20.7837 6.64783 20.7837 6.78836Z" fill="black"/>
</svg>
