<?xml version="1.0" standalone="no"?>
<!DOCTYPE svg PUBLIC "-//W3C//DTD SVG 20010904//EN"
 "http://www.w3.org/TR/2001/REC-SVG-20010904/DTD/svg10.dtd">
<svg version="1.0" xmlns="http://www.w3.org/2000/svg"
 width="378.000000pt" height="512.000000pt" viewBox="0 0 378.000000 512.000000"
 preserveAspectRatio="xMidYMid meet">

<g transform="translate(0.000000,512.000000) scale(0.100000,-0.100000)"
fill="#2414FA" stroke="none">
<path d="M2050 5113 c-204 -34 -385 -192 -450 -394 -31 -93 -33 -233 -6 -324
60 -201 217 -348 426 -401 132 -33 307 -3 429 75 68 44 159 144 198 216 85
161 85 367 0 530 -45 86 -165 204 -248 243 -110 52 -242 73 -349 55z"/>
<path d="M1220 3910 c-179 -14 -290 -55 -427 -159 -137 -103 -472 -451 -642
-666 l-150 -190 157 -150 c86 -83 178 -170 203 -193 l45 -41 68 77 c38 42 138
164 223 270 85 106 194 234 241 284 106 111 155 138 256 138 66 0 68 -1 63
-22 -3 -13 -43 -221 -88 -463 -69 -370 -82 -457 -83 -545 0 -118 17 -192 65
-277 l29 -52 -41 -128 c-165 -523 -406 -1210 -559 -1593 -23 -58 -51 -126 -61
-152 l-19 -48 335 0 335 0 59 117 c152 304 355 824 507 1301 l59 183 35 -6
c40 -8 396 -125 453 -149 32 -14 44 -28 69 -83 l31 -66 -6 -341 c-6 -295 -11
-441 -30 -878 l-4 -78 318 0 318 0 5 53 c12 120 48 1180 43 1267 -13 212 -89
407 -209 535 -94 100 -159 141 -460 290 -142 69 -258 131 -258 138 -1 46 97
627 105 627 6 0 27 -16 46 -36 42 -44 177 -134 244 -163 77 -34 180 -52 295
-52 124 0 199 15 375 74 111 38 526 183 592 208 21 8 20 13 -79 311 -55 167
-102 305 -104 307 -2 2 -30 -6 -61 -17 -32 -11 -184 -66 -338 -120 -154 -55
-302 -110 -328 -121 -27 -12 -56 -21 -65 -21 -31 0 -92 53 -213 187 -222 246
-397 357 -640 407 -135 28 -545 48 -709 36z"/>
</g>
</svg>
