<?xml version="1.0" standalone="no"?>
<!DOCTYPE svg PUBLIC "-//W3C//DTD SVG 20010904//EN"
 "http://www.w3.org/TR/2001/REC-SVG-20010904/DTD/svg10.dtd">
<svg version="1.0" xmlns="http://www.w3.org/2000/svg"
 width="512.000000pt" height="512.000000pt" viewBox="0 0 512.000000 512.000000"
 preserveAspectRatio="xMidYMid meet">

<g transform="translate(0.000000,512.000000) scale(0.100000,-0.100000)"
fill="#2a51de" stroke="none">
<path d="M1807 5098 c-43 -19 -74 -54 -342 -394 -162 -205 -302 -388 -312
-406 -39 -75 -10 -200 59 -251 18 -13 173 -97 345 -187 l312 -163 5 -46 c4
-25 40 -408 81 -851 81 -863 280 -2564 311 -2647 21 -58 84 -118 146 -139 160
-53 338 69 338 231 0 28 -47 444 -104 925 -113 951 -110 905 -54 944 41 29
106 17 128 -23 5 -11 60 -439 120 -953 61 -513 115 -948 121 -966 14 -43 62
-97 114 -130 53 -34 165 -43 229 -18 75 29 138 103 157 186 6 24 -19 282 -81
852 -124 1126 -230 2118 -230 2148 0 21 44 -19 253 -227 138 -138 263 -257
277 -264 84 -42 174 -28 241 40 62 62 78 124 54 206 -15 54 -31 71 -468 513
-249 251 -467 469 -486 485 -70 57 -149 66 -302 35 -72 -15 -234 0 -415 37
-252 52 -305 70 -479 161 -91 47 -167 89 -170 94 -3 5 90 120 206 257 116 136
217 262 225 280 31 72 12 172 -44 229 -63 63 -151 79 -235 42z"/>
<path d="M2433 5020 c-231 -34 -403 -274 -365 -507 36 -215 220 -373 437 -373
273 0 482 245 437 513 -41 243 -264 403 -509 367z"/>
</g>
</svg>




